STARTFONT 2.1
FONT -Bitstream-Swiss721-Bold-I-Normal--14-100-100-100-P-89-Bitstream.Unicode-0
SIZE 10 100 100
FONTBOUNDINGBOX 21 23 -2 -7

STARTPROPERTIES 21
FOUNDRY "Bitstream"
FAMILY_NAME "Swiss721"
WEIGHT_NAME "Bold"
SLANT "I"
SETWIDTH_NAME "Normal"
ADD_STYLE_NAME ""
PIXEL_SIZE 14
POINT_SIZE 100
RESOLUTION_X 100
RESOLUTION_Y 100
SPACING "P"
AVERAGE_WIDTH 89
CHARSET_REGISTRY "Bitstream.Unicode"
CHARSET_ENCODING "0"
COPYRIGHT "Copyright 1989 - 1998 by Bitstream Inc. All rights reserved."
WEIGHT 10
X_HEIGHT 7
QUAD_WIDTH 8
DEFAULT_CHAR 0
FONT_DESCENT 7
FONT_ASCENT 16
ENDPROPERTIES

CHARS 1016

STARTCHAR 0
ENCODING 0
SWIDTH 1000 0
DWIDTH 14 0
BBX 1 1 0 0
BITMAP
00
ENDCHAR

STARTCHAR 1
ENCODING 1
SWIDTH 284 0
DWIDTH 4 0
BBX 1 1 0 0
BITMAP
00
ENDCHAR

STARTCHAR 2
ENCODING 2
SWIDTH 330 0
DWIDTH 5 0
BBX 4 10 1 0
BITMAP
30
30
30
60
60
60
60
00
C0
C0
ENDCHAR

STARTCHAR 3
ENCODING 3
SWIDTH 331 0
DWIDTH 5 0
BBX 3 4 1 6
BITMAP
A0
A0
A0
A0
ENDCHAR

STARTCHAR 4
ENCODING 4
SWIDTH 769 0
DWIDTH 11 0
BBX 10 10 0 0
BITMAP
0D80
0D80
0900
7FC0
1B00
1200
FF80
2400
6C00
6C00
ENDCHAR

STARTCHAR 5
ENCODING 5
SWIDTH 567 0
DWIDTH 8 0
BBX 8 12 0 -1
BITMAP
08
1C
3E
6B
68
38
1C
16
D6
7C
38
10
ENDCHAR

STARTCHAR 6
ENCODING 6
SWIDTH 860 0
DWIDTH 12 0
BBX 11 10 0 0
BITMAP
7180
8900
8B00
8A00
7600
0DC0
0A20
1A20
1220
31C0
ENDCHAR

STARTCHAR 7
ENCODING 7
SWIDTH 671 0
DWIDTH 9 0
BBX 8 10 0 0
BITMAP
1C
36
36
34
38
7B
CE
CC
FE
77
ENDCHAR

STARTCHAR 8
ENCODING 8
SWIDTH 172 0
DWIDTH 2 0
BBX 1 4 1 6
BITMAP
80
80
80
80
ENDCHAR

STARTCHAR 9
ENCODING 9
SWIDTH 370 0
DWIDTH 5 0
BBX 6 13 0 -3
BITMAP
0C
18
30
30
60
60
C0
C0
C0
C0
C0
60
60
ENDCHAR

STARTCHAR 10
ENCODING 10
SWIDTH 370 0
DWIDTH 5 0
BBX 6 13 -1 -3
BITMAP
18
18
0C
0C
0C
0C
0C
18
18
30
30
60
C0
ENDCHAR

STARTCHAR 11
ENCODING 11
SWIDTH 500 0
DWIDTH 7 0
BBX 5 6 1 4
BITMAP
20
A8
F8
70
50
50
ENDCHAR

STARTCHAR 12
ENCODING 12
SWIDTH 833 0
DWIDTH 12 0
BBX 8 8 2 0
BITMAP
18
18
18
FF
FF
18
18
18
ENDCHAR

STARTCHAR 13
ENCODING 13
SWIDTH 284 0
DWIDTH 4 0
BBX 3 4 0 -2
BITMAP
60
60
20
C0
ENDCHAR

STARTCHAR 14
ENCODING 14
SWIDTH 323 0
DWIDTH 5 0
BBX 4 2 1 3
BITMAP
F0
F0
ENDCHAR

STARTCHAR 15
ENCODING 15
SWIDTH 284 0
DWIDTH 4 0
BBX 2 2 1 0
BITMAP
C0
C0
ENDCHAR

STARTCHAR 16
ENCODING 16
SWIDTH 317 0
DWIDTH 4 0
BBX 4 12 0 -2
BITMAP
10
10
10
30
20
20
60
40
40
C0
80
80
ENDCHAR

STARTCHAR 17
ENCODING 17
SWIDTH 567 0
DWIDTH 8 0
BBX 7 10 0 0
BITMAP
3C
7E
66
C6
C6
C6
C6
CC
FC
78
ENDCHAR

STARTCHAR 18
ENCODING 18
SWIDTH 567 0
DWIDTH 8 0
BBX 5 10 1 0
BITMAP
18
38
F0
30
30
30
60
60
60
60
ENDCHAR

STARTCHAR 19
ENCODING 19
SWIDTH 567 0
DWIDTH 8 0
BBX 7 10 0 0
BITMAP
1C
3E
66
06
0C
18
30
60
FC
FC
ENDCHAR

STARTCHAR 20
ENCODING 20
SWIDTH 567 0
DWIDTH 8 0
BBX 8 10 0 0
BITMAP
1E
3F
63
03
1E
1C
06
C6
7C
38
ENDCHAR

STARTCHAR 21
ENCODING 21
SWIDTH 567 0
DWIDTH 8 0
BBX 7 10 0 0
BITMAP
0E
1E
36
26
6C
CC
FE
FE
18
18
ENDCHAR

STARTCHAR 22
ENCODING 22
SWIDTH 567 0
DWIDTH 8 0
BBX 8 10 0 0
BITMAP
3F
3F
60
7C
FE
C6
06
CE
7C
38
ENDCHAR

STARTCHAR 23
ENCODING 23
SWIDTH 567 0
DWIDTH 8 0
BBX 7 10 0 0
BITMAP
1C
7E
66
C0
DC
FE
C6
C6
FC
78
ENDCHAR

STARTCHAR 24
ENCODING 24
SWIDTH 567 0
DWIDTH 8 0
BBX 7 10 0 0
BITMAP
FE
FE
06
0C
18
10
30
60
60
C0
ENDCHAR

STARTCHAR 25
ENCODING 25
SWIDTH 567 0
DWIDTH 8 0
BBX 8 10 0 0
BITMAP
1E
3F
63
63
3E
7C
C6
C6
FC
78
ENDCHAR

STARTCHAR 26
ENCODING 26
SWIDTH 567 0
DWIDTH 8 0
BBX 7 10 0 0
BITMAP
3C
7E
C6
C6
FE
76
06
CC
FC
70
ENDCHAR

STARTCHAR 27
ENCODING 27
SWIDTH 307 0
DWIDTH 4 0
BBX 3 7 1 0
BITMAP
60
60
00
00
00
C0
C0
ENDCHAR

STARTCHAR 28
ENCODING 28
SWIDTH 307 0
DWIDTH 4 0
BBX 4 9 0 -2
BITMAP
30
30
00
00
00
60
60
20
C0
ENDCHAR

STARTCHAR 29
ENCODING 29
SWIDTH 833 0
DWIDTH 12 0
BBX 8 8 2 0
BITMAP
03
0F
3C
E0
E0
3C
0F
03
ENDCHAR

STARTCHAR 30
ENCODING 30
SWIDTH 833 0
DWIDTH 12 0
BBX 8 5 2 1
BITMAP
FF
FF
00
FF
FF
ENDCHAR

STARTCHAR 31
ENCODING 31
SWIDTH 833 0
DWIDTH 12 0
BBX 8 8 2 0
BITMAP
C0
F0
3C
07
07
3C
F0
C0
ENDCHAR

STARTCHAR 32
ENCODING 32
SWIDTH 558 0
DWIDTH 8 0
BBX 7 10 1 0
BITMAP
3C
7E
C6
06
0C
18
30
00
60
60
ENDCHAR

STARTCHAR 33
ENCODING 33
SWIDTH 1000 0
DWIDTH 14 0
BBX 13 12 0 -2
BITMAP
0FC0
3870
6018
46C8
CDC8
9988
9998
9BB0
CEC0
4000
7030
1FC0
ENDCHAR

STARTCHAR 34
ENCODING 34
SWIDTH 648 0
DWIDTH 9 0
BBX 9 10 -1 0
BITMAP
0700
0F00
0F00
1B00
1B00
3300
3F00
7F80
6180
C180
ENDCHAR

STARTCHAR 35
ENCODING 35
SWIDTH 699 0
DWIDTH 10 0
BBX 9 10 0 0
BITMAP
3F00
3F80
3180
6180
7F00
7F00
6180
C380
FF00
FE00
ENDCHAR

STARTCHAR 36
ENCODING 36
SWIDTH 737 0
DWIDTH 10 0
BBX 10 10 0 0
BITMAP
1F00
7F80
71C0
E000
C000
C000
C000
E380
7F00
3E00
ENDCHAR

STARTCHAR 37
ENCODING 37
SWIDTH 735 0
DWIDTH 10 0
BBX 9 10 0 0
BITMAP
3E00
3F00
3380
6180
6180
6180
6180
C300
FF00
FC00
ENDCHAR

STARTCHAR 38
ENCODING 38
SWIDTH 611 0
DWIDTH 9 0
BBX 8 10 0 0
BITMAP
3F
3F
30
60
7E
7E
60
C0
FE
FE
ENDCHAR

STARTCHAR 39
ENCODING 39
SWIDTH 556 0
DWIDTH 8 0
BBX 8 10 0 0
BITMAP
3F
3F
30
60
7E
7E
60
C0
C0
C0
ENDCHAR

STARTCHAR 40
ENCODING 40
SWIDTH 778 0
DWIDTH 11 0
BBX 10 10 0 0
BITMAP
1F00
7F80
71C0
E000
C000
C780
C780
E180
7F80
3D80
ENDCHAR

STARTCHAR 41
ENCODING 41
SWIDTH 728 0
DWIDTH 10 0
BBX 10 10 0 0
BITMAP
30C0
30C0
30C0
6180
7F80
7F80
6180
C300
C300
C300
ENDCHAR

STARTCHAR 42
ENCODING 42
SWIDTH 309 0
DWIDTH 4 0
BBX 4 10 0 0
BITMAP
30
30
30
60
60
60
60
C0
C0
C0
ENDCHAR

STARTCHAR 43
ENCODING 43
SWIDTH 492 0
DWIDTH 7 0
BBX 7 10 -1 0
BITMAP
06
06
06
0C
0C
0C
CC
D8
F8
70
ENDCHAR

STARTCHAR 44
ENCODING 44
SWIDTH 627 0
DWIDTH 9 0
BBX 9 10 0 0
BITMAP
3380
3700
3E00
7C00
7800
7C00
6C00
CE00
C600
C700
ENDCHAR

STARTCHAR 45
ENCODING 45
SWIDTH 550 0
DWIDTH 8 0
BBX 7 10 0 0
BITMAP
30
30
30
60
60
60
60
C0
FE
FE
ENDCHAR

STARTCHAR 46
ENCODING 46
SWIDTH 876 0
DWIDTH 12 0
BBX 12 10 0 0
BITMAP
3870
38F0
78B0
69E0
6960
6B60
6B60
CEC0
CEC0
CCC0
ENDCHAR

STARTCHAR 47
ENCODING 47
SWIDTH 729 0
DWIDTH 10 0
BBX 10 10 0 0
BITMAP
30C0
38C0
38C0
6980
6D80
6D80
6780
C700
C300
C300
ENDCHAR

STARTCHAR 48
ENCODING 48
SWIDTH 785 0
DWIDTH 11 0
BBX 10 10 0 0
BITMAP
1F00
7F80
71C0
E0C0
C0C0
C0C0
C1C0
E380
7F80
3E00
ENDCHAR

STARTCHAR 49
ENCODING 49
SWIDTH 663 0
DWIDTH 9 0
BBX 9 10 0 0
BITMAP
3F00
3F80
3180
6180
6380
7F00
7C00
E000
C000
C000
ENDCHAR

STARTCHAR 50
ENCODING 50
SWIDTH 785 0
DWIDTH 11 0
BBX 10 11 0 -1
BITMAP
1F00
7F80
71C0
E0C0
C0C0
C0C0
C6C0
E380
7F80
3D80
00C0
ENDCHAR

STARTCHAR 51
ENCODING 51
SWIDTH 692 0
DWIDTH 10 0
BBX 9 10 0 0
BITMAP
3F00
3F80
3180
6180
7F00
7E00
6300
C300
C300
C300
ENDCHAR

STARTCHAR 52
ENCODING 52
SWIDTH 623 0
DWIDTH 9 0
BBX 9 10 0 0
BITMAP
1E00
3F00
6180
6000
3C00
1E00
0300
C300
7E00
3C00
ENDCHAR

STARTCHAR 53
ENCODING 53
SWIDTH 566 0
DWIDTH 8 0
BBX 8 10 0 0
BITMAP
FF
FF
18
18
30
30
30
60
60
60
ENDCHAR

STARTCHAR 54
ENCODING 54
SWIDTH 731 0
DWIDTH 10 0
BBX 9 10 0 0
BITMAP
6180
6180
6180
6300
C300
C300
C300
E600
7E00
3800
ENDCHAR

STARTCHAR 55
ENCODING 55
SWIDTH 566 0
DWIDTH 8 0
BBX 8 10 0 0
BITMAP
C3
C3
C6
66
6C
6C
78
78
30
30
ENDCHAR

STARTCHAR 56
ENCODING 56
SWIDTH 863 0
DWIDTH 12 0
BBX 12 10 0 0
BITMAP
C630
CE60
CE60
CEC0
DEC0
D2C0
F380
7380
6300
6300
ENDCHAR

STARTCHAR 57
ENCODING 57
SWIDTH 547 0
DWIDTH 8 0
BBX 9 10 -1 0
BITMAP
3380
3300
1E00
1E00
0C00
1C00
3E00
3600
6300
E300
ENDCHAR

STARTCHAR 58
ENCODING 58
SWIDTH 559 0
DWIDTH 8 0
BBX 8 10 0 0
BITMAP
C3
C6
66
6C
7C
38
38
30
30
30
ENDCHAR

STARTCHAR 59
ENCODING 59
SWIDTH 597 0
DWIDTH 8 0
BBX 9 10 -1 0
BITMAP
7F80
7F80
0300
0600
0C00
1800
3000
6000
FF00
FF00
ENDCHAR

STARTCHAR 60
ENCODING 60
SWIDTH 382 0
DWIDTH 5 0
BBX 6 13 0 -3
BITMAP
3C
30
30
30
30
60
60
60
60
60
C0
C0
F0
ENDCHAR

STARTCHAR 61
ENCODING 61
SWIDTH 317 0
DWIDTH 4 0
BBX 2 12 1 -2
BITMAP
80
80
80
80
80
80
40
40
40
40
40
40
ENDCHAR

STARTCHAR 62
ENCODING 62
SWIDTH 382 0
DWIDTH 5 0
BBX 6 13 -1 -3
BITMAP
3C
0C
0C
18
18
18
18
18
30
30
30
30
F0
ENDCHAR

STARTCHAR 63
ENCODING 63
SWIDTH 1000 0
DWIDTH 14 0
BBX 8 4 3 6
BITMAP
18
3C
66
C3
ENDCHAR

STARTCHAR 64
ENCODING 64
SWIDTH 500 0
DWIDTH 7 0
BBX 7 1 -1 -3
BITMAP
FE
ENDCHAR

STARTCHAR 65
ENCODING 65
SWIDTH 500 0
DWIDTH 7 0
BBX 3 3 2 8
BITMAP
C0
40
20
ENDCHAR

STARTCHAR 66
ENCODING 66
SWIDTH 556 0
DWIDTH 8 0
BBX 8 7 0 0
BITMAP
3E
7F
03
7F
C6
FE
76
ENDCHAR

STARTCHAR 67
ENCODING 67
SWIDTH 609 0
DWIDTH 9 0
BBX 8 10 0 0
BITMAP
30
30
60
6E
7F
63
C3
C7
FE
DC
ENDCHAR

STARTCHAR 68
ENCODING 68
SWIDTH 574 0
DWIDTH 8 0
BBX 7 7 0 0
BITMAP
1C
7E
66
C0
C6
FC
78
ENDCHAR

STARTCHAR 69
ENCODING 69
SWIDTH 609 0
DWIDTH 9 0
BBX 9 10 0 0
BITMAP
0180
0180
0180
1F00
7F00
6300
C300
C600
FE00
7600
ENDCHAR

STARTCHAR 70
ENCODING 70
SWIDTH 581 0
DWIDTH 8 0
BBX 7 7 0 0
BITMAP
1C
7E
66
FE
C0
FC
78
ENDCHAR

STARTCHAR 71
ENCODING 71
SWIDTH 308 0
DWIDTH 4 0
BBX 5 10 0 0
BITMAP
18
38
60
F0
F0
60
60
C0
C0
C0
ENDCHAR

STARTCHAR 72
ENCODING 72
SWIDTH 610 0
DWIDTH 9 0
BBX 8 10 0 -3
BITMAP
3B
7F
E3
C6
C6
FE
76
0C
FC
78
ENDCHAR

STARTCHAR 73
ENCODING 73
SWIDTH 604 0
DWIDTH 8 0
BBX 8 10 0 0
BITMAP
30
30
30
6E
7F
63
63
C6
C6
C6
ENDCHAR

STARTCHAR 74
ENCODING 74
SWIDTH 266 0
DWIDTH 4 0
BBX 4 10 0 0
BITMAP
30
30
00
60
60
60
C0
C0
C0
C0
ENDCHAR

STARTCHAR 75
ENCODING 75
SWIDTH 269 0
DWIDTH 4 0
BBX 6 13 -2 -3
BITMAP
0C
0C
00
18
18
18
30
30
30
30
60
E0
C0
ENDCHAR

STARTCHAR 76
ENCODING 76
SWIDTH 526 0
DWIDTH 7 0
BBX 7 10 0 0
BITMAP
30
30
30
66
6C
78
78
EC
CC
C6
ENDCHAR

STARTCHAR 77
ENCODING 77
SWIDTH 270 0
DWIDTH 4 0
BBX 4 10 0 0
BITMAP
30
30
30
60
60
60
60
C0
C0
C0
ENDCHAR

STARTCHAR 78
ENCODING 78
SWIDTH 883 0
DWIDTH 12 0
BBX 11 7 0 0
BITMAP
6EC0
7FE0
6660
6660
CCC0
CCC0
CCC0
ENDCHAR

STARTCHAR 79
ENCODING 79
SWIDTH 601 0
DWIDTH 8 0
BBX 8 7 0 0
BITMAP
6E
7F
63
63
C6
C6
C6
ENDCHAR

STARTCHAR 80
ENCODING 80
SWIDTH 616 0
DWIDTH 9 0
BBX 8 7 0 0
BITMAP
1E
7F
63
C3
C6
FE
78
ENDCHAR

STARTCHAR 81
ENCODING 81
SWIDTH 609 0
DWIDTH 9 0
BBX 9 10 -1 -3
BITMAP
3700
3F80
3180
6180
6380
7F00
6E00
C000
C000
C000
ENDCHAR

STARTCHAR 82
ENCODING 82
SWIDTH 609 0
DWIDTH 9 0
BBX 8 10 0 -3
BITMAP
3B
7F
E7
C6
C6
FE
76
0C
0C
0C
ENDCHAR

STARTCHAR 83
ENCODING 83
SWIDTH 376 0
DWIDTH 5 0
BBX 5 7 0 0
BITMAP
58
78
60
60
C0
C0
C0
ENDCHAR

STARTCHAR 84
ENCODING 84
SWIDTH 516 0
DWIDTH 7 0
BBX 7 7 0 0
BITMAP
3E
7E
60
38
0C
FC
F8
ENDCHAR

STARTCHAR 85
ENCODING 85
SWIDTH 317 0
DWIDTH 4 0
BBX 5 9 0 0
BITMAP
30
30
F8
F8
60
60
C0
E0
E0
ENDCHAR

STARTCHAR 86
ENCODING 86
SWIDTH 601 0
DWIDTH 8 0
BBX 8 7 0 0
BITMAP
63
63
63
C6
C6
FE
76
ENDCHAR

STARTCHAR 87
ENCODING 87
SWIDTH 479 0
DWIDTH 7 0
BBX 7 7 0 0
BITMAP
C6
C6
6C
6C
78
38
30
ENDCHAR

STARTCHAR 88
ENCODING 88
SWIDTH 764 0
DWIDTH 11 0
BBX 10 7 1 0
BITMAP
CCC0
CCC0
CD80
DD80
7700
7700
6600
ENDCHAR

STARTCHAR 89
ENCODING 89
SWIDTH 475 0
DWIDTH 7 0
BBX 8 7 -1 0
BITMAP
67
36
3C
18
38
6C
EE
ENDCHAR

STARTCHAR 90
ENCODING 90
SWIDTH 510 0
DWIDTH 7 0
BBX 7 10 0 -3
BITMAP
C6
C6
CC
6C
78
78
30
30
E0
C0
ENDCHAR

STARTCHAR 91
ENCODING 91
SWIDTH 505 0
DWIDTH 7 0
BBX 7 7 0 0
BITMAP
7E
7C
18
30
60
FC
FC
ENDCHAR

STARTCHAR 92
ENCODING 92
SWIDTH 500 0
DWIDTH 7 0
BBX 4 13 1 -3
BITMAP
30
60
60
60
60
60
C0
60
60
60
60
60
30
ENDCHAR

STARTCHAR 93
ENCODING 93
SWIDTH 500 0
DWIDTH 7 0
BBX 2 14 3 -3
BITMAP
C0
C0
C0
C0
C0
C0
C0
C0
C0
C0
C0
C0
C0
C0
ENDCHAR

STARTCHAR 94
ENCODING 94
SWIDTH 500 0
DWIDTH 7 0
BBX 4 13 2 -3
BITMAP
C0
60
60
60
60
60
30
60
60
60
60
60
C0
ENDCHAR

STARTCHAR 95
ENCODING 95
SWIDTH 833 0
DWIDTH 12 0
BBX 8 3 2 3
BITMAP
73
FF
CE
ENDCHAR

STARTCHAR 96
ENCODING 96
SWIDTH 567 0
DWIDTH 8 0
BBX 1 1 0 0
BITMAP
00
ENDCHAR

STARTCHAR 97
ENCODING 97
SWIDTH 330 0
DWIDTH 5 0
BBX 4 10 1 0
BITMAP
30
30
00
60
60
60
60
C0
C0
C0
ENDCHAR

STARTCHAR 98
ENCODING 98
SWIDTH 567 0
DWIDTH 8 0
BBX 7 9 0 -1
BITMAP
04
1C
7E
6E
C8
D6
FC
78
20
ENDCHAR

STARTCHAR 99
ENCODING 99
SWIDTH 567 0
DWIDTH 8 0
BBX 7 10 0 0
BITMAP
1C
3E
66
60
60
F8
60
64
FC
B8
ENDCHAR

STARTCHAR 100
ENCODING 100
SWIDTH 606 0
DWIDTH 8 0
BBX 8 8 0 2
BITMAP
81
5A
3C
66
66
3C
5A
81
ENDCHAR

STARTCHAR 101
ENCODING 101
SWIDTH 608 0
DWIDTH 9 0
BBX 9 10 0 0
BITMAP
6180
6300
3600
F780
1C00
FF00
1800
1800
1800
1800
ENDCHAR

STARTCHAR 102
ENCODING 102
SWIDTH 500 0
DWIDTH 7 0
BBX 2 12 3 -2
BITMAP
C0
C0
C0
C0
C0
00
00
C0
C0
C0
C0
C0
ENDCHAR

STARTCHAR 103
ENCODING 103
SWIDTH 500 0
DWIDTH 7 0
BBX 6 12 0 -2
BITMAP
38
6C
44
E0
B0
D8
6C
34
1C
88
D8
70
ENDCHAR

STARTCHAR 104
ENCODING 104
SWIDTH 500 0
DWIDTH 7 0
BBX 5 2 2 8
BITMAP
D8
D8
ENDCHAR

STARTCHAR 105
ENCODING 105
SWIDTH 833 0
DWIDTH 12 0
BBX 10 10 1 0
BITMAP
1E00
6180
4C80
9240
9040
9040
9240
4C80
6180
1E00
ENDCHAR

STARTCHAR 106
ENCODING 106
SWIDTH 476 0
DWIDTH 7 0
BBX 6 8 0 2
BITMAP
78
04
7C
CC
C8
7C
00
FC
ENDCHAR

STARTCHAR 107
ENCODING 107
SWIDTH 446 0
DWIDTH 6 0
BBX 7 6 -1 1
BITMAP
12
24
48
D8
48
24
ENDCHAR

STARTCHAR 108
ENCODING 108
SWIDTH 833 0
DWIDTH 12 0
BBX 9 4 1 2
BITMAP
FF80
FF80
0180
0180
ENDCHAR

STARTCHAR 109
ENCODING 109
SWIDTH 323 0
DWIDTH 5 0
BBX 4 2 0 3
BITMAP
F0
F0
ENDCHAR

STARTCHAR 110
ENCODING 110
SWIDTH 833 0
DWIDTH 12 0
BBX 10 10 1 0
BITMAP
1E00
6180
5C80
9240
9240
9C40
9240
5280
6180
1E00
ENDCHAR

STARTCHAR 111
ENCODING 111
SWIDTH 500 0
DWIDTH 7 0
BBX 4 2 2 8
BITMAP
F0
F0
ENDCHAR

STARTCHAR 112
ENCODING 112
SWIDTH 329 0
DWIDTH 5 0
BBX 4 4 1 6
BITMAP
60
90
90
60
ENDCHAR

STARTCHAR 113
ENCODING 113
SWIDTH 833 0
DWIDTH 12 0
BBX 8 9 2 0
BITMAP
18
18
FF
FF
18
18
00
FF
FF
ENDCHAR

STARTCHAR 114
ENCODING 114
SWIDTH 374 0
DWIDTH 5 0
BBX 5 6 0 4
BITMAP
30
48
08
30
40
F0
ENDCHAR

STARTCHAR 115
ENCODING 115
SWIDTH 374 0
DWIDTH 5 0
BBX 5 6 0 4
BITMAP
38
08
30
10
10
E0
ENDCHAR

STARTCHAR 116
ENCODING 116
SWIDTH 500 0
DWIDTH 7 0
BBX 3 3 3 8
BITMAP
60
40
80
ENDCHAR

STARTCHAR 117
ENCODING 117
SWIDTH 610 0
DWIDTH 9 0
BBX 8 10 0 -3
BITMAP
33
33
33
66
66
7E
76
C0
C0
C0
ENDCHAR

STARTCHAR 118
ENCODING 118
SWIDTH 500 0
DWIDTH 7 0
BBX 6 10 0 0
BITMAP
7C
E8
E8
E8
68
28
28
28
28
28
ENDCHAR

STARTCHAR 119
ENCODING 119
SWIDTH 284 0
DWIDTH 4 0
BBX 2 2 1 4
BITMAP
C0
C0
ENDCHAR

STARTCHAR 120
ENCODING 120
SWIDTH 500 0
DWIDTH 7 0
BBX 4 3 0 -3
BITMAP
20
30
E0
ENDCHAR

STARTCHAR 121
ENCODING 121
SWIDTH 374 0
DWIDTH 5 0
BBX 3 6 1 4
BITMAP
20
E0
20
40
40
40
ENDCHAR

STARTCHAR 122
ENCODING 122
SWIDTH 522 0
DWIDTH 7 0
BBX 6 8 1 2
BITMAP
38
4C
CC
CC
C8
70
00
F8
ENDCHAR

STARTCHAR 123
ENCODING 123
SWIDTH 446 0
DWIDTH 6 0
BBX 7 6 0 1
BITMAP
48
24
36
24
48
90
ENDCHAR

STARTCHAR 124
ENCODING 124
SWIDTH 882 0
DWIDTH 12 0
BBX 11 10 0 0
BITMAP
2100
E300
2200
4600
4460
4CA0
0940
1BE0
1040
3040
ENDCHAR

STARTCHAR 125
ENCODING 125
SWIDTH 882 0
DWIDTH 12 0
BBX 12 10 0 0
BITMAP
2100
E300
2200
4600
4460
4C90
0810
1860
1080
31E0
ENDCHAR

STARTCHAR 126
ENCODING 126
SWIDTH 881 0
DWIDTH 12 0
BBX 12 10 0 0
BITMAP
3880
0980
3100
1300
1230
E650
04A0
0DF0
0820
1820
ENDCHAR

STARTCHAR 127
ENCODING 127
SWIDTH 558 0
DWIDTH 8 0
BBX 7 10 0 0
BITMAP
0C
0C
00
18
30
60
C0
C6
FC
78
ENDCHAR

STARTCHAR 128
ENCODING 128
SWIDTH 648 0
DWIDTH 9 0
BBX 9 14 -1 0
BITMAP
0600
0200
0100
0000
0700
0F00
0F00
1B00
1B00
3300
3F00
7F80
6180
C180
ENDCHAR

STARTCHAR 129
ENCODING 129
SWIDTH 648 0
DWIDTH 9 0
BBX 9 14 -1 0
BITMAP
0180
0100
0200
0000
0700
0F00
0F00
1B00
1B00
3300
3F00
7F80
6180
C180
ENDCHAR

STARTCHAR 130
ENCODING 130
SWIDTH 648 0
DWIDTH 9 0
BBX 9 14 -1 0
BITMAP
0300
0700
0D80
0000
0700
0F00
0F00
1B00
1B00
3300
3F00
7F80
6180
C180
ENDCHAR

STARTCHAR 131
ENCODING 131
SWIDTH 648 0
DWIDTH 9 0
BBX 10 13 -1 0
BITMAP
06C0
0D80
0000
0700
0F00
0F00
1B00
1B00
3300
3F00
7F80
6180
C180
ENDCHAR

STARTCHAR 132
ENCODING 132
SWIDTH 648 0
DWIDTH 9 0
BBX 9 13 -1 0
BITMAP
0D80
0D80
0000
0700
0F00
0F00
1B00
1B00
3300
3F00
7F80
6180
C180
ENDCHAR

STARTCHAR 133
ENCODING 133
SWIDTH 648 0
DWIDTH 9 0
BBX 9 13 -1 0
BITMAP
0600
0900
0600
0600
0F00
0F00
1B00
1B00
3300
3F00
7F80
6180
C180
ENDCHAR

STARTCHAR 134
ENCODING 134
SWIDTH 925 0
DWIDTH 13 0
BBX 14 10 -1 0
BITMAP
07FC
0FFC
0D80
1980
19F8
33F8
3F00
7F00
63F0
C3F0
ENDCHAR

STARTCHAR 135
ENCODING 135
SWIDTH 737 0
DWIDTH 10 0
BBX 10 13 0 -3
BITMAP
1F00
7F80
71C0
E000
C000
C000
C000
E380
7F00
3E00
0800
0C00
3800
ENDCHAR

STARTCHAR 136
ENCODING 136
SWIDTH 611 0
DWIDTH 9 0
BBX 8 14 0 0
BITMAP
18
08
04
00
3F
3F
30
60
7E
7E
60
C0
FE
FE
ENDCHAR

STARTCHAR 137
ENCODING 137
SWIDTH 611 0
DWIDTH 9 0
BBX 8 14 0 0
BITMAP
06
04
08
00
3F
3F
30
60
7E
7E
60
C0
FE
FE
ENDCHAR

STARTCHAR 138
ENCODING 138
SWIDTH 611 0
DWIDTH 9 0
BBX 8 14 0 0
BITMAP
06
0E
1B
00
3F
3F
30
60
7E
7E
60
C0
FE
FE
ENDCHAR

STARTCHAR 139
ENCODING 139
SWIDTH 611 0
DWIDTH 9 0
BBX 8 13 0 0
BITMAP
1B
1B
00
3F
3F
30
60
7E
7E
60
C0
FE
FE
ENDCHAR

STARTCHAR 140
ENCODING 140
SWIDTH 309 0
DWIDTH 4 0
BBX 4 14 0 0
BITMAP
60
20
10
00
30
30
30
60
60
60
60
C0
C0
C0
ENDCHAR

STARTCHAR 141
ENCODING 141
SWIDTH 309 0
DWIDTH 4 0
BBX 5 14 0 0
BITMAP
18
10
20
00
30
30
30
60
60
60
60
C0
C0
C0
ENDCHAR

STARTCHAR 142
ENCODING 142
SWIDTH 309 0
DWIDTH 4 0
BBX 6 14 0 0
BITMAP
18
38
6C
00
30
30
30
60
60
60
60
C0
C0
C0
ENDCHAR

STARTCHAR 143
ENCODING 143
SWIDTH 309 0
DWIDTH 4 0
BBX 6 13 0 0
BITMAP
6C
6C
00
30
30
30
60
60
60
60
C0
C0
C0
ENDCHAR

STARTCHAR 144
ENCODING 144
SWIDTH 740 0
DWIDTH 10 0
BBX 9 10 0 0
BITMAP
3E00
3F00
3380
6180
F980
F980
6180
C300
FF00
FC00
ENDCHAR

STARTCHAR 145
ENCODING 145
SWIDTH 729 0
DWIDTH 10 0
BBX 10 13 0 0
BITMAP
0D80
1B00
0000
30C0
38C0
38C0
6980
6D80
6D80
6780
C700
C300
C300
ENDCHAR

STARTCHAR 146
ENCODING 146
SWIDTH 785 0
DWIDTH 11 0
BBX 10 14 0 0
BITMAP
0C00
0400
0200
0000
1F00
7F80
71C0
E0C0
C0C0
C0C0
C1C0
E380
7F80
3E00
ENDCHAR

STARTCHAR 147
ENCODING 147
SWIDTH 785 0
DWIDTH 11 0
BBX 10 14 0 0
BITMAP
0300
0200
0400
0000
1F00
7F80
71C0
E0C0
C0C0
C0C0
C1C0
E380
7F80
3E00
ENDCHAR

STARTCHAR 148
ENCODING 148
SWIDTH 785 0
DWIDTH 11 0
BBX 10 14 0 0
BITMAP
0600
0E00
1300
0000
1F00
7F80
71C0
E0C0
C0C0
C0C0
C1C0
E380
7F80
3E00
ENDCHAR

STARTCHAR 149
ENCODING 149
SWIDTH 785 0
DWIDTH 11 0
BBX 10 13 0 0
BITMAP
0D80
1B00
0000
1F00
7F80
71C0
E0C0
C0C0
C0C0
C1C0
E380
7F80
3E00
ENDCHAR

STARTCHAR 150
ENCODING 150
SWIDTH 785 0
DWIDTH 11 0
BBX 10 13 0 0
BITMAP
0D80
0D80
0000
1F00
7F80
71C0
E0C0
C0C0
C0C0
C1C0
E380
7F80
3E00
ENDCHAR

STARTCHAR 151
ENCODING 151
SWIDTH 833 0
DWIDTH 12 0
BBX 8 7 2 1
BITMAP
C3
66
3C
18
3C
66
C3
ENDCHAR

STARTCHAR 152
ENCODING 152
SWIDTH 785 0
DWIDTH 11 0
BBX 10 10 0 0
BITMAP
1EC0
7F80
7380
E6C0
C4C0
CCC0
D9C0
7380
7F80
DE00
ENDCHAR

STARTCHAR 153
ENCODING 153
SWIDTH 731 0
DWIDTH 10 0
BBX 9 14 0 0
BITMAP
0C00
0400
0200
0000
6180
6180
6180
6300
C300
C300
C300
E600
7E00
3800
ENDCHAR

STARTCHAR 154
ENCODING 154
SWIDTH 731 0
DWIDTH 10 0
BBX 9 14 0 0
BITMAP
0600
0400
0800
0000
6180
6180
6180
6300
C300
C300
C300
E600
7E00
3800
ENDCHAR

STARTCHAR 155
ENCODING 155
SWIDTH 731 0
DWIDTH 10 0
BBX 9 14 0 0
BITMAP
0600
0E00
1300
0000
6180
6180
6180
6300
C300
C300
C300
E600
7E00
3800
ENDCHAR

STARTCHAR 156
ENCODING 156
SWIDTH 731 0
DWIDTH 10 0
BBX 9 13 0 0
BITMAP
1B00
1B00
0000
6180
6180
6180
6300
C300
C300
C300
E600
7E00
3800
ENDCHAR

STARTCHAR 157
ENCODING 157
SWIDTH 559 0
DWIDTH 8 0
BBX 8 14 0 0
BITMAP
0C
08
10
00
C3
C6
66
6C
7C
38
30
30
30
30
ENDCHAR

STARTCHAR 158
ENCODING 158
SWIDTH 649 0
DWIDTH 9 0
BBX 9 10 0 0
BITMAP
3000
3000
3F00
7F80
6180
6380
7F00
FC00
C000
C000
ENDCHAR

STARTCHAR 159
ENCODING 159
SWIDTH 593 0
DWIDTH 8 0
BBX 8 10 0 0
BITMAP
1E
3F
73
63
6E
66
C6
C6
DE
DC
ENDCHAR

STARTCHAR 160
ENCODING 160
SWIDTH 556 0
DWIDTH 8 0
BBX 8 11 0 0
BITMAP
18
08
04
00
3E
7F
03
7F
C6
FE
76
ENDCHAR

STARTCHAR 161
ENCODING 161
SWIDTH 556 0
DWIDTH 8 0
BBX 8 11 0 0
BITMAP
06
04
08
00
3E
7F
03
7F
C6
FE
76
ENDCHAR

STARTCHAR 162
ENCODING 162
SWIDTH 556 0
DWIDTH 8 0
BBX 8 11 0 0
BITMAP
06
0E
13
00
3E
7F
03
7F
C6
FE
7A
ENDCHAR

STARTCHAR 163
ENCODING 163
SWIDTH 556 0
DWIDTH 8 0
BBX 8 10 0 0
BITMAP
1B
36
00
3E
7F
03
7F
C6
FE
76
ENDCHAR

STARTCHAR 164
ENCODING 164
SWIDTH 556 0
DWIDTH 8 0
BBX 8 10 0 0
BITMAP
36
36
00
3E
7F
03
7F
C6
FE
76
ENDCHAR

STARTCHAR 165
ENCODING 165
SWIDTH 556 0
DWIDTH 8 0
BBX 8 12 0 0
BITMAP
0C
12
12
0C
00
3E
7F
03
7F
C6
FE
76
ENDCHAR

STARTCHAR 166
ENCODING 166
SWIDTH 896 0
DWIDTH 13 0
BBX 12 7 0 0
BITMAP
3CE0
7FF0
0730
7FF0
CE00
FFE0
73C0
ENDCHAR

STARTCHAR 167
ENCODING 167
SWIDTH 574 0
DWIDTH 8 0
BBX 7 10 0 -3
BITMAP
1C
7E
66
C0
C6
FC
78
20
30
E0
ENDCHAR

STARTCHAR 168
ENCODING 168
SWIDTH 581 0
DWIDTH 8 0
BBX 7 11 0 0
BITMAP
30
10
08
00
1C
7E
66
FE
C0
FC
78
ENDCHAR

STARTCHAR 169
ENCODING 169
SWIDTH 581 0
DWIDTH 8 0
BBX 7 11 0 0
BITMAP
06
04
08
00
1C
7E
66
FE
C0
FC
78
ENDCHAR

STARTCHAR 170
ENCODING 170
SWIDTH 581 0
DWIDTH 8 0
BBX 7 11 0 0
BITMAP
0C
1C
26
00
1C
7E
66
FE
C0
FC
78
ENDCHAR

STARTCHAR 171
ENCODING 171
SWIDTH 581 0
DWIDTH 8 0
BBX 7 10 0 0
BITMAP
36
36
00
1C
7E
66
FE
C0
FC
78
ENDCHAR

STARTCHAR 172
ENCODING 172
SWIDTH 266 0
DWIDTH 4 0
BBX 3 11 0 0
BITMAP
C0
40
20
00
60
60
60
C0
C0
C0
C0
ENDCHAR

STARTCHAR 173
ENCODING 173
SWIDTH 266 0
DWIDTH 4 0
BBX 4 11 0 0
BITMAP
30
20
40
00
60
60
60
C0
C0
C0
C0
ENDCHAR

STARTCHAR 174
ENCODING 174
SWIDTH 266 0
DWIDTH 4 0
BBX 5 11 0 0
BITMAP
30
70
98
00
60
60
60
C0
C0
C0
C0
ENDCHAR

STARTCHAR 175
ENCODING 175
SWIDTH 266 0
DWIDTH 4 0
BBX 5 10 0 0
BITMAP
D8
D8
00
60
60
60
C0
C0
C0
C0
ENDCHAR

STARTCHAR 176
ENCODING 176
SWIDTH 618 0
DWIDTH 9 0
BBX 8 10 0 0
BITMAP
33
1C
26
1E
7F
63
C3
C6
FE
78
ENDCHAR

STARTCHAR 177
ENCODING 177
SWIDTH 601 0
DWIDTH 8 0
BBX 8 10 0 0
BITMAP
1B
36
00
6E
7F
63
63
C6
C6
C6
ENDCHAR

STARTCHAR 178
ENCODING 178
SWIDTH 616 0
DWIDTH 9 0
BBX 8 11 0 0
BITMAP
18
08
04
00
1E
7F
63
C3
C6
FE
78
ENDCHAR

STARTCHAR 179
ENCODING 179
SWIDTH 616 0
DWIDTH 9 0
BBX 8 11 0 0
BITMAP
06
04
08
00
1E
7F
63
C3
C6
FE
78
ENDCHAR

STARTCHAR 180
ENCODING 180
SWIDTH 616 0
DWIDTH 9 0
BBX 8 11 0 0
BITMAP
06
0E
13
00
1E
7F
63
C3
C6
FE
78
ENDCHAR

STARTCHAR 181
ENCODING 181
SWIDTH 616 0
DWIDTH 9 0
BBX 8 10 0 0
BITMAP
1B
36
00
1E
7F
63
C3
C6
FE
78
ENDCHAR

STARTCHAR 182
ENCODING 182
SWIDTH 616 0
DWIDTH 9 0
BBX 8 10 0 0
BITMAP
1B
1B
00
1E
7F
63
C3
C6
FE
78
ENDCHAR

STARTCHAR 183
ENCODING 183
SWIDTH 833 0
DWIDTH 12 0
BBX 8 8 2 0
BITMAP
18
18
00
FF
FF
00
18
18
ENDCHAR

STARTCHAR 184
ENCODING 184
SWIDTH 616 0
DWIDTH 9 0
BBX 8 7 0 0
BITMAP
1D
7E
67
DB
E6
7E
B8
ENDCHAR

STARTCHAR 185
ENCODING 185
SWIDTH 601 0
DWIDTH 8 0
BBX 8 11 0 0
BITMAP
18
08
04
00
63
63
63
C6
C6
FE
76
ENDCHAR

STARTCHAR 186
ENCODING 186
SWIDTH 601 0
DWIDTH 8 0
BBX 8 11 0 0
BITMAP
06
04
08
00
63
63
63
C6
C6
FE
76
ENDCHAR

STARTCHAR 187
ENCODING 187
SWIDTH 601 0
DWIDTH 8 0
BBX 8 11 0 0
BITMAP
0C
1C
26
00
63
63
63
C6
C6
FE
76
ENDCHAR

STARTCHAR 188
ENCODING 188
SWIDTH 601 0
DWIDTH 8 0
BBX 8 10 0 0
BITMAP
36
36
00
63
63
63
C6
C6
FE
76
ENDCHAR

STARTCHAR 189
ENCODING 189
SWIDTH 510 0
DWIDTH 7 0
BBX 7 14 0 -3
BITMAP
0C
08
10
00
C6
C6
CC
6C
78
78
30
30
E0
C0
ENDCHAR

STARTCHAR 190
ENCODING 190
SWIDTH 609 0
DWIDTH 9 0
BBX 9 13 -1 -3
BITMAP
1800
1800
1800
3700
3F80
3180
6180
6380
7F00
6E00
C000
C000
C000
ENDCHAR

STARTCHAR 191
ENCODING 191
SWIDTH 510 0
DWIDTH 7 0
BBX 7 13 0 -3
BITMAP
6C
6C
00
C6
C6
CC
6C
78
78
30
30
E0
C0
ENDCHAR

STARTCHAR 192
ENCODING 192
SWIDTH 648 0
DWIDTH 9 0
BBX 9 13 -1 0
BITMAP
0780
0780
0000
0700
0F00
0F00
1B00
1B00
3300
3F00
7F80
6180
C180
ENDCHAR

STARTCHAR 193
ENCODING 193
SWIDTH 556 0
DWIDTH 8 0
BBX 8 10 0 0
BITMAP
1E
1E
00
3E
7F
03
7F
C6
FE
76
ENDCHAR

STARTCHAR 194
ENCODING 194
SWIDTH 648 0
DWIDTH 9 0
BBX 9 14 -1 0
BITMAP
0480
0700
0200
0000
0700
0F00
0F00
1B00
1B00
3300
3F00
7F80
6180
C180
ENDCHAR

STARTCHAR 195
ENCODING 195
SWIDTH 556 0
DWIDTH 8 0
BBX 8 11 0 0
BITMAP
12
1C
08
00
3E
7F
03
7F
C6
FE
76
ENDCHAR

STARTCHAR 196
ENCODING 196
SWIDTH 648 0
DWIDTH 9 0
BBX 9 13 -1 -3
BITMAP
0700
0F00
0F00
1B00
1B00
3100
3F00
7F80
6180
C180
0080
0100
0180
ENDCHAR

STARTCHAR 197
ENCODING 197
SWIDTH 556 0
DWIDTH 8 0
BBX 8 10 0 -3
BITMAP
3E
7F
03
7F
C6
FE
76
02
04
06
ENDCHAR

STARTCHAR 198
ENCODING 198
SWIDTH 737 0
DWIDTH 10 0
BBX 10 14 0 0
BITMAP
0300
0200
0400
0000
1F00
7F80
71C0
E000
C000
C000
C000
E380
7F00
3E00
ENDCHAR

STARTCHAR 199
ENCODING 199
SWIDTH 574 0
DWIDTH 8 0
BBX 7 11 0 0
BITMAP
0C
08
10
00
1C
7E
66
C0
C6
FC
78
ENDCHAR

STARTCHAR 200
ENCODING 200
SWIDTH 737 0
DWIDTH 10 0
BBX 10 14 0 0
BITMAP
0600
0E00
1300
0000
1F00
7F80
71C0
E000
C000
C000
C000
E380
7F00
3E00
ENDCHAR

STARTCHAR 201
ENCODING 201
SWIDTH 574 0
DWIDTH 8 0
BBX 7 11 0 0
BITMAP
0C
1C
26
00
1C
7E
66
C0
C6
FC
78
ENDCHAR

STARTCHAR 202
ENCODING 202
SWIDTH 737 0
DWIDTH 10 0
BBX 10 13 0 0
BITMAP
0600
0600
0000
1F00
7F80
71C0
E000
C000
C000
C000
E380
7F00
3E00
ENDCHAR

STARTCHAR 203
ENCODING 203
SWIDTH 574 0
DWIDTH 8 0
BBX 7 10 0 0
BITMAP
0C
0C
00
1C
7E
66
C0
C6
FC
78
ENDCHAR

STARTCHAR 204
ENCODING 204
SWIDTH 737 0
DWIDTH 10 0
BBX 10 14 0 0
BITMAP
1900
0E00
0C00
0000
1F00
7F80
71C0
E000
C000
C000
C000
E380
7F00
3E00
ENDCHAR

STARTCHAR 205
ENCODING 205
SWIDTH 574 0
DWIDTH 8 0
BBX 7 11 0 0
BITMAP
32
1C
18
00
1C
7E
66
C0
C6
FC
78
ENDCHAR

STARTCHAR 206
ENCODING 206
SWIDTH 735 0
DWIDTH 10 0
BBX 9 14 0 0
BITMAP
1900
0E00
0C00
0000
3E00
3F00
3380
6180
6180
6180
6180
C300
FF00
FC00
ENDCHAR

STARTCHAR 207
ENCODING 207
SWIDTH 609 0
DWIDTH 9 0
BBX 10 14 0 0
BITMAP
0640
0380
0300
0000
0180
0180
0180
1F00
7F00
6300
C300
C600
FE00
7600
ENDCHAR

STARTCHAR 208
ENCODING 208
SWIDTH 740 0
DWIDTH 10 0
BBX 9 10 0 0
BITMAP
3E00
3F00
3380
6180
F980
F980
6180
C300
FF00
FC00
ENDCHAR

STARTCHAR 209
ENCODING 209
SWIDTH 613 0
DWIDTH 9 0
BBX 10 10 0 0
BITMAP
0180
0FC0
0180
1F00
7F00
6300
C300
C600
FE00
7600
ENDCHAR

STARTCHAR 210
ENCODING 210
SWIDTH 611 0
DWIDTH 9 0
BBX 8 13 0 0
BITMAP
1E
1E
00
3F
3F
30
60
7E
7E
60
C0
FE
FE
ENDCHAR

STARTCHAR 211
ENCODING 211
SWIDTH 581 0
DWIDTH 8 0
BBX 7 10 0 0
BITMAP
1E
1E
00
1C
7E
66
FE
C0
FC
78
ENDCHAR

STARTCHAR 212
ENCODING 212
SWIDTH 611 0
DWIDTH 9 0
BBX 8 14 0 0
BITMAP
19
0E
0C
00
3F
3F
30
60
7E
7E
60
C0
FE
FE
ENDCHAR

STARTCHAR 213
ENCODING 213
SWIDTH 581 0
DWIDTH 8 0
BBX 7 11 0 0
BITMAP
32
1C
18
00
1C
7E
66
FE
C0
FC
78
ENDCHAR

STARTCHAR 214
ENCODING 214
SWIDTH 611 0
DWIDTH 9 0
BBX 8 13 0 0
BITMAP
0C
0C
00
3F
3F
30
60
7E
7E
60
C0
FE
FE
ENDCHAR

STARTCHAR 215
ENCODING 215
SWIDTH 581 0
DWIDTH 8 0
BBX 7 10 0 0
BITMAP
0C
0C
00
1C
7E
66
FE
C0
FC
78
ENDCHAR

STARTCHAR 216
ENCODING 216
SWIDTH 611 0
DWIDTH 9 0
BBX 8 13 0 -3
BITMAP
3F
3F
30
60
7E
7E
60
C0
FE
FE
04
08
0C
ENDCHAR

STARTCHAR 217
ENCODING 217
SWIDTH 581 0
DWIDTH 8 0
BBX 7 10 0 -3
BITMAP
1C
7E
66
FE
C0
FC
78
08
10
18
ENDCHAR

STARTCHAR 218
ENCODING 218
SWIDTH 611 0
DWIDTH 9 0
BBX 8 14 0 0
BITMAP
19
0E
0C
00
3F
3F
30
60
7E
7E
60
C0
FE
FE
ENDCHAR

STARTCHAR 219
ENCODING 219
SWIDTH 581 0
DWIDTH 8 0
BBX 7 11 0 0
BITMAP
12
1C
18
00
1C
7E
66
FE
C0
FC
78
ENDCHAR

STARTCHAR 220
ENCODING 220
SWIDTH 778 0
DWIDTH 11 0
BBX 10 14 0 0
BITMAP
0600
0E00
1300
0000
1F00
7F80
71C0
E000
C000
C780
C780
E180
7F80
3D80
ENDCHAR

STARTCHAR 221
ENCODING 221
SWIDTH 610 0
DWIDTH 9 0
BBX 8 14 0 -3
BITMAP
0C
1C
26
00
3B
7F
E3
C6
C6
FE
76
0C
FC
78
ENDCHAR

STARTCHAR 222
ENCODING 222
SWIDTH 778 0
DWIDTH 11 0
BBX 10 14 0 0
BITMAP
0900
0E00
0C00
0000
1F00
7F80
71C0
E000
C000
C780
C780
E180
7F80
3D80
ENDCHAR

STARTCHAR 223
ENCODING 223
SWIDTH 610 0
DWIDTH 9 0
BBX 8 14 0 -3
BITMAP
32
1C
18
00
3B
7F
E3
C6
C6
FE
76
0C
FC
78
ENDCHAR

STARTCHAR 224
ENCODING 224
SWIDTH 778 0
DWIDTH 11 0
BBX 10 13 0 0
BITMAP
0600
0600
0000
1F00
7F80
71C0
E000
C000
C780
C780
E180
7F80
3D80
ENDCHAR

STARTCHAR 225
ENCODING 225
SWIDTH 610 0
DWIDTH 9 0
BBX 8 13 0 -3
BITMAP
0C
0C
00
3B
7F
E3
C6
C6
FE
76
0C
FC
78
ENDCHAR

STARTCHAR 226
ENCODING 226
SWIDTH 778 0
DWIDTH 11 0
BBX 10 13 0 -3
BITMAP
1F00
7F80
71C0
E000
C000
C780
C780
E180
7F80
3D80
0800
0C00
3800
ENDCHAR

STARTCHAR 227
ENCODING 227
SWIDTH 610 0
DWIDTH 9 0
BBX 8 10 0 -3
BITMAP
3B
7F
E3
FE
76
0C
FC
78
30
E0
ENDCHAR

STARTCHAR 228
ENCODING 228
SWIDTH 728 0
DWIDTH 10 0
BBX 10 14 0 0
BITMAP
0300
0700
0980
0000
30C0
30C0
30C0
6180
7F80
7F80
6180
C300
C300
C300
ENDCHAR

STARTCHAR 229
ENCODING 229
SWIDTH 604 0
DWIDTH 8 0
BBX 8 14 0 0
BITMAP
18
38
4C
00
30
30
30
6E
7F
63
63
C6
C6
C6
ENDCHAR

STARTCHAR 230
ENCODING 230
SWIDTH 728 0
DWIDTH 10 0
BBX 11 10 0 0
BITMAP
30C0
7FE0
30C0
6180
7F80
7F80
6180
C300
C300
C300
ENDCHAR

STARTCHAR 231
ENCODING 231
SWIDTH 604 0
DWIDTH 8 0
BBX 8 10 0 0
BITMAP
30
7E
30
6E
7F
63
63
C6
C6
C6
ENDCHAR

STARTCHAR 232
ENCODING 232
SWIDTH 309 0
DWIDTH 4 0
BBX 6 13 0 0
BITMAP
6C
D8
00
30
30
30
60
60
60
60
C0
C0
C0
ENDCHAR

STARTCHAR 233
ENCODING 233
SWIDTH 266 0
DWIDTH 4 0
BBX 6 10 -1 0
BITMAP
6C
D8
00
30
30
30
60
60
60
60
ENDCHAR

STARTCHAR 234
ENCODING 234
SWIDTH 309 0
DWIDTH 4 0
BBX 5 13 0 0
BITMAP
78
78
00
30
30
30
60
60
60
60
C0
C0
C0
ENDCHAR

STARTCHAR 235
ENCODING 235
SWIDTH 266 0
DWIDTH 4 0
BBX 4 10 0 0
BITMAP
F0
F0
00
60
60
60
C0
C0
C0
C0
ENDCHAR

STARTCHAR 236
ENCODING 236
SWIDTH 309 0
DWIDTH 4 0
BBX 6 14 0 0
BITMAP
64
38
30
00
30
30
30
60
60
60
60
C0
C0
C0
ENDCHAR

STARTCHAR 237
ENCODING 237
SWIDTH 266 0
DWIDTH 4 0
BBX 5 11 0 0
BITMAP
C8
70
60
00
60
60
60
C0
C0
C0
C0
ENDCHAR

STARTCHAR 238
ENCODING 238
SWIDTH 309 0
DWIDTH 4 0
BBX 4 13 0 -3
BITMAP
30
30
30
60
60
60
60
C0
C0
C0
40
80
C0
ENDCHAR

STARTCHAR 239
ENCODING 239
SWIDTH 266 0
DWIDTH 4 0
BBX 4 13 0 -3
BITMAP
30
30
00
60
60
60
C0
C0
C0
C0
40
80
C0
ENDCHAR

STARTCHAR 240
ENCODING 240
SWIDTH 309 0
DWIDTH 4 0
BBX 5 13 0 0
BITMAP
18
18
00
30
30
30
60
60
60
60
C0
C0
C0
ENDCHAR

STARTCHAR 241
ENCODING 241
SWIDTH 266 0
DWIDTH 4 0
BBX 3 7 0 0
BITMAP
60
60
60
C0
C0
C0
C0
ENDCHAR

STARTCHAR 242
ENCODING 242
SWIDTH 751 0
DWIDTH 11 0
BBX 10 10 0 0
BITMAP
30C0
30C0
30C0
6180
6180
6180
7980
DB00
DF00
CE00
ENDCHAR

STARTCHAR 243
ENCODING 243
SWIDTH 535 0
DWIDTH 7 0
BBX 7 13 0 -3
BITMAP
36
36
00
6C
6C
6C
D8
D8
D8
D8
30
70
60
ENDCHAR

STARTCHAR 244
ENCODING 244
SWIDTH 492 0
DWIDTH 7 0
BBX 9 14 -1 0
BITMAP
0300
0700
0980
0000
0600
0600
0600
0C00
0C00
0C00
CC00
D800
F800
7000
ENDCHAR

STARTCHAR 245
ENCODING 245
SWIDTH 269 0
DWIDTH 4 0
BBX 7 14 -2 -3
BITMAP
0C
1C
26
00
18
18
18
30
30
30
30
60
E0
C0
ENDCHAR

STARTCHAR 246
ENCODING 246
SWIDTH 627 0
DWIDTH 9 0
BBX 9 13 0 -3
BITMAP
3380
3700
3E00
7C00
7800
7C00
6C00
CE00
C600
C700
1000
1800
7000
ENDCHAR

STARTCHAR 247
ENCODING 247
SWIDTH 526 0
DWIDTH 7 0
BBX 7 13 0 -3
BITMAP
30
30
30
66
6C
78
78
EC
CC
C6
10
18
70
ENDCHAR

STARTCHAR 248
ENCODING 248
SWIDTH 526 0
DWIDTH 7 0
BBX 7 7 0 0
BITMAP
66
6C
78
78
EC
CC
C6
ENDCHAR

STARTCHAR 249
ENCODING 249
SWIDTH 550 0
DWIDTH 8 0
BBX 7 14 0 0
BITMAP
18
10
20
00
30
30
30
60
60
60
60
C0
FE
FE
ENDCHAR

STARTCHAR 250
ENCODING 250
SWIDTH 270 0
DWIDTH 4 0
BBX 5 14 0 0
BITMAP
18
10
20
00
30
30
30
60
60
60
60
C0
C0
C0
ENDCHAR

STARTCHAR 251
ENCODING 251
SWIDTH 550 0
DWIDTH 8 0
BBX 7 13 0 -3
BITMAP
30
30
30
60
60
60
60
C0
FE
FE
10
18
70
ENDCHAR

STARTCHAR 252
ENCODING 252
SWIDTH 270 0
DWIDTH 4 0
BBX 5 13 -1 -3
BITMAP
18
18
18
30
30
30
30
60
60
60
20
30
E0
ENDCHAR

STARTCHAR 253
ENCODING 253
SWIDTH 550 0
DWIDTH 8 0
BBX 7 14 0 0
BITMAP
64
38
30
00
30
30
30
60
60
60
60
C0
FE
FE
ENDCHAR

STARTCHAR 254
ENCODING 254
SWIDTH 270 0
DWIDTH 4 0
BBX 6 14 0 0
BITMAP
64
38
30
00
30
30
30
60
60
60
60
C0
C0
C0
ENDCHAR

STARTCHAR 255
ENCODING 255
SWIDTH 834 0
DWIDTH 12 0
BBX 9 10 0 0
BITMAP
3000
3000
3000
6000
6180
6180
6000
C000
FE00
FE00
ENDCHAR

STARTCHAR 256
ENCODING 256
SWIDTH 554 0
DWIDTH 8 0
BBX 7 10 0 0
BITMAP
30
30
30
60
66
66
60
C0
C0
C0
ENDCHAR

STARTCHAR 257
ENCODING 257
SWIDTH 556 0
DWIDTH 8 0
BBX 9 10 -2 0
BITMAP
0C00
0C00
0C00
1B00
1E00
7800
D800
3000
3F80
3F80
ENDCHAR

STARTCHAR 258
ENCODING 258
SWIDTH 284 0
DWIDTH 4 0
BBX 6 10 -1 0
BITMAP
18
18
18
30
3C
78
F0
30
60
60
ENDCHAR

STARTCHAR 259
ENCODING 259
SWIDTH 729 0
DWIDTH 10 0
BBX 10 14 0 0
BITMAP
0300
0200
0400
0000
30C0
38C0
38C0
6980
6D80
6D80
6780
C700
C300
C300
ENDCHAR

STARTCHAR 260
ENCODING 260
SWIDTH 601 0
DWIDTH 8 0
BBX 8 11 0 0
BITMAP
06
04
08
00
6E
7F
63
63
C6
C6
C6
ENDCHAR

STARTCHAR 261
ENCODING 261
SWIDTH 729 0
DWIDTH 10 0
BBX 10 13 0 -3
BITMAP
30C0
38C0
38C0
6980
6D80
6D80
6780
C700
C300
C300
0800
0C00
3800
ENDCHAR

STARTCHAR 262
ENCODING 262
SWIDTH 601 0
DWIDTH 8 0
BBX 8 10 0 -3
BITMAP
6E
7F
63
63
C6
C6
C6
10
18
70
ENDCHAR

STARTCHAR 263
ENCODING 263
SWIDTH 729 0
DWIDTH 10 0
BBX 10 14 0 0
BITMAP
0C80
0700
0600
0000
30C0
38C0
38C0
6980
6D80
6D80
6780
C700
C300
C300
ENDCHAR

STARTCHAR 264
ENCODING 264
SWIDTH 601 0
DWIDTH 8 0
BBX 8 11 0 0
BITMAP
19
0E
0C
00
6E
7F
63
63
C6
C6
C6
ENDCHAR

STARTCHAR 265
ENCODING 265
SWIDTH 791 0
DWIDTH 11 0
BBX 10 10 0 0
BITMAP
6000
6000
2000
DB80
1FC0
18C0
18C0
3180
3180
3180
ENDCHAR

STARTCHAR 266
ENCODING 266
SWIDTH 729 0
DWIDTH 10 0
BBX 10 13 0 -3
BITMAP
30C0
38C0
38C0
6980
6D80
6D80
6780
C700
C300
C300
0300
1E00
1C00
ENDCHAR

STARTCHAR 267
ENCODING 267
SWIDTH 601 0
DWIDTH 8 0
BBX 8 10 0 -3
BITMAP
6E
7F
63
63
C6
C6
C6
06
1C
1C
ENDCHAR

STARTCHAR 268
ENCODING 268
SWIDTH 785 0
DWIDTH 11 0
BBX 10 13 0 0
BITMAP
0F00
0F00
0000
1F00
7F80
71C0
E0C0
C0C0
C0C0
C1C0
E380
7F80
3E00
ENDCHAR

STARTCHAR 269
ENCODING 269
SWIDTH 616 0
DWIDTH 9 0
BBX 8 10 0 0
BITMAP
1E
1E
00
1E
7F
63
C3
C6
FE
78
ENDCHAR

STARTCHAR 270
ENCODING 270
SWIDTH 785 0
DWIDTH 11 0
BBX 10 14 0 0
BITMAP
0C80
0700
0600
0000
1F00
7F80
71C0
E0C0
C0C0
C0C0
C1C0
E380
7F80
3E00
ENDCHAR

STARTCHAR 271
ENCODING 271
SWIDTH 616 0
DWIDTH 9 0
BBX 8 11 0 0
BITMAP
19
0E
0C
00
1E
7F
63
C3
C6
FE
78
ENDCHAR

STARTCHAR 272
ENCODING 272
SWIDTH 785 0
DWIDTH 11 0
BBX 10 14 0 0
BITMAP
0D80
0900
1200
0000
1F00
7F80
71C0
E0C0
C0C0
C0C0
C1C0
E380
7F80
3E00
ENDCHAR

STARTCHAR 273
ENCODING 273
SWIDTH 616 0
DWIDTH 9 0
BBX 8 11 0 0
BITMAP
1B
12
24
00
1E
7F
63
C3
C6
FE
78
ENDCHAR

STARTCHAR 274
ENCODING 274
SWIDTH 1088 0
DWIDTH 15 0
BBX 14 10 0 0
BITMAP
1EFC
7FFC
71C0
E080
C1F8
C1F8
C180
E300
7FF8
3DF8
ENDCHAR

STARTCHAR 275
ENCODING 275
SWIDTH 965 0
DWIDTH 14 0
BBX 13 7 0 0
BITMAP
1E70
7FF8
6318
C3F8
C700
FFF0
79E0
ENDCHAR

STARTCHAR 276
ENCODING 276
SWIDTH 692 0
DWIDTH 10 0
BBX 9 14 0 0
BITMAP
0300
0200
0400
0000
3F00
3F80
3180
6180
7F00
7F00
6300
C300
C300
C300
ENDCHAR

STARTCHAR 277
ENCODING 277
SWIDTH 376 0
DWIDTH 5 0
BBX 5 11 0 0
BITMAP
18
10
20
00
58
78
60
60
C0
C0
C0
ENDCHAR

STARTCHAR 278
ENCODING 278
SWIDTH 692 0
DWIDTH 10 0
BBX 9 13 0 -3
BITMAP
3F00
3F80
3180
6180
7F00
7E00
6300
C300
C300
C300
1000
1800
7000
ENDCHAR

STARTCHAR 279
ENCODING 279
SWIDTH 376 0
DWIDTH 5 0
BBX 6 10 -1 -3
BITMAP
2C
3C
30
30
60
60
60
20
30
E0
ENDCHAR

STARTCHAR 280
ENCODING 280
SWIDTH 692 0
DWIDTH 10 0
BBX 9 14 0 0
BITMAP
1900
0E00
0C00
0000
3F00
3F80
3180
6180
7F00
7E00
6300
C300
C300
C300
ENDCHAR

STARTCHAR 281
ENCODING 281
SWIDTH 376 0
DWIDTH 5 0
BBX 6 11 0 0
BITMAP
64
38
30
00
58
78
60
60
C0
C0
C0
ENDCHAR

STARTCHAR 282
ENCODING 282
SWIDTH 623 0
DWIDTH 9 0
BBX 9 14 0 0
BITMAP
0600
0400
0800
0000
1E00
3F00
6180
6000
3C00
1E00
0300
C300
7E00
3C00
ENDCHAR

STARTCHAR 283
ENCODING 283
SWIDTH 516 0
DWIDTH 7 0
BBX 7 11 0 0
BITMAP
0C
08
10
00
3E
7E
60
38
0C
FC
F8
ENDCHAR

STARTCHAR 284
ENCODING 284
SWIDTH 623 0
DWIDTH 9 0
BBX 9 14 0 0
BITMAP
0600
0E00
1300
0000
1E00
3F00
6180
6000
3C00
1E00
0300
C300
7E00
3C00
ENDCHAR

STARTCHAR 285
ENCODING 285
SWIDTH 516 0
DWIDTH 7 0
BBX 7 11 0 0
BITMAP
0C
1C
26
00
3E
7E
60
38
0C
FC
F8
ENDCHAR

STARTCHAR 286
ENCODING 286
SWIDTH 623 0
DWIDTH 9 0
BBX 9 13 0 -3
BITMAP
1E00
3F00
6180
6000
3C00
1E00
0300
C300
7E00
3C00
1000
1800
7000
ENDCHAR

STARTCHAR 287
ENCODING 287
SWIDTH 516 0
DWIDTH 7 0
BBX 7 10 0 -3
BITMAP
3E
7E
60
38
0C
FC
F8
20
30
E0
ENDCHAR

STARTCHAR 288
ENCODING 288
SWIDTH 623 0
DWIDTH 9 0
BBX 9 14 0 0
BITMAP
1900
0E00
0C00
0000
1E00
3F00
6180
6000
3C00
1E00
0300
C300
7E00
3C00
ENDCHAR

STARTCHAR 289
ENCODING 289
SWIDTH 516 0
DWIDTH 7 0
BBX 7 11 0 0
BITMAP
12
1C
18
00
3E
7E
60
38
0C
FC
F8
ENDCHAR

STARTCHAR 290
ENCODING 290
SWIDTH 566 0
DWIDTH 8 0
BBX 8 13 0 -3
BITMAP
FF
FF
18
18
30
30
30
60
60
60
20
30
E0
ENDCHAR

STARTCHAR 291
ENCODING 291
SWIDTH 317 0
DWIDTH 4 0
BBX 6 12 -1 -3
BITMAP
18
18
7C
7C
30
30
60
70
70
20
30
E0
ENDCHAR

STARTCHAR 292
ENCODING 292
SWIDTH 566 0
DWIDTH 8 0
BBX 8 14 0 0
BITMAP
32
1C
18
00
FF
FF
18
18
30
30
30
60
60
60
ENDCHAR

STARTCHAR 293
ENCODING 293
SWIDTH 317 0
DWIDTH 4 0
BBX 6 13 0 0
BITMAP
64
38
30
00
30
30
F8
F8
60
60
C0
E0
E0
ENDCHAR

STARTCHAR 294
ENCODING 294
SWIDTH 566 0
DWIDTH 8 0
BBX 8 10 0 0
BITMAP
FF
FF
18
18
FE
30
30
60
60
60
ENDCHAR

STARTCHAR 295
ENCODING 295
SWIDTH 317 0
DWIDTH 4 0
BBX 6 9 -1 0
BITMAP
18
18
7C
7C
30
F8
60
70
70
ENDCHAR

STARTCHAR 296
ENCODING 296
SWIDTH 731 0
DWIDTH 10 0
BBX 9 13 0 0
BITMAP
1B00
3600
0000
6180
6180
6180
6300
C300
C300
C300
E600
7E00
3800
ENDCHAR

STARTCHAR 297
ENCODING 297
SWIDTH 601 0
DWIDTH 8 0
BBX 8 10 0 0
BITMAP
1B
36
00
63
63
63
C6
C6
FE
76
ENDCHAR

STARTCHAR 298
ENCODING 298
SWIDTH 731 0
DWIDTH 10 0
BBX 9 13 0 0
BITMAP
1E00
1E00
0000
6180
6180
6180
6300
C300
C300
C300
E600
7E00
3800
ENDCHAR

STARTCHAR 299
ENCODING 299
SWIDTH 601 0
DWIDTH 8 0
BBX 8 10 0 0
BITMAP
1E
1E
00
63
63
63
C6
C6
FE
76
ENDCHAR

STARTCHAR 300
ENCODING 300
SWIDTH 731 0
DWIDTH 10 0
BBX 9 14 0 0
BITMAP
1900
0E00
0C00
0000
6180
6180
6180
6300
C300
C300
C300
E600
7E00
3800
ENDCHAR

STARTCHAR 301
ENCODING 301
SWIDTH 601 0
DWIDTH 8 0
BBX 8 11 0 0
BITMAP
32
1C
18
00
63
63
63
C6
C6
FE
76
ENDCHAR

STARTCHAR 302
ENCODING 302
SWIDTH 731 0
DWIDTH 10 0
BBX 9 15 0 0
BITMAP
0C00
1200
1200
0C00
0000
6180
6180
6180
6300
C300
C300
C300
E600
7E00
3800
ENDCHAR

STARTCHAR 303
ENCODING 303
SWIDTH 601 0
DWIDTH 8 0
BBX 8 12 0 0
BITMAP
0C
12
12
0C
00
63
63
63
C6
C6
FE
76
ENDCHAR

STARTCHAR 304
ENCODING 304
SWIDTH 731 0
DWIDTH 10 0
BBX 9 14 0 0
BITMAP
0D80
0900
1200
0000
6180
6180
6180
6300
C300
C300
C300
E600
7E00
3800
ENDCHAR

STARTCHAR 305
ENCODING 305
SWIDTH 601 0
DWIDTH 8 0
BBX 8 11 0 0
BITMAP
1B
12
24
00
63
63
63
C6
C6
FE
76
ENDCHAR

STARTCHAR 306
ENCODING 306
SWIDTH 731 0
DWIDTH 10 0
BBX 9 13 0 -3
BITMAP
6180
6180
6180
6300
C300
C300
C300
E600
7E00
3800
0800
1000
1800
ENDCHAR

STARTCHAR 307
ENCODING 307
SWIDTH 601 0
DWIDTH 8 0
BBX 8 10 0 -3
BITMAP
63
63
63
C6
C6
FE
76
04
08
0C
ENDCHAR

STARTCHAR 308
ENCODING 308
SWIDTH 863 0
DWIDTH 12 0
BBX 12 14 0 0
BITMAP
0300
0700
0980
0000
C630
CE60
CE60
CEC0
DEC0
D2C0
F380
7380
6300
6300
ENDCHAR

STARTCHAR 309
ENCODING 309
SWIDTH 764 0
DWIDTH 11 0
BBX 10 11 1 0
BITMAP
0600
0E00
1300
0000
CCC0
CCC0
CD80
DD80
7700
7700
6600
ENDCHAR

STARTCHAR 310
ENCODING 310
SWIDTH 559 0
DWIDTH 8 0
BBX 8 14 0 0
BITMAP
0C
1C
26
00
C3
C6
66
6C
7C
38
38
30
30
30
ENDCHAR

STARTCHAR 311
ENCODING 311
SWIDTH 510 0
DWIDTH 7 0
BBX 7 14 0 -3
BITMAP
18
38
4C
00
C6
C6
CC
6C
78
78
30
30
E0
C0
ENDCHAR

STARTCHAR 312
ENCODING 312
SWIDTH 559 0
DWIDTH 8 0
BBX 8 13 0 0
BITMAP
36
36
00
C3
C6
66
6C
7C
38
38
30
30
30
ENDCHAR

STARTCHAR 313
ENCODING 313
SWIDTH 597 0
DWIDTH 8 0
BBX 9 14 -1 0
BITMAP
0600
0400
0800
0000
7F80
7F80
0300
0600
0C00
1800
3000
6000
FF00
FF00
ENDCHAR

STARTCHAR 314
ENCODING 314
SWIDTH 505 0
DWIDTH 7 0
BBX 7 11 0 0
BITMAP
0C
08
10
00
7E
7C
18
30
60
FC
FC
ENDCHAR

STARTCHAR 315
ENCODING 315
SWIDTH 597 0
DWIDTH 8 0
BBX 9 13 -1 0
BITMAP
0C00
0C00
0000
7F80
7F80
0300
0600
0C00
1800
3000
6000
FF00
FF00
ENDCHAR

STARTCHAR 316
ENCODING 316
SWIDTH 505 0
DWIDTH 7 0
BBX 7 10 0 0
BITMAP
18
18
00
7E
7C
18
30
60
FC
FC
ENDCHAR

STARTCHAR 317
ENCODING 317
SWIDTH 597 0
DWIDTH 8 0
BBX 9 14 -1 0
BITMAP
1900
0E00
0C00
0000
7F80
7F80
0300
0600
0C00
1800
3000
6000
FF00
FF00
ENDCHAR

STARTCHAR 318
ENCODING 318
SWIDTH 505 0
DWIDTH 7 0
BBX 7 11 0 0
BITMAP
32
1C
18
00
7E
7C
18
30
60
FC
FC
ENDCHAR

STARTCHAR 319
ENCODING 319
SWIDTH 308 0
DWIDTH 4 0
BBX 5 10 0 0
BITMAP
18
38
60
E0
E0
60
60
C0
C0
C0
ENDCHAR

STARTCHAR 320
ENCODING 320
SWIDTH 308 0
DWIDTH 4 0
BBX 6 13 -2 -3
BITMAP
0C
1C
30
78
78
30
30
30
60
60
60
E0
C0
ENDCHAR

STARTCHAR 321
ENCODING 321
SWIDTH 505 0
DWIDTH 7 0
BBX 8 10 -1 0
BITMAP
3F
3F
06
0C
1C
0E
06
C6
7C
38
ENDCHAR

STARTCHAR 322
ENCODING 322
SWIDTH 1332 0
DWIDTH 19 0
BBX 19 14 0 0
BITMAP
000640
000380
000300
000000
3E1FE0
3F1FE0
3380C0
618180
618300
618600
618C00
C31800
FF3FC0
FC3FC0
ENDCHAR

STARTCHAR 323
ENCODING 323
SWIDTH 1114 0
DWIDTH 16 0
BBX 16 11 0 0
BITMAP
0019
018E
018C
0180
1F3F
7F3E
630C
C318
C630
FE7E
767E
ENDCHAR

STARTCHAR 324
ENCODING 324
SWIDTH 1042 0
DWIDTH 15 0
BBX 14 10 0 0
BITMAP
300C
300C
300C
6018
6018
6018
6198
C1B0
FDF0
FCE0
ENDCHAR

STARTCHAR 325
ENCODING 325
SWIDTH 539 0
DWIDTH 8 0
BBX 8 13 0 -3
BITMAP
33
33
30
66
66
66
6C
CC
CC
CC
18
38
30
ENDCHAR

STARTCHAR 326
ENCODING 326
SWIDTH 1221 0
DWIDTH 17 0
BBX 17 10 0 0
BITMAP
30C180
38C180
38C180
698300
6D8300
6D8300
67B300
C73600
C33E00
C31C00
ENDCHAR

STARTCHAR 327
ENCODING 327
SWIDTH 870 0
DWIDTH 12 0
BBX 12 13 0 -3
BITMAP
0030
0030
0000
6C60
7E60
6660
66C0
CCC0
CCC0
CCC0
0180
0380
0300
ENDCHAR

STARTCHAR 328
ENCODING 328
SWIDTH 648 0
DWIDTH 9 0
BBX 9 15 -1 0
BITMAP
0F80
0000
0D80
0D80
0000
0700
0F00
0F00
1B00
1B00
3300
3F00
7F80
6180
C180
ENDCHAR

STARTCHAR 329
ENCODING 329
SWIDTH 556 0
DWIDTH 8 0
BBX 8 12 0 0
BITMAP
3E
00
36
36
00
3E
7F
03
7F
C6
FE
76
ENDCHAR

STARTCHAR 330
ENCODING 330
SWIDTH 778 0
DWIDTH 11 0
BBX 11 10 0 0
BITMAP
1F00
7F80
71C0
E000
C3C0
C0C0
C7E0
E180
7F80
3D80
ENDCHAR

STARTCHAR 331
ENCODING 331
SWIDTH 610 0
DWIDTH 9 0
BBX 8 10 0 -3
BITMAP
3B
7F
E3
C6
FE
76
06
3F
8C
78
ENDCHAR

STARTCHAR 332
ENCODING 332
SWIDTH 778 0
DWIDTH 11 0
BBX 10 14 0 0
BITMAP
1900
0E00
0C00
0000
1F00
7F80
71C0
E000
C000
C780
C780
E180
7F80
3D80
ENDCHAR

STARTCHAR 333
ENCODING 333
SWIDTH 610 0
DWIDTH 9 0
BBX 8 14 0 -3
BITMAP
32
1C
18
00
3B
7F
E3
C6
C6
FE
76
0C
FC
78
ENDCHAR

STARTCHAR 334
ENCODING 334
SWIDTH 627 0
DWIDTH 9 0
BBX 9 14 0 0
BITMAP
1900
0E00
0C00
0000
3380
3700
3E00
7C00
7800
7C00
6C00
CE00
C600
C700
ENDCHAR

STARTCHAR 335
ENCODING 335
SWIDTH 526 0
DWIDTH 7 0
BBX 7 14 0 0
BITMAP
64
38
30
00
30
30
30
66
6C
78
78
EC
CC
C6
ENDCHAR

STARTCHAR 336
ENCODING 336
SWIDTH 505 0
DWIDTH 7 0
BBX 8 14 -1 0
BITMAP
19
0E
0C
00
3F
3F
06
0C
1C
0E
06
C6
7C
38
ENDCHAR

STARTCHAR 337
ENCODING 337
SWIDTH 505 0
DWIDTH 7 0
BBX 8 14 -2 -3
BITMAP
19
0E
0C
00
3F
3F
06
0C
1C
0E
06
C6
7C
38
ENDCHAR

STARTCHAR 338
ENCODING 338
SWIDTH 1332 0
DWIDTH 19 0
BBX 19 10 0 0
BITMAP
3E1FE0
3F1FE0
3380C0
618180
618300
618600
618C00
C31800
FF3FC0
FC3FC0
ENDCHAR

STARTCHAR 339
ENCODING 339
SWIDTH 1114 0
DWIDTH 16 0
BBX 16 10 0 0
BITMAP
0180
0180
0180
1F3F
7F3E
630C
C318
C630
FE7E
767E
ENDCHAR

STARTCHAR 340
ENCODING 340
SWIDTH 778 0
DWIDTH 11 0
BBX 10 14 0 0
BITMAP
0300
0200
0400
0000
1F00
7F80
71C0
E000
C000
C780
C780
E180
7F80
3D80
ENDCHAR

STARTCHAR 341
ENCODING 341
SWIDTH 610 0
DWIDTH 9 0
BBX 8 14 0 -3
BITMAP
06
04
08
00
3B
7F
E3
C6
C6
FE
76
0C
FC
78
ENDCHAR

STARTCHAR 342
ENCODING 342
SWIDTH 648 0
DWIDTH 9 0
BBX 9 16 -1 0
BITMAP
0300
0200
0400
0600
0900
0600
0600
0F00
0F00
1B00
1B00
3300
3F00
7F80
6180
C180
ENDCHAR

STARTCHAR 343
ENCODING 343
SWIDTH 556 0
DWIDTH 8 0
BBX 8 13 0 0
BITMAP
06
04
08
0C
12
0C
3E
7F
03
7F
C6
FE
76
ENDCHAR

STARTCHAR 344
ENCODING 344
SWIDTH 925 0
DWIDTH 13 0
BBX 14 14 -1 0
BITMAP
0060
0040
0080
0000
07FC
0FFC
0D80
1980
19F8
33F8
3F00
7F00
63F0
C3F0
ENDCHAR

STARTCHAR 345
ENCODING 345
SWIDTH 896 0
DWIDTH 13 0
BBX 12 11 0 0
BITMAP
0180
0100
0200
0000
3CE0
7FF0
0730
7FF0
CE00
FFE0
73C0
ENDCHAR

STARTCHAR 346
ENCODING 346
SWIDTH 785 0
DWIDTH 11 0
BBX 10 14 0 0
BITMAP
0300
0200
0400
0000
1EC0
7F80
7380
E6C0
C4C0
CCC0
D9C0
7380
7F80
DE00
ENDCHAR

STARTCHAR 347
ENCODING 347
SWIDTH 616 0
DWIDTH 9 0
BBX 8 11 0 0
BITMAP
06
04
08
00
1D
7E
67
DB
E6
7E
B8
ENDCHAR

STARTCHAR 348
ENCODING 348
SWIDTH 376 0
DWIDTH 5 0
BBX 6 10 -1 -3
BITMAP
2C
3C
30
30
60
60
60
C0
C0
C0
ENDCHAR

STARTCHAR 349
ENCODING 349
SWIDTH 505 0
DWIDTH 7 0
BBX 8 10 -2 -3
BITMAP
3F
3F
06
0C
1C
0E
06
C6
7C
38
ENDCHAR

STARTCHAR 350
ENCODING 350
SWIDTH 500 0
DWIDTH 7 0
BBX 5 3 2 8
BITMAP
30
70
98
ENDCHAR

STARTCHAR 351
ENCODING 351
SWIDTH 500 0
DWIDTH 7 0
BBX 5 3 2 8
BITMAP
C8
70
60
ENDCHAR

STARTCHAR 352
ENCODING 352
SWIDTH 500 0
DWIDTH 7 0
BBX 4 2 2 8
BITMAP
F0
F0
ENDCHAR

STARTCHAR 353
ENCODING 353
SWIDTH 500 0
DWIDTH 7 0
BBX 5 3 2 8
BITMAP
88
F0
60
ENDCHAR

STARTCHAR 354
ENCODING 354
SWIDTH 500 0
DWIDTH 7 0
BBX 2 2 3 8
BITMAP
C0
C0
ENDCHAR

STARTCHAR 355
ENCODING 355
SWIDTH 500 0
DWIDTH 7 0
BBX 4 4 2 8
BITMAP
60
90
90
60
ENDCHAR

STARTCHAR 356
ENCODING 356
SWIDTH 500 0
DWIDTH 7 0
BBX 2 3 2 -3
BITMAP
40
80
C0
ENDCHAR

STARTCHAR 357
ENCODING 357
SWIDTH 500 0
DWIDTH 7 0
BBX 6 2 1 8
BITMAP
6C
D8
ENDCHAR

STARTCHAR 358
ENCODING 358
SWIDTH 500 0
DWIDTH 7 0
BBX 6 3 1 8
BITMAP
6C
48
90
ENDCHAR

STARTCHAR 359
ENCODING 359
SWIDTH 280 0
DWIDTH 4 0
BBX 3 3 0 8
BITMAP
60
40
80
ENDCHAR

STARTCHAR 360
ENCODING 360
SWIDTH 280 0
DWIDTH 4 0
BBX 3 3 0 -3
BITMAP
60
40
80
ENDCHAR

STARTCHAR 361
ENCODING 361
SWIDTH 500 0
DWIDTH 7 0
BBX 2 3 1 -3
BITMAP
40
80
C0
ENDCHAR

STARTCHAR 362
ENCODING 362
SWIDTH 307 0
DWIDTH 4 0
BBX 4 9 -1 -2
BITMAP
30
30
00
00
00
60
60
40
C0
ENDCHAR

STARTCHAR 363
ENCODING 363
SWIDTH 280 0
DWIDTH 4 0
BBX 1 3 2 8
BITMAP
80
80
80
ENDCHAR

STARTCHAR 364
ENCODING 364
SWIDTH 431 0
DWIDTH 6 0
BBX 7 3 0 8
BITMAP
08
D6
D6
ENDCHAR

STARTCHAR 365
ENCODING 365
SWIDTH 648 0
DWIDTH 9 0
BBX 9 11 -1 0
BITMAP
2000
2700
2F00
0F00
1B00
1B00
3300
3F00
7F80
6180
C180
ENDCHAR

STARTCHAR 366
ENCODING 366
SWIDTH 284 0
DWIDTH 4 0
BBX 2 2 1 4
BITMAP
C0
C0
ENDCHAR

STARTCHAR 367
ENCODING 367
SWIDTH 891 0
DWIDTH 12 0
BBX 9 11 2 0
BITMAP
8000
9F80
9F80
1800
3000
3F00
3F00
3000
6000
7F00
7F00
ENDCHAR

STARTCHAR 368
ENCODING 368
SWIDTH 1008 0
DWIDTH 14 0
BBX 11 11 2 0
BITMAP
8000
9860
9860
1860
30C0
3FC0
3FC0
30C0
6180
6180
6180
ENDCHAR

STARTCHAR 369
ENCODING 369
SWIDTH 589 0
DWIDTH 8 0
BBX 5 11 2 0
BITMAP
80
98
98
18
30
30
30
30
60
60
60
ENDCHAR

STARTCHAR 370
ENCODING 370
SWIDTH 1065 0
DWIDTH 15 0
BBX 12 11 2 0
BITMAP
8000
87C0
9FE0
1C70
3830
3030
3030
3070
38E0
1FE0
0F80
ENDCHAR

STARTCHAR 371
ENCODING 371
SWIDTH 839 0
DWIDTH 12 0
BBX 11 11 1 0
BITMAP
8000
9860
98C0
0CC0
0D80
0F80
0700
0700
0600
0600
0600
ENDCHAR

STARTCHAR 372
ENCODING 372
SWIDTH 1067 0
DWIDTH 15 0
BBX 11 11 2 0
BITMAP
8000
8780
9FC0
18E0
3060
3060
3060
30C0
1980
7BC0
7BC0
ENDCHAR

STARTCHAR 373
ENCODING 373
SWIDTH 266 0
DWIDTH 4 0
BBX 5 11 0 0
BITMAP
20
A8
A8
00
60
60
60
C0
C0
C0
C0
ENDCHAR

STARTCHAR 374
ENCODING 374
SWIDTH 648 0
DWIDTH 9 0
BBX 9 10 -1 0
BITMAP
0700
0F00
0F00
1B00
1B00
3300
3F00
7F80
6180
C180
ENDCHAR

STARTCHAR 375
ENCODING 375
SWIDTH 699 0
DWIDTH 10 0
BBX 9 10 0 0
BITMAP
3F00
3F80
3180
6180
7F00
7F00
6180
C380
FF00
FE00
ENDCHAR

STARTCHAR 376
ENCODING 376
SWIDTH 567 0
DWIDTH 8 0
BBX 8 10 0 0
BITMAP
3F
3F
30
60
60
60
60
C0
C0
C0
ENDCHAR

STARTCHAR 377
ENCODING 377
SWIDTH 678 0
DWIDTH 9 0
BBX 10 10 -1 0
BITMAP
0700
0F00
0F00
1F00
1980
3180
3180
6180
7FC0
FFC0
ENDCHAR

STARTCHAR 378
ENCODING 378
SWIDTH 611 0
DWIDTH 9 0
BBX 8 10 0 0
BITMAP
3F
3F
30
60
7E
7E
60
C0
FE
FE
ENDCHAR

STARTCHAR 379
ENCODING 379
SWIDTH 597 0
DWIDTH 8 0
BBX 9 10 -1 0
BITMAP
7F80
7F80
0300
0600
0C00
1800
3000
6000
FF00
FF00
ENDCHAR

STARTCHAR 380
ENCODING 380
SWIDTH 728 0
DWIDTH 10 0
BBX 10 10 0 0
BITMAP
30C0
30C0
30C0
6180
7F80
7F80
6180
C300
C300
C300
ENDCHAR

STARTCHAR 381
ENCODING 381
SWIDTH 785 0
DWIDTH 11 0
BBX 10 10 0 0
BITMAP
1F00
7F80
71C0
E0C0
DEC0
DEC0
C1C0
E380
7F80
3E00
ENDCHAR

STARTCHAR 382
ENCODING 382
SWIDTH 309 0
DWIDTH 4 0
BBX 4 10 0 0
BITMAP
30
30
30
60
60
60
60
C0
C0
C0
ENDCHAR

STARTCHAR 383
ENCODING 383
SWIDTH 627 0
DWIDTH 9 0
BBX 9 10 0 0
BITMAP
3380
3700
3E00
7C00
7800
7C00
6C00
CE00
C600
C700
ENDCHAR

STARTCHAR 384
ENCODING 384
SWIDTH 566 0
DWIDTH 8 0
BBX 8 10 -1 0
BITMAP
0C
0C
1E
1E
36
36
66
63
C3
C3
ENDCHAR

STARTCHAR 385
ENCODING 385
SWIDTH 876 0
DWIDTH 12 0
BBX 12 10 0 0
BITMAP
3870
38F0
78B0
69E0
6960
6B60
6B60
CEC0
CEC0
CCC0
ENDCHAR

STARTCHAR 386
ENCODING 386
SWIDTH 729 0
DWIDTH 10 0
BBX 10 10 0 0
BITMAP
30C0
38C0
38C0
6980
6D80
6D80
6780
C700
C300
C300
ENDCHAR

STARTCHAR 387
ENCODING 387
SWIDTH 613 0
DWIDTH 9 0
BBX 8 10 0 0
BITMAP
7F
7F
00
00
7E
7E
00
00
FE
FE
ENDCHAR

STARTCHAR 388
ENCODING 388
SWIDTH 785 0
DWIDTH 11 0
BBX 10 10 0 0
BITMAP
1F00
7F80
71C0
E0C0
C0C0
C0C0
C1C0
E380
7F80
3E00
ENDCHAR

STARTCHAR 389
ENCODING 389
SWIDTH 732 0
DWIDTH 10 0
BBX 10 10 0 0
BITMAP
3FC0
3FC0
30C0
6180
6180
6180
6180
C300
C300
C300
ENDCHAR

STARTCHAR 390
ENCODING 390
SWIDTH 663 0
DWIDTH 9 0
BBX 9 10 0 0
BITMAP
3F00
3F80
3180
6180
6380
7F00
7C00
E000
C000
C000
ENDCHAR

STARTCHAR 391
ENCODING 391
SWIDTH 581 0
DWIDTH 8 0
BBX 9 10 -1 0
BITMAP
7F80
7F80
3800
1C00
0E00
1C00
3800
7000
FF00
FF00
ENDCHAR

STARTCHAR 392
ENCODING 392
SWIDTH 566 0
DWIDTH 8 0
BBX 8 10 0 0
BITMAP
FF
FF
18
18
30
30
30
60
60
60
ENDCHAR

STARTCHAR 393
ENCODING 393
SWIDTH 559 0
DWIDTH 8 0
BBX 8 10 0 0
BITMAP
C3
C6
66
6C
7C
38
38
30
30
30
ENDCHAR

STARTCHAR 394
ENCODING 394
SWIDTH 722 0
DWIDTH 10 0
BBX 9 10 0 0
BITMAP
0C00
3E00
7F00
ED80
CD80
D980
DB80
7F00
3E00
1800
ENDCHAR

STARTCHAR 395
ENCODING 395
SWIDTH 547 0
DWIDTH 8 0
BBX 9 10 -1 0
BITMAP
3380
3300
1E00
1E00
0C00
1C00
3E00
3600
6300
E300
ENDCHAR

STARTCHAR 396
ENCODING 396
SWIDTH 851 0
DWIDTH 12 0
BBX 11 10 1 0
BITMAP
6660
6660
6660
CCC0
CCC0
CDC0
FF80
7F00
1800
1800
ENDCHAR

STARTCHAR 397
ENCODING 397
SWIDTH 787 0
DWIDTH 11 0
BBX 10 10 0 0
BITMAP
0F00
3F80
31C0
60C0
60C0
60C0
6180
3300
F780
F780
ENDCHAR

STARTCHAR 398
ENCODING 398
SWIDTH 309 0
DWIDTH 4 0
BBX 6 13 0 0
BITMAP
6C
6C
00
30
30
30
60
60
60
60
C0
C0
C0
ENDCHAR

STARTCHAR 399
ENCODING 399
SWIDTH 559 0
DWIDTH 8 0
BBX 8 13 0 0
BITMAP
36
36
00
C3
C6
66
6C
7C
38
38
30
30
30
ENDCHAR

STARTCHAR 400
ENCODING 400
SWIDTH 609 0
DWIDTH 9 0
BBX 8 11 0 0
BITMAP
08
08
08
00
3B
7F
E3
C6
C6
FE
76
ENDCHAR

STARTCHAR 401
ENCODING 401
SWIDTH 524 0
DWIDTH 7 0
BBX 7 11 0 0
BITMAP
08
08
08
00
3C
7E
62
70
C4
FC
78
ENDCHAR

STARTCHAR 402
ENCODING 402
SWIDTH 602 0
DWIDTH 8 0
BBX 8 14 0 -3
BITMAP
04
04
04
00
6E
7F
63
63
C6
C6
C6
0C
0C
0C
ENDCHAR

STARTCHAR 403
ENCODING 403
SWIDTH 266 0
DWIDTH 4 0
BBX 3 11 0 0
BITMAP
20
20
20
00
60
60
60
C0
C0
C0
C0
ENDCHAR

STARTCHAR 404
ENCODING 404
SWIDTH 586 0
DWIDTH 8 0
BBX 8 11 0 0
BITMAP
04
6B
6B
00
63
63
63
C6
C6
FC
78
ENDCHAR

STARTCHAR 405
ENCODING 405
SWIDTH 609 0
DWIDTH 9 0
BBX 8 7 0 0
BITMAP
3B
7F
E3
C6
C6
FE
76
ENDCHAR

STARTCHAR 406
ENCODING 406
SWIDTH 609 0
DWIDTH 9 0
BBX 9 13 -1 -3
BITMAP
0F00
1F80
3980
3180
3700
3600
6300
6300
7F00
6E00
C000
C000
C000
ENDCHAR

STARTCHAR 407
ENCODING 407
SWIDTH 505 0
DWIDTH 7 0
BBX 7 10 0 -3
BITMAP
C6
C6
CC
6C
78
78
30
30
60
60
ENDCHAR

STARTCHAR 408
ENCODING 408
SWIDTH 594 0
DWIDTH 8 0
BBX 7 10 0 0
BITMAP
3E
3E
10
38
7C
E6
C6
CE
7C
38
ENDCHAR

STARTCHAR 409
ENCODING 409
SWIDTH 524 0
DWIDTH 7 0
BBX 7 7 0 0
BITMAP
3C
7E
62
70
C4
FC
78
ENDCHAR

STARTCHAR 410
ENCODING 410
SWIDTH 484 0
DWIDTH 7 0
BBX 7 13 0 -3
BITMAP
7E
7E
18
30
60
60
C0
C0
F8
7C
0C
0C
18
ENDCHAR

STARTCHAR 411
ENCODING 411
SWIDTH 602 0
DWIDTH 8 0
BBX 8 10 0 -3
BITMAP
6E
7F
63
63
C6
C6
C6
0C
0C
0C
ENDCHAR

STARTCHAR 412
ENCODING 412
SWIDTH 593 0
DWIDTH 8 0
BBX 7 10 0 0
BITMAP
3C
7E
66
66
FE
FE
CC
CC
FC
78
ENDCHAR

STARTCHAR 413
ENCODING 413
SWIDTH 266 0
DWIDTH 4 0
BBX 3 7 0 0
BITMAP
60
60
60
C0
C0
C0
C0
ENDCHAR

STARTCHAR 414
ENCODING 414
SWIDTH 523 0
DWIDTH 7 0
BBX 7 7 0 0
BITMAP
66
6C
78
78
EC
CC
C6
ENDCHAR

STARTCHAR 415
ENCODING 415
SWIDTH 465 0
DWIDTH 7 0
BBX 6 10 0 0
BITMAP
30
30
30
18
38
38
68
6C
CC
CC
ENDCHAR

STARTCHAR 416
ENCODING 416
SWIDTH 610 0
DWIDTH 9 0
BBX 8 10 0 -3
BITMAP
33
33
33
66
66
7E
76
C0
C0
C0
ENDCHAR

STARTCHAR 417
ENCODING 417
SWIDTH 479 0
DWIDTH 7 0
BBX 7 7 0 0
BITMAP
C6
C6
CC
6C
78
38
30
ENDCHAR

STARTCHAR 418
ENCODING 418
SWIDTH 528 0
DWIDTH 7 0
BBX 7 13 0 -3
BITMAP
7E
7E
30
60
3C
7C
C0
C0
F8
7C
0C
0C
18
ENDCHAR

STARTCHAR 419
ENCODING 419
SWIDTH 616 0
DWIDTH 9 0
BBX 8 7 0 0
BITMAP
1E
7F
63
C3
C6
FE
78
ENDCHAR

STARTCHAR 420
ENCODING 420
SWIDTH 641 0
DWIDTH 9 0
BBX 9 7 0 0
BITMAP
FF80
FF80
6300
6300
C600
C600
C600
ENDCHAR

STARTCHAR 421
ENCODING 421
SWIDTH 606 0
DWIDTH 8 0
BBX 9 10 -1 -3
BITMAP
0F00
3F80
3180
6180
6380
7F00
6E00
C000
C000
C000
ENDCHAR

STARTCHAR 422
ENCODING 422
SWIDTH 523 0
DWIDTH 7 0
BBX 7 10 0 -3
BITMAP
1C
7E
66
C0
C0
F8
7C
0C
0C
18
ENDCHAR

STARTCHAR 423
ENCODING 423
SWIDTH 647 0
DWIDTH 9 0
BBX 9 7 0 0
BITMAP
1F80
7F80
6300
C300
C600
FE00
7800
ENDCHAR

STARTCHAR 424
ENCODING 424
SWIDTH 451 0
DWIDTH 6 0
BBX 6 7 0 0
BITMAP
FC
FC
30
30
60
60
60
ENDCHAR

STARTCHAR 425
ENCODING 425
SWIDTH 586 0
DWIDTH 8 0
BBX 8 7 0 0
BITMAP
63
63
63
C6
C6
FC
78
ENDCHAR

STARTCHAR 426
ENCODING 426
SWIDTH 704 0
DWIDTH 10 0
BBX 9 13 0 -3
BITMAP
0C00
0C00
0C00
3E00
7F00
ED80
C980
DB80
7F00
3E00
1800
1800
1800
ENDCHAR

STARTCHAR 427
ENCODING 427
SWIDTH 492 0
DWIDTH 7 0
BBX 9 10 -2 -3
BITMAP
3180
3300
3600
1E00
1C00
1800
3C00
6C00
6600
C600
ENDCHAR

STARTCHAR 428
ENCODING 428
SWIDTH 736 0
DWIDTH 10 0
BBX 9 12 1 -3
BITMAP
0C00
0C00
6D80
6D80
C980
DB00
DB00
FF00
7E00
3000
3000
3000
ENDCHAR

STARTCHAR 429
ENCODING 429
SWIDTH 759 0
DWIDTH 11 0
BBX 10 7 0 0
BITMAP
3180
60C0
CCC0
CCC0
CDC0
FF80
7700
ENDCHAR

STARTCHAR 430
ENCODING 430
SWIDTH 266 0
DWIDTH 4 0
BBX 5 10 0 0
BITMAP
D8
D8
00
60
60
60
C0
C0
C0
C0
ENDCHAR

STARTCHAR 431
ENCODING 431
SWIDTH 586 0
DWIDTH 8 0
BBX 8 10 0 0
BITMAP
36
36
00
63
63
63
C6
C6
FC
78
ENDCHAR

STARTCHAR 432
ENCODING 432
SWIDTH 616 0
DWIDTH 9 0
BBX 8 11 0 0
BITMAP
04
04
04
00
1E
7F
63
C3
C6
FE
78
ENDCHAR

STARTCHAR 433
ENCODING 433
SWIDTH 586 0
DWIDTH 8 0
BBX 8 11 0 0
BITMAP
08
08
08
00
63
63
63
C6
C6
FC
78
ENDCHAR

STARTCHAR 434
ENCODING 434
SWIDTH 759 0
DWIDTH 11 0
BBX 10 11 0 0
BITMAP
0400
0400
0400
0000
3180
60C0
CCC0
CCC0
CDC0
FF80
7700
ENDCHAR

STARTCHAR 435
ENCODING 435
SWIDTH 611 0
DWIDTH 9 0
BBX 8 13 0 0
BITMAP
1B
1B
00
3F
3F
30
60
7E
7E
60
C0
FE
FE
ENDCHAR

STARTCHAR 436
ENCODING 436
SWIDTH 806 0
DWIDTH 11 0
BBX 9 10 1 0
BITMAP
FF00
FF00
1800
3700
3F80
3180
3180
6180
6700
6600
ENDCHAR

STARTCHAR 437
ENCODING 437
SWIDTH 507 0
DWIDTH 7 0
BBX 8 14 0 0
BITMAP
06
04
08
00
3F
3F
30
60
60
60
60
C0
C0
C0
ENDCHAR

STARTCHAR 438
ENCODING 438
SWIDTH 759 0
DWIDTH 11 0
BBX 10 10 0 0
BITMAP
1F00
7F80
71C0
E000
FE00
FE00
C000
E380
7F00
3E00
ENDCHAR

STARTCHAR 439
ENCODING 439
SWIDTH 623 0
DWIDTH 9 0
BBX 9 10 0 0
BITMAP
1E00
3F00
6180
6000
3C00
1E00
0300
C300
7E00
3C00
ENDCHAR

STARTCHAR 440
ENCODING 440
SWIDTH 309 0
DWIDTH 4 0
BBX 4 10 0 0
BITMAP
30
30
30
60
60
60
60
C0
C0
C0
ENDCHAR

STARTCHAR 441
ENCODING 441
SWIDTH 309 0
DWIDTH 4 0
BBX 6 13 0 0
BITMAP
6C
6C
00
30
30
30
60
60
60
60
C0
C0
C0
ENDCHAR

STARTCHAR 442
ENCODING 442
SWIDTH 492 0
DWIDTH 7 0
BBX 7 10 -1 0
BITMAP
06
06
06
0C
0C
0C
CC
D8
F8
70
ENDCHAR

STARTCHAR 443
ENCODING 443
SWIDTH 1040 0
DWIDTH 15 0
BBX 14 10 0 0
BITMAP
1FC0
1FC0
18C0
3180
31F8
31FC
318C
631C
E3F8
C3F0
ENDCHAR

STARTCHAR 444
ENCODING 444
SWIDTH 1055 0
DWIDTH 15 0
BBX 13 10 0 0
BITMAP
3180
3180
3180
6300
7FF0
7FF8
6318
C638
C7F0
C7E0
ENDCHAR

STARTCHAR 445
ENCODING 445
SWIDTH 819 0
DWIDTH 11 0
BBX 9 10 1 0
BITMAP
FF00
FF00
1800
3F00
3F80
3180
3180
6300
6300
6300
ENDCHAR

STARTCHAR 446
ENCODING 446
SWIDTH 627 0
DWIDTH 9 0
BBX 9 14 0 0
BITMAP
0600
0400
0800
0000
3380
3700
3E00
7C00
7800
7C00
6C00
CE00
C600
C700
ENDCHAR

STARTCHAR 447
ENCODING 447
SWIDTH 610 0
DWIDTH 9 0
BBX 9 14 0 0
BITMAP
1100
1E00
0C00
0000
6180
6300
3300
3600
3E00
1C00
1C00
3800
F000
E000
ENDCHAR

STARTCHAR 448
ENCODING 448
SWIDTH 747 0
DWIDTH 10 0
BBX 10 12 0 -2
BITMAP
30C0
30C0
30C0
6180
6180
6180
6180
C300
FF00
FF00
1800
1800
ENDCHAR

STARTCHAR 449
ENCODING 449
SWIDTH 648 0
DWIDTH 9 0
BBX 9 10 -1 0
BITMAP
0700
0F00
0F00
1B00
1B00
3300
3F00
7F80
6180
C180
ENDCHAR

STARTCHAR 450
ENCODING 450
SWIDTH 649 0
DWIDTH 9 0
BBX 8 10 0 0
BITMAP
3F
3F
30
60
7E
7F
63
C3
FE
FC
ENDCHAR

STARTCHAR 451
ENCODING 451
SWIDTH 699 0
DWIDTH 10 0
BBX 9 10 0 0
BITMAP
3F00
3F80
3180
6180
7F00
7F00
6180
C380
FF00
FE00
ENDCHAR

STARTCHAR 452
ENCODING 452
SWIDTH 507 0
DWIDTH 7 0
BBX 8 10 0 0
BITMAP
3F
3F
30
60
60
60
60
C0
C0
C0
ENDCHAR

STARTCHAR 453
ENCODING 453
SWIDTH 844 0
DWIDTH 12 0
BBX 11 12 -1 -2
BITMAP
07E0
07E0
0C60
0CC0
0CC0
18C0
1980
3180
7FE0
FFE0
C060
C060
ENDCHAR

STARTCHAR 454
ENCODING 454
SWIDTH 611 0
DWIDTH 9 0
BBX 8 10 0 0
BITMAP
3F
3F
30
60
7E
7E
60
C0
FE
FE
ENDCHAR

STARTCHAR 455
ENCODING 455
SWIDTH 917 0
DWIDTH 13 0
BBX 15 10 -2 0
BITMAP
198E
199C
0DB8
0DB0
07E0
0FE0
1DB0
3B30
7318
E318
ENDCHAR

STARTCHAR 456
ENCODING 456
SWIDTH 649 0
DWIDTH 9 0
BBX 9 10 -1 0
BITMAP
1F00
3F80
6180
0300
0E00
0F00
0300
C300
7E00
3C00
ENDCHAR

STARTCHAR 457
ENCODING 457
SWIDTH 728 0
DWIDTH 10 0
BBX 10 10 0 0
BITMAP
30C0
31C0
33C0
6780
6F80
7D80
7980
F300
E300
C300
ENDCHAR

STARTCHAR 458
ENCODING 458
SWIDTH 728 0
DWIDTH 10 0
BBX 10 14 0 0
BITMAP
0880
0F00
0600
0000
30C0
31C0
33C0
6780
6F80
7D80
7980
F300
E300
C300
ENDCHAR

STARTCHAR 459
ENCODING 459
SWIDTH 627 0
DWIDTH 9 0
BBX 9 10 0 0
BITMAP
3380
3700
3E00
7C00
7800
7C00
6C00
CE00
C600
C700
ENDCHAR

STARTCHAR 460
ENCODING 460
SWIDTH 715 0
DWIDTH 10 0
BBX 10 10 -1 0
BITMAP
1FC0
1FC0
18C0
3180
3180
3180
3180
6300
E300
C300
ENDCHAR

STARTCHAR 461
ENCODING 461
SWIDTH 876 0
DWIDTH 12 0
BBX 12 10 0 0
BITMAP
3870
38F0
78B0
69E0
6960
6B60
6B60
CEC0
CEC0
CCC0
ENDCHAR

STARTCHAR 462
ENCODING 462
SWIDTH 728 0
DWIDTH 10 0
BBX 10 10 0 0
BITMAP
30C0
30C0
30C0
6180
7F80
7F80
6180
C300
C300
C300
ENDCHAR

STARTCHAR 463
ENCODING 463
SWIDTH 785 0
DWIDTH 11 0
BBX 10 10 0 0
BITMAP
1F00
7F80
71C0
E0C0
C0C0
C0C0
C1C0
E380
7F80
3E00
ENDCHAR

STARTCHAR 464
ENCODING 464
SWIDTH 735 0
DWIDTH 10 0
BBX 10 10 0 0
BITMAP
3FC0
3FC0
30C0
6180
6180
6180
6180
C300
C300
C300
ENDCHAR

STARTCHAR 465
ENCODING 465
SWIDTH 663 0
DWIDTH 9 0
BBX 9 10 0 0
BITMAP
3F00
3F80
3180
6180
6380
7F00
7C00
E000
C000
C000
ENDCHAR

STARTCHAR 466
ENCODING 466
SWIDTH 737 0
DWIDTH 10 0
BBX 10 10 0 0
BITMAP
1F00
7F80
71C0
E000
C000
C000
C000
E380
7F00
3E00
ENDCHAR

STARTCHAR 467
ENCODING 467
SWIDTH 566 0
DWIDTH 8 0
BBX 8 10 0 0
BITMAP
FF
FF
18
18
30
30
30
60
60
60
ENDCHAR

STARTCHAR 468
ENCODING 468
SWIDTH 610 0
DWIDTH 9 0
BBX 9 10 0 0
BITMAP
6180
6300
3300
3600
3E00
1C00
1C00
3800
F000
E000
ENDCHAR

STARTCHAR 469
ENCODING 469
SWIDTH 845 0
DWIDTH 12 0
BBX 11 10 0 0
BITMAP
0600
1F80
7FC0
E660
CC60
CCE0
7FC0
3F00
1800
1800
ENDCHAR

STARTCHAR 470
ENCODING 470
SWIDTH 547 0
DWIDTH 8 0
BBX 9 10 -1 0
BITMAP
3380
3300
1E00
1E00
0C00
1C00
3E00
3600
6300
E300
ENDCHAR

STARTCHAR 471
ENCODING 471
SWIDTH 781 0
DWIDTH 11 0
BBX 10 12 0 -2
BITMAP
30C0
30C0
30C0
6180
6180
6180
6180
C300
FFC0
FFC0
00C0
00C0
ENDCHAR

STARTCHAR 472
ENCODING 472
SWIDTH 678 0
DWIDTH 9 0
BBX 8 10 0 0
BITMAP
63
63
63
C6
C6
FE
7E
0C
0C
0C
ENDCHAR

STARTCHAR 473
ENCODING 473
SWIDTH 1033 0
DWIDTH 14 0
BBX 14 10 0 0
BITMAP
318C
318C
318C
6318
6318
6318
6318
C630
FFF0
FFF0
ENDCHAR

STARTCHAR 474
ENCODING 474
SWIDTH 1080 0
DWIDTH 15 0
BBX 14 12 0 -2
BITMAP
318C
318C
318C
6318
6318
6318
6318
C630
FFFC
FFFC
000C
000C
ENDCHAR

STARTCHAR 475
ENCODING 475
SWIDTH 789 0
DWIDTH 11 0
BBX 9 10 1 0
BITMAP
F800
F800
1800
3000
3F00
3F80
3180
6180
7F00
7E00
ENDCHAR

STARTCHAR 476
ENCODING 476
SWIDTH 957 0
DWIDTH 13 0
BBX 13 10 0 0
BITMAP
3018
3018
3018
6030
7E30
7F30
6330
C360
FE60
FC60
ENDCHAR

STARTCHAR 477
ENCODING 477
SWIDTH 649 0
DWIDTH 9 0
BBX 8 10 0 0
BITMAP
30
30
30
60
7E
7F
63
C7
FE
FC
ENDCHAR

STARTCHAR 478
ENCODING 478
SWIDTH 745 0
DWIDTH 10 0
BBX 10 10 -1 0
BITMAP
1F00
3F80
71C0
00C0
1FC0
1FC0
01C0
E380
7F80
3E00
ENDCHAR

STARTCHAR 479
ENCODING 479
SWIDTH 1050 0
DWIDTH 15 0
BBX 14 10 0 0
BITMAP
31F0
37F8
371C
6E0C
7C0C
7C0C
6C1C
CE38
C7F8
C3E0
ENDCHAR

STARTCHAR 480
ENCODING 480
SWIDTH 692 0
DWIDTH 10 0
BBX 10 10 0 0
BITMAP
1FC0
3FC0
60C0
6180
3F80
7F80
6180
C300
C300
C300
ENDCHAR

STARTCHAR 481
ENCODING 481
SWIDTH 556 0
DWIDTH 8 0
BBX 8 7 0 0
BITMAP
3E
7F
03
7F
C6
FE
76
ENDCHAR

STARTCHAR 482
ENCODING 482
SWIDTH 616 0
DWIDTH 9 0
BBX 8 10 0 0
BITMAP
0F
3F
60
5C
FE
E3
C3
C7
7E
3C
ENDCHAR

STARTCHAR 483
ENCODING 483
SWIDTH 549 0
DWIDTH 8 0
BBX 7 7 0 0
BITMAP
7C
7E
66
7C
CC
FC
F8
ENDCHAR

STARTCHAR 484
ENCODING 484
SWIDTH 420 0
DWIDTH 6 0
BBX 6 7 0 0
BITMAP
7C
7C
60
60
C0
C0
C0
ENDCHAR

STARTCHAR 485
ENCODING 485
SWIDTH 683 0
DWIDTH 10 0
BBX 9 9 0 -2
BITMAP
1F00
1F00
3300
3300
6600
FF80
FF80
C180
C180
ENDCHAR

STARTCHAR 486
ENCODING 486
SWIDTH 581 0
DWIDTH 8 0
BBX 7 7 0 0
BITMAP
1C
7E
66
FE
C0
FC
78
ENDCHAR

STARTCHAR 487
ENCODING 487
SWIDTH 827 0
DWIDTH 12 0
BBX 11 7 0 0
BITMAP
6660
36C0
1F80
1F00
3F00
6D80
CCC0
ENDCHAR

STARTCHAR 488
ENCODING 488
SWIDTH 522 0
DWIDTH 7 0
BBX 7 7 -1 0
BITMAP
1C
3E
46
1C
86
7C
38
ENDCHAR

STARTCHAR 489
ENCODING 489
SWIDTH 594 0
DWIDTH 8 0
BBX 8 7 0 0
BITMAP
63
67
6F
7E
F6
E6
C6
ENDCHAR

STARTCHAR 490
ENCODING 490
SWIDTH 594 0
DWIDTH 8 0
BBX 8 11 0 0
BITMAP
11
1E
0C
00
63
67
6E
7E
F6
E6
C6
ENDCHAR

STARTCHAR 491
ENCODING 491
SWIDTH 528 0
DWIDTH 7 0
BBX 7 7 0 0
BITMAP
66
6C
78
78
EC
CC
C6
ENDCHAR

STARTCHAR 492
ENCODING 492
SWIDTH 565 0
DWIDTH 8 0
BBX 8 7 -1 0
BITMAP
3F
3F
33
33
66
E6
C6
ENDCHAR

STARTCHAR 493
ENCODING 493
SWIDTH 693 0
DWIDTH 10 0
BBX 9 7 0 0
BITMAP
7380
7380
7780
5580
DB00
DB00
DB00
ENDCHAR

STARTCHAR 494
ENCODING 494
SWIDTH 576 0
DWIDTH 8 0
BBX 8 7 0 0
BITMAP
63
63
7F
7F
C6
C6
C6
ENDCHAR

STARTCHAR 495
ENCODING 495
SWIDTH 616 0
DWIDTH 9 0
BBX 8 7 0 0
BITMAP
1E
7F
63
C3
C6
FE
78
ENDCHAR

STARTCHAR 496
ENCODING 496
SWIDTH 590 0
DWIDTH 8 0
BBX 8 7 0 0
BITMAP
7F
7F
63
63
C6
C6
C6
ENDCHAR

STARTCHAR 497
ENCODING 497
SWIDTH 609 0
DWIDTH 9 0
BBX 9 10 -1 -3
BITMAP
3700
3F80
3180
6180
6380
7F00
6E00
C000
C000
C000
ENDCHAR

STARTCHAR 498
ENCODING 498
SWIDTH 574 0
DWIDTH 8 0
BBX 7 7 0 0
BITMAP
1C
7E
66
C0
C6
FC
78
ENDCHAR

STARTCHAR 499
ENCODING 499
SWIDTH 450 0
DWIDTH 6 0
BBX 6 7 0 0
BITMAP
FC
FC
30
30
60
60
60
ENDCHAR

STARTCHAR 500
ENCODING 500
SWIDTH 510 0
DWIDTH 7 0
BBX 7 10 0 -3
BITMAP
C6
C6
CC
6C
78
78
30
30
E0
C0
ENDCHAR

STARTCHAR 501
ENCODING 501
SWIDTH 913 0
DWIDTH 13 0
BBX 12 13 0 -3
BITMAP
0300
0300
0300
3B60
7FF0
E630
C630
C670
FFE0
6DC0
0C00
0C00
0C00
ENDCHAR

STARTCHAR 502
ENCODING 502
SWIDTH 475 0
DWIDTH 7 0
BBX 8 7 -1 0
BITMAP
67
36
3C
18
38
6C
EE
ENDCHAR

STARTCHAR 503
ENCODING 503
SWIDTH 637 0
DWIDTH 9 0
BBX 8 9 0 -2
BITMAP
66
66
66
CC
CC
FF
FF
03
03
ENDCHAR

STARTCHAR 504
ENCODING 504
SWIDTH 541 0
DWIDTH 8 0
BBX 7 7 0 0
BITMAP
66
66
66
CC
FC
7C
0C
ENDCHAR

STARTCHAR 505
ENCODING 505
SWIDTH 916 0
DWIDTH 13 0
BBX 11 7 1 0
BITMAP
6660
6660
6660
CCC0
CCC0
FFC0
FFC0
ENDCHAR

STARTCHAR 506
ENCODING 506
SWIDTH 962 0
DWIDTH 13 0
BBX 12 9 0 -2
BITMAP
6660
6660
6660
CCC0
CCC0
FFF0
FFF0
0030
0030
ENDCHAR

STARTCHAR 507
ENCODING 507
SWIDTH 646 0
DWIDTH 9 0
BBX 8 7 0 0
BITMAP
F0
F0
3E
3F
63
7E
7C
ENDCHAR

STARTCHAR 508
ENCODING 508
SWIDTH 798 0
DWIDTH 11 0
BBX 11 7 0 0
BITMAP
6060
6060
7C60
7EC0
C6C0
FCC0
F8C0
ENDCHAR

STARTCHAR 509
ENCODING 509
SWIDTH 543 0
DWIDTH 8 0
BBX 7 7 0 0
BITMAP
60
60
7C
7E
C6
FC
F8
ENDCHAR

STARTCHAR 510
ENCODING 510
SWIDTH 588 0
DWIDTH 8 0
BBX 8 7 -1 0
BITMAP
1E
3F
63
0F
C3
7E
3C
ENDCHAR

STARTCHAR 511
ENCODING 511
SWIDTH 856 0
DWIDTH 12 0
BBX 12 7 0 0
BITMAP
61E0
67F0
7E30
FC30
CC60
CFE0
C780
ENDCHAR

STARTCHAR 512
ENCODING 512
SWIDTH 534 0
DWIDTH 7 0
BBX 7 7 0 0
BITMAP
3E
7E
66
3C
7C
CC
CC
ENDCHAR

STARTCHAR 513
ENCODING 513
SWIDTH 581 0
DWIDTH 8 0
BBX 7 10 0 0
BITMAP
36
36
00
1C
7E
66
FE
C0
FC
78
ENDCHAR

STARTCHAR 514
ENCODING 514
SWIDTH 600 0
DWIDTH 8 0
BBX 8 12 0 -2
BITMAP
30
7E
30
6E
7F
63
63
C6
C6
C6
1C
18
ENDCHAR

STARTCHAR 515
ENCODING 515
SWIDTH 420 0
DWIDTH 6 0
BBX 6 11 0 0
BITMAP
0C
08
10
00
7C
7C
60
60
C0
C0
C0
ENDCHAR

STARTCHAR 516
ENCODING 516
SWIDTH 588 0
DWIDTH 8 0
BBX 7 7 0 0
BITMAP
1C
7E
60
F8
C0
FC
78
ENDCHAR

STARTCHAR 517
ENCODING 517
SWIDTH 516 0
DWIDTH 7 0
BBX 7 7 0 0
BITMAP
3E
7E
60
38
0C
FC
F8
ENDCHAR

STARTCHAR 518
ENCODING 518
SWIDTH 266 0
DWIDTH 4 0
BBX 4 10 0 0
BITMAP
30
30
00
60
60
60
C0
C0
C0
C0
ENDCHAR

STARTCHAR 519
ENCODING 519
SWIDTH 266 0
DWIDTH 4 0
BBX 5 10 0 0
BITMAP
D8
D8
00
60
60
60
C0
C0
C0
C0
ENDCHAR

STARTCHAR 520
ENCODING 520
SWIDTH 269 0
DWIDTH 4 0
BBX 6 13 -2 -3
BITMAP
0C
0C
00
18
18
18
30
30
30
30
60
E0
C0
ENDCHAR

STARTCHAR 521
ENCODING 521
SWIDTH 853 0
DWIDTH 12 0
BBX 12 7 -1 0
BITMAP
3F00
3F00
33E0
33F0
6630
E7E0
C7C0
ENDCHAR

STARTCHAR 522
ENCODING 522
SWIDTH 855 0
DWIDTH 12 0
BBX 11 7 0 0
BITMAP
6600
6600
7FC0
7FE0
CC60
CFC0
CF80
ENDCHAR

STARTCHAR 523
ENCODING 523
SWIDTH 604 0
DWIDTH 8 0
BBX 8 10 0 0
BITMAP
30
7E
30
6E
7F
63
63
C6
C6
C6
ENDCHAR

STARTCHAR 524
ENCODING 524
SWIDTH 528 0
DWIDTH 7 0
BBX 7 11 0 0
BITMAP
0C
08
10
00
66
6C
78
78
EC
CC
C6
ENDCHAR

STARTCHAR 525
ENCODING 525
SWIDTH 510 0
DWIDTH 7 0
BBX 7 14 0 -3
BITMAP
22
3C
18
00
C6
C6
CC
6C
78
78
30
30
E0
C0
ENDCHAR

STARTCHAR 526
ENCODING 526
SWIDTH 576 0
DWIDTH 8 0
BBX 8 9 0 -2
BITMAP
63
63
63
C6
C6
FE
FE
30
30
ENDCHAR

STARTCHAR 527
ENCODING 527
SWIDTH 507 0
DWIDTH 7 0
BBX 8 12 0 0
BITMAP
03
03
3F
3E
30
60
60
60
60
C0
C0
C0
ENDCHAR

STARTCHAR 528
ENCODING 528
SWIDTH 432 0
DWIDTH 6 0
BBX 7 8 0 0
BITMAP
06
7E
7C
60
60
C0
C0
C0
ENDCHAR

STARTCHAR 529
ENCODING 529
SWIDTH 728 0
DWIDTH 10 0
BBX 10 13 0 0
BITMAP
0D80
0D80
0000
30C0
31C0
33C0
6780
6F80
7D80
7980
F300
E300
C300
ENDCHAR

STARTCHAR 530
ENCODING 530
SWIDTH 594 0
DWIDTH 8 0
BBX 8 10 0 0
BITMAP
36
36
00
63
67
6F
7E
F6
E6
C6
ENDCHAR

STARTCHAR 531
ENCODING 531
SWIDTH 510 0
DWIDTH 7 0
BBX 7 13 0 -3
BITMAP
6C
6C
00
C6
C6
CC
6C
78
78
30
30
E0
C0
ENDCHAR

STARTCHAR 532
ENCODING 532
SWIDTH 699 0
DWIDTH 10 0
BBX 9 13 0 0
BITMAP
0600
0600
0000
3F00
3F80
3180
6180
7F00
7F00
6180
C380
FF00
FE00
ENDCHAR

STARTCHAR 533
ENCODING 533
SWIDTH 609 0
DWIDTH 9 0
BBX 8 13 0 0
BITMAP
0C
0C
00
30
30
60
6E
7F
63
C3
C7
FE
DC
ENDCHAR

STARTCHAR 534
ENCODING 534
SWIDTH 735 0
DWIDTH 10 0
BBX 9 13 0 0
BITMAP
0600
0600
0000
3E00
3F00
3380
6180
6180
6180
6180
C300
FF00
FC00
ENDCHAR

STARTCHAR 535
ENCODING 535
SWIDTH 609 0
DWIDTH 9 0
BBX 9 13 0 0
BITMAP
0180
0180
0000
0180
0180
0180
1F00
7F00
6300
C300
C600
FE00
7600
ENDCHAR

STARTCHAR 536
ENCODING 536
SWIDTH 735 0
DWIDTH 10 0
BBX 9 13 0 -3
BITMAP
3E00
3F00
3380
6180
6180
6180
6180
C300
FF00
FC00
1000
1800
7000
ENDCHAR

STARTCHAR 537
ENCODING 537
SWIDTH 609 0
DWIDTH 9 0
BBX 9 13 0 -3
BITMAP
0180
0180
0180
1F00
7F00
6300
C300
C600
FE00
7600
1000
1800
7000
ENDCHAR

STARTCHAR 538
ENCODING 538
SWIDTH 556 0
DWIDTH 8 0
BBX 8 13 0 0
BITMAP
0C
0C
00
3F
3F
30
60
7E
7E
60
C0
C0
C0
ENDCHAR

STARTCHAR 539
ENCODING 539
SWIDTH 308 0
DWIDTH 4 0
BBX 5 13 0 0
BITMAP
18
18
00
18
38
60
F0
F0
60
60
C0
C0
C0
ENDCHAR

STARTCHAR 540
ENCODING 540
SWIDTH 627 0
DWIDTH 9 0
BBX 9 14 0 0
BITMAP
0600
0400
0800
0000
3380
3700
3E00
7C00
7800
7C00
6C00
CE00
C600
C700
ENDCHAR

STARTCHAR 541
ENCODING 541
SWIDTH 526 0
DWIDTH 7 0
BBX 7 14 0 0
BITMAP
0C
08
10
00
30
30
30
66
6C
78
78
EC
CC
C6
ENDCHAR

STARTCHAR 542
ENCODING 542
SWIDTH 876 0
DWIDTH 12 0
BBX 12 13 0 0
BITMAP
0300
0300
0000
3870
38F0
78B0
69E0
6960
6B60
6B60
CEC0
CEC0
CCC0
ENDCHAR

STARTCHAR 543
ENCODING 543
SWIDTH 883 0
DWIDTH 12 0
BBX 11 10 0 0
BITMAP
0300
0300
0000
6EC0
7FE0
6660
6660
CCC0
CCC0
CCC0
ENDCHAR

STARTCHAR 544
ENCODING 544
SWIDTH 663 0
DWIDTH 9 0
BBX 9 13 0 0
BITMAP
0600
0600
0000
3F00
3F80
3180
6180
6380
7F00
7C00
E000
C000
C000
ENDCHAR

STARTCHAR 545
ENCODING 545
SWIDTH 609 0
DWIDTH 9 0
BBX 9 13 -1 -3
BITMAP
0600
0600
0000
3700
3F80
3180
6180
6380
7F00
6E00
C000
C000
C000
ENDCHAR

STARTCHAR 546
ENCODING 546
SWIDTH 623 0
DWIDTH 9 0
BBX 9 13 0 0
BITMAP
0C00
0C00
0000
1E00
3F00
6180
6000
3C00
1E00
0300
C300
7E00
3C00
ENDCHAR

STARTCHAR 547
ENCODING 547
SWIDTH 516 0
DWIDTH 7 0
BBX 7 10 0 0
BITMAP
0C
0C
00
3E
7E
60
38
0C
FC
F8
ENDCHAR

STARTCHAR 548
ENCODING 548
SWIDTH 566 0
DWIDTH 8 0
BBX 8 13 0 0
BITMAP
0C
0C
00
FF
FF
18
18
30
30
30
60
60
60
ENDCHAR

STARTCHAR 549
ENCODING 549
SWIDTH 317 0
DWIDTH 4 0
BBX 5 12 0 0
BITMAP
30
30
00
30
30
F8
F8
60
60
C0
E0
E0
ENDCHAR

STARTCHAR 550
ENCODING 550
SWIDTH 863 0
DWIDTH 12 0
BBX 12 14 0 0
BITMAP
0600
0200
0100
0000
C630
CE60
CE60
CEC0
DEC0
D2C0
F380
7380
6300
6300
ENDCHAR

STARTCHAR 551
ENCODING 551
SWIDTH 764 0
DWIDTH 11 0
BBX 10 11 1 0
BITMAP
1800
0800
0400
0000
CCC0
CCC0
CD80
DD80
7700
7700
6600
ENDCHAR

STARTCHAR 552
ENCODING 552
SWIDTH 863 0
DWIDTH 12 0
BBX 12 14 0 0
BITMAP
0180
0100
0200
0000
C630
CE60
CE60
CEC0
DEC0
D2C0
F380
7380
6300
6300
ENDCHAR

STARTCHAR 553
ENCODING 553
SWIDTH 764 0
DWIDTH 11 0
BBX 10 11 1 0
BITMAP
0600
0400
0800
0000
CCC0
CCC0
CD80
DD80
7700
7700
6600
ENDCHAR

STARTCHAR 554
ENCODING 554
SWIDTH 863 0
DWIDTH 12 0
BBX 12 13 0 0
BITMAP
0D80
0D80
0000
C630
CE60
CE60
CEC0
DEC0
D2C0
F380
7380
6300
6300
ENDCHAR

STARTCHAR 555
ENCODING 555
SWIDTH 764 0
DWIDTH 11 0
BBX 10 10 1 0
BITMAP
1B00
1B00
0000
CCC0
CCC0
CD80
DD80
7700
7700
6600
ENDCHAR

STARTCHAR 556
ENCODING 556
SWIDTH 559 0
DWIDTH 8 0
BBX 8 14 0 0
BITMAP
18
08
04
00
C3
C6
66
6C
7C
38
38
30
30
30
ENDCHAR

STARTCHAR 557
ENCODING 557
SWIDTH 510 0
DWIDTH 7 0
BBX 7 14 0 -3
BITMAP
30
10
08
00
C6
C6
CC
6C
78
78
30
30
E0
C0
ENDCHAR

STARTCHAR 558
ENCODING 558
SWIDTH 609 0
DWIDTH 9 0
BBX 8 11 0 0
BITMAP
0C
04
08
00
3B
7F
E3
C6
C6
FE
76
ENDCHAR

STARTCHAR 559
ENCODING 559
SWIDTH 609 0
DWIDTH 9 0
BBX 8 11 0 0
BITMAP
0C
08
04
00
3B
7F
E3
C6
C6
FE
76
ENDCHAR

STARTCHAR 560
ENCODING 560
SWIDTH 609 0
DWIDTH 9 0
BBX 8 11 0 0
BITMAP
1A
0A
11
00
3B
7F
E3
C6
C6
FE
76
ENDCHAR

STARTCHAR 561
ENCODING 561
SWIDTH 609 0
DWIDTH 9 0
BBX 8 11 0 0
BITMAP
1A
12
09
00
3B
7F
E3
C6
C6
FE
76
ENDCHAR

STARTCHAR 562
ENCODING 562
SWIDTH 609 0
DWIDTH 9 0
BBX 8 11 0 0
BITMAP
1A
0A
14
00
3B
7F
E3
C6
C6
FE
76
ENDCHAR

STARTCHAR 563
ENCODING 563
SWIDTH 609 0
DWIDTH 9 0
BBX 8 11 0 0
BITMAP
1A
12
0C
00
3B
7F
E3
C6
C6
FE
76
ENDCHAR

STARTCHAR 564
ENCODING 564
SWIDTH 609 0
DWIDTH 9 0
BBX 8 13 0 0
BITMAP
1B
36
0C
04
08
00
3B
7F
E3
C6
C6
FE
76
ENDCHAR

STARTCHAR 565
ENCODING 565
SWIDTH 609 0
DWIDTH 9 0
BBX 8 13 0 0
BITMAP
1B
36
0C
08
04
00
3B
7F
E3
C6
C6
FE
76
ENDCHAR

STARTCHAR 566
ENCODING 566
SWIDTH 648 0
DWIDTH 9 0
BBX 9 11 -1 0
BITMAP
6000
2700
4F00
0F00
1B00
1B00
3300
3F00
7F80
6180
C180
ENDCHAR

STARTCHAR 567
ENCODING 567
SWIDTH 648 0
DWIDTH 9 0
BBX 9 11 -1 0
BITMAP
6000
4700
2F00
0F00
1B00
1B00
3300
3F00
7F80
6180
C180
ENDCHAR

STARTCHAR 568
ENCODING 568
SWIDTH 648 0
DWIDTH 9 0
BBX 10 11 -2 0
BITMAP
D000
5380
8F80
0780
0D80
0D80
1980
1F80
3FC0
30C0
60C0
ENDCHAR

STARTCHAR 569
ENCODING 569
SWIDTH 648 0
DWIDTH 9 0
BBX 10 11 -2 0
BITMAP
D000
9380
4F80
0780
0D80
0D80
1980
1F80
3FC0
30C0
60C0
ENDCHAR

STARTCHAR 570
ENCODING 570
SWIDTH 648 0
DWIDTH 9 0
BBX 10 11 -2 0
BITMAP
D000
5380
A780
0780
0D80
0D80
1980
1F80
3FC0
30C0
60C0
ENDCHAR

STARTCHAR 571
ENCODING 571
SWIDTH 648 0
DWIDTH 9 0
BBX 10 11 -2 0
BITMAP
D000
9380
6780
0780
0D80
0D80
1980
1F80
3FC0
30C0
60C0
ENDCHAR

STARTCHAR 572
ENCODING 572
SWIDTH 648 0
DWIDTH 9 0
BBX 10 13 -2 0
BITMAP
6C00
D800
3000
1380
2780
0780
0D80
0D80
1980
1F80
3FC0
30C0
60C0
ENDCHAR

STARTCHAR 573
ENCODING 573
SWIDTH 648 0
DWIDTH 9 0
BBX 10 13 -2 0
BITMAP
6C00
D800
3000
2380
1780
0780
0D80
0D80
1980
1F80
3FC0
30C0
60C0
ENDCHAR

STARTCHAR 574
ENCODING 574
SWIDTH 524 0
DWIDTH 7 0
BBX 7 11 0 0
BITMAP
0C
04
08
00
3C
7E
62
70
C4
FC
78
ENDCHAR

STARTCHAR 575
ENCODING 575
SWIDTH 524 0
DWIDTH 7 0
BBX 7 11 0 0
BITMAP
0C
08
04
00
3C
7E
62
70
C4
FC
78
ENDCHAR

STARTCHAR 576
ENCODING 576
SWIDTH 524 0
DWIDTH 7 0
BBX 7 11 0 0
BITMAP
34
14
22
00
3C
7E
62
70
C4
FC
78
ENDCHAR

STARTCHAR 577
ENCODING 577
SWIDTH 524 0
DWIDTH 7 0
BBX 7 11 0 0
BITMAP
34
24
12
00
3C
7E
62
70
C4
FC
78
ENDCHAR

STARTCHAR 578
ENCODING 578
SWIDTH 524 0
DWIDTH 7 0
BBX 7 11 0 0
BITMAP
34
14
28
00
3C
7E
62
70
C4
FC
78
ENDCHAR

STARTCHAR 579
ENCODING 579
SWIDTH 524 0
DWIDTH 7 0
BBX 7 11 0 0
BITMAP
34
24
18
00
3C
7E
62
70
C4
FC
78
ENDCHAR

STARTCHAR 580
ENCODING 580
SWIDTH 900 0
DWIDTH 13 0
BBX 9 11 2 0
BITMAP
C000
5F80
9F80
1800
3000
3F00
3F00
3000
6000
7F00
7F00
ENDCHAR

STARTCHAR 581
ENCODING 581
SWIDTH 900 0
DWIDTH 13 0
BBX 9 11 2 0
BITMAP
C000
9F80
5F80
1800
3000
3F00
3F00
3000
6000
7F00
7F00
ENDCHAR

STARTCHAR 582
ENCODING 582
SWIDTH 1060 0
DWIDTH 15 0
BBX 12 11 1 0
BITMAP
D000
53F0
8BF0
0300
0600
07E0
07E0
0600
0C00
0FE0
0FE0
ENDCHAR

STARTCHAR 583
ENCODING 583
SWIDTH 1069 0
DWIDTH 15 0
BBX 12 11 1 0
BITMAP
D000
93F0
4BF0
0300
0600
07E0
07E0
0600
0C00
0FE0
0FE0
ENDCHAR

STARTCHAR 584
ENCODING 584
SWIDTH 1074 0
DWIDTH 15 0
BBX 11 11 2 0
BITMAP
D000
57E0
A7E0
0600
0C00
0FC0
0FC0
0C00
1800
1FC0
1FC0
ENDCHAR

STARTCHAR 585
ENCODING 585
SWIDTH 1079 0
DWIDTH 15 0
BBX 11 11 2 0
BITMAP
D000
97E0
67E0
0600
0C00
0FC0
0FC0
0C00
1800
1FC0
1FC0
ENDCHAR

STARTCHAR 586
ENCODING 586
SWIDTH 602 0
DWIDTH 8 0
BBX 8 14 0 -3
BITMAP
0C
04
08
00
6E
7F
63
63
C6
C6
C6
0C
0C
0C
ENDCHAR

STARTCHAR 587
ENCODING 587
SWIDTH 602 0
DWIDTH 8 0
BBX 8 14 0 -3
BITMAP
0C
08
04
00
6E
7F
63
63
C6
C6
C6
0C
0C
0C
ENDCHAR

STARTCHAR 588
ENCODING 588
SWIDTH 602 0
DWIDTH 8 0
BBX 8 14 0 -3
BITMAP
34
14
22
00
6E
7F
63
63
C6
C6
C6
0C
0C
0C
ENDCHAR

STARTCHAR 589
ENCODING 589
SWIDTH 602 0
DWIDTH 8 0
BBX 8 14 0 -3
BITMAP
34
24
12
00
6E
7F
63
63
C6
C6
C6
0C
0C
0C
ENDCHAR

STARTCHAR 590
ENCODING 590
SWIDTH 602 0
DWIDTH 8 0
BBX 8 14 0 -3
BITMAP
1A
0A
14
00
6E
7F
63
63
C6
C6
C6
0C
0C
0C
ENDCHAR

STARTCHAR 591
ENCODING 591
SWIDTH 602 0
DWIDTH 8 0
BBX 8 14 0 -3
BITMAP
1A
12
0C
00
6E
7F
63
63
C6
C6
C6
0C
0C
0C
ENDCHAR

STARTCHAR 592
ENCODING 592
SWIDTH 602 0
DWIDTH 8 0
BBX 8 16 0 -3
BITMAP
1B
36
0C
04
08
00
6E
7F
63
63
C6
C6
C6
0C
0C
0C
ENDCHAR

STARTCHAR 593
ENCODING 593
SWIDTH 602 0
DWIDTH 8 0
BBX 8 16 0 -3
BITMAP
1B
36
0C
08
04
00
6E
7F
63
63
C6
C6
C6
0C
0C
0C
ENDCHAR

STARTCHAR 594
ENCODING 594
SWIDTH 1017 0
DWIDTH 14 0
BBX 12 11 1 0
BITMAP
C000
4C30
8C30
0C30
1860
1FE0
1FE0
1860
30C0
30C0
30C0
ENDCHAR

STARTCHAR 595
ENCODING 595
SWIDTH 1017 0
DWIDTH 14 0
BBX 12 11 1 0
BITMAP
C000
8C30
4C30
0C30
1860
1FE0
1FE0
1860
30C0
30C0
30C0
ENDCHAR

STARTCHAR 596
ENCODING 596
SWIDTH 1177 0
DWIDTH 16 0
BBX 14 11 1 0
BITMAP
D000
530C
8B0C
030C
0618
07F8
07F8
0618
0C30
0C30
0C30
ENDCHAR

STARTCHAR 597
ENCODING 597
SWIDTH 1186 0
DWIDTH 17 0
BBX 14 11 1 0
BITMAP
D000
930C
4B0C
030C
0618
07F8
07F8
0618
0C30
0C30
0C30
ENDCHAR

STARTCHAR 598
ENCODING 598
SWIDTH 1191 0
DWIDTH 17 0
BBX 13 11 2 0
BITMAP
D000
5618
A618
0618
0C30
0FF0
0FF0
0C30
1860
1860
1860
ENDCHAR

STARTCHAR 599
ENCODING 599
SWIDTH 1196 0
DWIDTH 17 0
BBX 13 11 2 0
BITMAP
D000
9618
6618
0618
0C30
0FF0
0FF0
0C30
1860
1860
1860
ENDCHAR

STARTCHAR 600
ENCODING 600
SWIDTH 1112 0
DWIDTH 16 0
BBX 14 13 1 0
BITMAP
6C00
D800
3000
130C
230C
030C
0618
07F8
07F8
0618
0C30
0C30
0C30
ENDCHAR

STARTCHAR 601
ENCODING 601
SWIDTH 1112 0
DWIDTH 16 0
BBX 14 13 1 0
BITMAP
6C00
D800
3000
230C
130C
030C
0618
07F8
07F8
0618
0C30
0C30
0C30
ENDCHAR

STARTCHAR 602
ENCODING 602
SWIDTH 266 0
DWIDTH 4 0
BBX 4 11 0 0
BITMAP
30
10
20
00
60
60
60
C0
C0
C0
C0
ENDCHAR

STARTCHAR 603
ENCODING 603
SWIDTH 266 0
DWIDTH 4 0
BBX 4 11 0 0
BITMAP
30
20
10
00
60
60
60
C0
C0
C0
C0
ENDCHAR

STARTCHAR 604
ENCODING 604
SWIDTH 266 0
DWIDTH 4 0
BBX 5 11 0 0
BITMAP
D0
50
88
00
60
60
60
C0
C0
C0
C0
ENDCHAR

STARTCHAR 605
ENCODING 605
SWIDTH 266 0
DWIDTH 4 0
BBX 5 11 0 0
BITMAP
D0
90
48
00
60
60
60
C0
C0
C0
C0
ENDCHAR

STARTCHAR 606
ENCODING 606
SWIDTH 266 0
DWIDTH 4 0
BBX 4 11 0 0
BITMAP
D0
50
A0
00
60
60
60
C0
C0
C0
C0
ENDCHAR

STARTCHAR 607
ENCODING 607
SWIDTH 266 0
DWIDTH 4 0
BBX 4 11 0 0
BITMAP
D0
90
60
00
60
60
60
C0
C0
C0
C0
ENDCHAR

STARTCHAR 608
ENCODING 608
SWIDTH 266 0
DWIDTH 4 0
BBX 6 13 0 0
BITMAP
6C
D8
30
10
20
00
60
60
60
C0
C0
C0
C0
ENDCHAR

STARTCHAR 609
ENCODING 609
SWIDTH 266 0
DWIDTH 4 0
BBX 6 13 0 0
BITMAP
6C
D8
30
20
10
00
60
60
60
C0
C0
C0
C0
ENDCHAR

STARTCHAR 610
ENCODING 610
SWIDTH 598 0
DWIDTH 8 0
BBX 6 11 1 0
BITMAP
C0
4C
8C
0C
18
18
18
18
30
30
30
ENDCHAR

STARTCHAR 611
ENCODING 611
SWIDTH 598 0
DWIDTH 8 0
BBX 6 11 1 0
BITMAP
C0
8C
4C
0C
18
18
18
18
30
30
30
ENDCHAR

STARTCHAR 612
ENCODING 612
SWIDTH 758 0
DWIDTH 11 0
BBX 8 11 1 0
BITMAP
D0
53
8B
03
06
06
06
06
0C
0C
0C
ENDCHAR

STARTCHAR 613
ENCODING 613
SWIDTH 767 0
DWIDTH 11 0
BBX 8 11 1 0
BITMAP
D0
93
4B
03
06
06
06
06
0C
0C
0C
ENDCHAR

STARTCHAR 614
ENCODING 614
SWIDTH 772 0
DWIDTH 11 0
BBX 8 11 1 0
BITMAP
D0
53
A3
03
06
06
06
06
0C
0C
0C
ENDCHAR

STARTCHAR 615
ENCODING 615
SWIDTH 777 0
DWIDTH 11 0
BBX 8 11 1 0
BITMAP
D0
93
63
03
06
06
06
06
0C
0C
0C
ENDCHAR

STARTCHAR 616
ENCODING 616
SWIDTH 693 0
DWIDTH 10 0
BBX 8 13 1 0
BITMAP
6C
D8
30
13
23
03
06
06
06
06
0C
0C
0C
ENDCHAR

STARTCHAR 617
ENCODING 617
SWIDTH 693 0
DWIDTH 10 0
BBX 8 13 1 0
BITMAP
6C
D8
30
23
13
03
06
06
06
06
0C
0C
0C
ENDCHAR

STARTCHAR 618
ENCODING 618
SWIDTH 616 0
DWIDTH 9 0
BBX 8 11 0 0
BITMAP
0C
04
08
00
1E
7F
63
C3
C6
FE
78
ENDCHAR

STARTCHAR 619
ENCODING 619
SWIDTH 616 0
DWIDTH 9 0
BBX 8 11 0 0
BITMAP
0C
08
04
00
1E
7F
63
C3
C6
FE
78
ENDCHAR

STARTCHAR 620
ENCODING 620
SWIDTH 616 0
DWIDTH 9 0
BBX 8 11 0 0
BITMAP
34
14
22
00
1E
7F
63
C3
C6
FE
78
ENDCHAR

STARTCHAR 621
ENCODING 621
SWIDTH 616 0
DWIDTH 9 0
BBX 8 11 0 0
BITMAP
34
24
12
00
1E
7F
63
C3
C6
FE
78
ENDCHAR

STARTCHAR 622
ENCODING 622
SWIDTH 616 0
DWIDTH 9 0
BBX 8 11 0 0
BITMAP
1A
0A
14
00
1E
7F
63
C3
C6
FE
78
ENDCHAR

STARTCHAR 623
ENCODING 623
SWIDTH 616 0
DWIDTH 9 0
BBX 8 11 0 0
BITMAP
1A
12
0C
00
1E
7F
63
C3
C6
FE
78
ENDCHAR

STARTCHAR 624
ENCODING 624
SWIDTH 1074 0
DWIDTH 15 0
BBX 12 11 1 0
BITMAP
C000
47C0
9FE0
1C70
3830
3030
3030
3070
38E0
1FE0
0F80
ENDCHAR

STARTCHAR 625
ENCODING 625
SWIDTH 1074 0
DWIDTH 15 0
BBX 12 11 1 0
BITMAP
C000
87C0
5FE0
1C70
3830
3030
3030
3070
38E0
1FE0
0F80
ENDCHAR

STARTCHAR 626
ENCODING 626
SWIDTH 1234 0
DWIDTH 17 0
BBX 15 11 1 0
BITMAP
D000
50F8
8BFC
038E
0706
0606
0606
060E
071C
03FC
01F0
ENDCHAR

STARTCHAR 627
ENCODING 627
SWIDTH 1243 0
DWIDTH 17 0
BBX 15 11 1 0
BITMAP
D000
90F8
4BFC
038E
0706
0606
0606
060E
071C
03FC
01F0
ENDCHAR

STARTCHAR 628
ENCODING 628
SWIDTH 1100 0
DWIDTH 15 0
BBX 14 11 0 0
BITMAP
D000
51F0
A7F8
071C
0E0C
0C0C
0C0C
0C1C
0E38
07F8
03E0
ENDCHAR

STARTCHAR 629
ENCODING 629
SWIDTH 1114 0
DWIDTH 16 0
BBX 14 11 1 0
BITMAP
D000
91F0
67F8
071C
0E0C
0C0C
0C0C
0C1C
0E38
07F8
03E0
ENDCHAR

STARTCHAR 630
ENCODING 630
SWIDTH 586 0
DWIDTH 8 0
BBX 8 11 0 0
BITMAP
0C
04
08
00
63
63
63
C6
C6
FC
78
ENDCHAR

STARTCHAR 631
ENCODING 631
SWIDTH 586 0
DWIDTH 8 0
BBX 8 11 0 0
BITMAP
0C
08
04
00
63
63
63
C6
C6
FC
78
ENDCHAR

STARTCHAR 632
ENCODING 632
SWIDTH 586 0
DWIDTH 8 0
BBX 8 11 0 0
BITMAP
1A
0A
11
00
63
63
63
C6
C6
FC
78
ENDCHAR

STARTCHAR 633
ENCODING 633
SWIDTH 586 0
DWIDTH 8 0
BBX 8 11 0 0
BITMAP
1A
12
09
00
63
63
63
C6
C6
FC
78
ENDCHAR

STARTCHAR 634
ENCODING 634
SWIDTH 586 0
DWIDTH 8 0
BBX 8 11 0 0
BITMAP
1A
0A
14
00
63
63
63
C6
C6
FC
78
ENDCHAR

STARTCHAR 635
ENCODING 635
SWIDTH 586 0
DWIDTH 8 0
BBX 8 11 0 0
BITMAP
1A
12
0C
00
63
63
63
C6
C6
FC
78
ENDCHAR

STARTCHAR 636
ENCODING 636
SWIDTH 586 0
DWIDTH 8 0
BBX 8 13 0 0
BITMAP
1B
36
0C
04
08
00
63
63
63
C6
C6
FC
78
ENDCHAR

STARTCHAR 637
ENCODING 637
SWIDTH 586 0
DWIDTH 8 0
BBX 8 13 0 0
BITMAP
1B
36
0C
08
04
00
63
63
63
C6
C6
FC
78
ENDCHAR

STARTCHAR 638
ENCODING 638
SWIDTH 952 0
DWIDTH 13 0
BBX 11 11 1 0
BITMAP
C000
5860
98C0
0CC0
0D80
0F80
0700
0700
0600
0600
0600
ENDCHAR

STARTCHAR 639
ENCODING 639
SWIDTH 1017 0
DWIDTH 14 0
BBX 14 11 0 0
BITMAP
D000
930C
4B18
0198
01B0
01F0
00E0
00E0
00C0
00C0
00C0
ENDCHAR

STARTCHAR 640
ENCODING 640
SWIDTH 1131 0
DWIDTH 16 0
BBX 13 11 1 0
BITMAP
D000
9618
6630
0330
0360
03E0
01C0
01C0
0180
0180
0180
ENDCHAR

STARTCHAR 641
ENCODING 641
SWIDTH 1008 0
DWIDTH 14 0
BBX 14 13 0 0
BITMAP
6C00
D800
3000
230C
1318
0198
01B0
01F0
00E0
00E0
00C0
00C0
00C0
ENDCHAR

STARTCHAR 642
ENCODING 642
SWIDTH 759 0
DWIDTH 11 0
BBX 10 11 0 0
BITMAP
0600
0200
0400
0000
3180
60C0
CCC0
CCC0
CDC0
FF80
7700
ENDCHAR

STARTCHAR 643
ENCODING 643
SWIDTH 759 0
DWIDTH 11 0
BBX 10 11 0 0
BITMAP
0600
0400
0200
0000
3180
60C0
CCC0
CCC0
CDC0
FF80
7700
ENDCHAR

STARTCHAR 644
ENCODING 644
SWIDTH 759 0
DWIDTH 11 0
BBX 10 11 0 0
BITMAP
1A00
0A00
1100
0000
3180
60C0
CCC0
CCC0
CDC0
FF80
7700
ENDCHAR

STARTCHAR 645
ENCODING 645
SWIDTH 759 0
DWIDTH 11 0
BBX 10 11 0 0
BITMAP
1A00
1200
0900
0000
3180
60C0
CCC0
CCC0
CDC0
FF80
7700
ENDCHAR

STARTCHAR 646
ENCODING 646
SWIDTH 759 0
DWIDTH 11 0
BBX 10 11 0 0
BITMAP
0D00
0500
0A00
0000
3180
60C0
CCC0
CCC0
CDC0
FF80
7700
ENDCHAR

STARTCHAR 647
ENCODING 647
SWIDTH 759 0
DWIDTH 11 0
BBX 10 11 0 0
BITMAP
0D00
0900
0600
0000
3180
60C0
CCC0
CCC0
CDC0
FF80
7700
ENDCHAR

STARTCHAR 648
ENCODING 648
SWIDTH 759 0
DWIDTH 11 0
BBX 10 13 0 0
BITMAP
0D80
1B00
0600
0200
0400
0000
3180
60C0
CCC0
CCC0
CDC0
FF80
7700
ENDCHAR

STARTCHAR 649
ENCODING 649
SWIDTH 759 0
DWIDTH 11 0
BBX 10 13 0 0
BITMAP
0D80
1B00
0600
0400
0200
0000
3180
60C0
CCC0
CCC0
CDC0
FF80
7700
ENDCHAR

STARTCHAR 650
ENCODING 650
SWIDTH 1076 0
DWIDTH 15 0
BBX 12 11 1 0
BITMAP
C000
43C0
8FE0
0C70
1830
1830
1830
1860
0CC0
3DE0
3DE0
ENDCHAR

STARTCHAR 651
ENCODING 651
SWIDTH 1076 0
DWIDTH 15 0
BBX 12 11 1 0
BITMAP
C000
83C0
4FE0
0C70
1830
1830
1830
1860
0CC0
3DE0
3DE0
ENDCHAR

STARTCHAR 652
ENCODING 652
SWIDTH 1236 0
DWIDTH 17 0
BBX 15 11 0 0
BITMAP
D000
5078
89FC
018E
0306
0306
0306
030C
0198
07BC
07BC
ENDCHAR

STARTCHAR 653
ENCODING 653
SWIDTH 1245 0
DWIDTH 17 0
BBX 15 11 0 0
BITMAP
D000
9078
49FC
018E
0306
0306
0306
030C
0198
07BC
07BC
ENDCHAR

STARTCHAR 654
ENCODING 654
SWIDTH 1250 0
DWIDTH 18 0
BBX 14 11 2 0
BITMAP
D000
50F0
A3F8
031C
060C
060C
060C
0618
0330
0F78
0F78
ENDCHAR

STARTCHAR 655
ENCODING 655
SWIDTH 1255 0
DWIDTH 18 0
BBX 14 11 2 0
BITMAP
D000
90F0
63F8
031C
060C
060C
060C
0618
0330
0F78
0F78
ENDCHAR

STARTCHAR 656
ENCODING 656
SWIDTH 1171 0
DWIDTH 16 0
BBX 14 13 1 0
BITMAP
6C00
D800
3000
10F0
23F8
031C
060C
060C
060C
0618
0330
0F78
0F78
ENDCHAR

STARTCHAR 657
ENCODING 657
SWIDTH 1171 0
DWIDTH 16 0
BBX 14 13 1 0
BITMAP
6C00
D800
3000
20F0
13F8
031C
060C
060C
060C
0618
0330
0F78
0F78
ENDCHAR

STARTCHAR 658
ENCODING 658
SWIDTH 609 0
DWIDTH 9 0
BBX 8 11 0 0
BITMAP
18
08
04
00
3B
7F
E3
C6
C6
FE
76
ENDCHAR

STARTCHAR 659
ENCODING 659
SWIDTH 609 0
DWIDTH 9 0
BBX 8 11 0 0
BITMAP
06
04
08
00
3B
7F
E3
C6
C6
FE
76
ENDCHAR

STARTCHAR 660
ENCODING 660
SWIDTH 524 0
DWIDTH 7 0
BBX 7 11 0 0
BITMAP
30
10
08
00
3C
7E
62
70
C4
FC
78
ENDCHAR

STARTCHAR 661
ENCODING 661
SWIDTH 524 0
DWIDTH 7 0
BBX 7 11 0 0
BITMAP
0C
08
10
00
3C
7E
62
70
C4
FC
78
ENDCHAR

STARTCHAR 662
ENCODING 662
SWIDTH 602 0
DWIDTH 8 0
BBX 8 14 0 -3
BITMAP
18
08
04
00
6E
7F
63
63
C6
C6
C6
0C
0C
0C
ENDCHAR

STARTCHAR 663
ENCODING 663
SWIDTH 602 0
DWIDTH 8 0
BBX 8 14 0 -3
BITMAP
06
04
08
00
6E
7F
63
63
C6
C6
C6
0C
0C
0C
ENDCHAR

STARTCHAR 664
ENCODING 664
SWIDTH 266 0
DWIDTH 4 0
BBX 3 11 0 0
BITMAP
C0
40
20
00
60
60
60
C0
C0
C0
C0
ENDCHAR

STARTCHAR 665
ENCODING 665
SWIDTH 266 0
DWIDTH 4 0
BBX 4 11 0 0
BITMAP
30
20
40
00
60
60
60
C0
C0
C0
C0
ENDCHAR

STARTCHAR 666
ENCODING 666
SWIDTH 616 0
DWIDTH 9 0
BBX 8 11 0 0
BITMAP
18
08
04
00
1E
7F
63
C3
C6
FE
78
ENDCHAR

STARTCHAR 667
ENCODING 667
SWIDTH 616 0
DWIDTH 9 0
BBX 8 11 0 0
BITMAP
06
04
08
00
1E
7F
63
C3
C6
FE
78
ENDCHAR

STARTCHAR 668
ENCODING 668
SWIDTH 586 0
DWIDTH 8 0
BBX 8 11 0 0
BITMAP
18
08
04
00
63
63
63
C6
C6
FC
78
ENDCHAR

STARTCHAR 669
ENCODING 669
SWIDTH 586 0
DWIDTH 8 0
BBX 8 11 0 0
BITMAP
06
04
08
00
63
63
63
C6
C6
FC
78
ENDCHAR

STARTCHAR 670
ENCODING 670
SWIDTH 759 0
DWIDTH 11 0
BBX 10 11 0 0
BITMAP
0C00
0400
0200
0000
3180
60C0
CCC0
CCC0
CDC0
FF80
7700
ENDCHAR

STARTCHAR 671
ENCODING 671
SWIDTH 759 0
DWIDTH 11 0
BBX 10 11 0 0
BITMAP
0300
0200
0400
0000
3180
60C0
CCC0
CCC0
CDC0
FF80
7700
ENDCHAR

STARTCHAR 672
ENCODING 672
SWIDTH 609 0
DWIDTH 9 0
BBX 8 15 0 -4
BITMAP
0C
04
08
00
3B
7F
E3
C6
C6
FE
76
00
10
10
10
ENDCHAR

STARTCHAR 673
ENCODING 673
SWIDTH 609 0
DWIDTH 9 0
BBX 8 15 0 -4
BITMAP
0C
08
04
00
3B
7F
E3
C6
C6
FE
76
00
10
10
10
ENDCHAR

STARTCHAR 674
ENCODING 674
SWIDTH 609 0
DWIDTH 9 0
BBX 8 15 0 -4
BITMAP
34
14
22
00
3B
7F
E3
C6
C6
FE
76
00
10
10
10
ENDCHAR

STARTCHAR 675
ENCODING 675
SWIDTH 609 0
DWIDTH 9 0
BBX 8 15 0 -4
BITMAP
34
24
12
00
3B
7F
E3
C6
C6
FE
76
00
10
10
10
ENDCHAR

STARTCHAR 676
ENCODING 676
SWIDTH 609 0
DWIDTH 9 0
BBX 8 15 0 -4
BITMAP
1A
0A
14
00
3B
7F
E3
C6
C6
FE
76
00
10
10
10
ENDCHAR

STARTCHAR 677
ENCODING 677
SWIDTH 609 0
DWIDTH 9 0
BBX 8 15 0 -4
BITMAP
1A
12
0C
00
3B
7F
E3
C6
C6
FE
76
00
10
10
10
ENDCHAR

STARTCHAR 678
ENCODING 678
SWIDTH 609 0
DWIDTH 9 0
BBX 8 17 0 -4
BITMAP
1B
36
0C
04
08
00
3B
7F
E3
C6
C6
FE
76
00
10
10
10
ENDCHAR

STARTCHAR 679
ENCODING 679
SWIDTH 609 0
DWIDTH 9 0
BBX 8 17 0 -4
BITMAP
1B
36
0C
08
04
00
3B
7F
E3
C6
C6
FE
76
00
10
10
10
ENDCHAR

STARTCHAR 680
ENCODING 680
SWIDTH 648 0
DWIDTH 9 0
BBX 9 15 -1 -4
BITMAP
6000
2700
4F00
0F00
1B00
1B00
3300
3F00
7F80
6180
C180
0000
0800
0800
0800
ENDCHAR

STARTCHAR 681
ENCODING 681
SWIDTH 648 0
DWIDTH 9 0
BBX 9 15 -1 -4
BITMAP
6000
4700
2F00
0F00
1B00
1B00
3300
3F00
7F80
6180
C180
0000
0800
0800
0800
ENDCHAR

STARTCHAR 682
ENCODING 682
SWIDTH 648 0
DWIDTH 9 0
BBX 10 15 -2 -4
BITMAP
D000
5380
8F80
0780
0D80
0D80
1980
1F80
3FC0
30C0
60C0
0000
0400
0400
0400
ENDCHAR

STARTCHAR 683
ENCODING 683
SWIDTH 648 0
DWIDTH 9 0
BBX 10 15 -2 -4
BITMAP
D000
9380
4F80
0780
0D80
0D80
1980
1F80
3FC0
30C0
60C0
0000
0400
0400
0400
ENDCHAR

STARTCHAR 684
ENCODING 684
SWIDTH 648 0
DWIDTH 9 0
BBX 10 15 -2 -4
BITMAP
D000
5380
A780
0780
0D80
0D80
1980
1F80
3FC0
30C0
60C0
0000
0400
0400
0400
ENDCHAR

STARTCHAR 685
ENCODING 685
SWIDTH 648 0
DWIDTH 9 0
BBX 10 15 -2 -4
BITMAP
D000
9380
6780
0780
0D80
0D80
1980
1F80
3FC0
30C0
60C0
0000
0400
0400
0400
ENDCHAR

STARTCHAR 686
ENCODING 686
SWIDTH 648 0
DWIDTH 9 0
BBX 10 17 -2 -4
BITMAP
6C00
D800
3000
1380
2780
0780
0D80
0D80
1980
1F80
3FC0
30C0
60C0
0000
0400
0400
0400
ENDCHAR

STARTCHAR 687
ENCODING 687
SWIDTH 648 0
DWIDTH 9 0
BBX 10 17 -2 -4
BITMAP
6C00
D800
3000
2380
1780
0780
0D80
0D80
1980
1F80
3FC0
30C0
60C0
0000
0400
0400
0400
ENDCHAR

STARTCHAR 688
ENCODING 688
SWIDTH 602 0
DWIDTH 8 0
BBX 8 15 0 -4
BITMAP
0C
04
08
00
6E
7F
63
63
C6
C6
C6
0C
8C
8C
80
ENDCHAR

STARTCHAR 689
ENCODING 689
SWIDTH 602 0
DWIDTH 8 0
BBX 8 15 0 -4
BITMAP
0C
08
04
00
6E
7F
63
63
C6
C6
C6
0C
8C
8C
80
ENDCHAR

STARTCHAR 690
ENCODING 690
SWIDTH 602 0
DWIDTH 8 0
BBX 8 15 0 -4
BITMAP
1A
0A
11
00
6E
7F
63
63
C6
C6
C6
0C
8C
8C
80
ENDCHAR

STARTCHAR 691
ENCODING 691
SWIDTH 602 0
DWIDTH 8 0
BBX 8 15 0 -4
BITMAP
1A
12
09
00
6E
7F
63
63
C6
C6
C6
0C
8C
8C
80
ENDCHAR

STARTCHAR 692
ENCODING 692
SWIDTH 602 0
DWIDTH 8 0
BBX 8 15 0 -4
BITMAP
1A
0A
14
00
6E
7F
63
63
C6
C6
C6
0C
8C
8C
80
ENDCHAR

STARTCHAR 693
ENCODING 693
SWIDTH 602 0
DWIDTH 8 0
BBX 8 15 0 -4
BITMAP
1A
12
0C
00
6E
7F
63
63
C6
C6
C6
0C
8C
8C
80
ENDCHAR

STARTCHAR 694
ENCODING 694
SWIDTH 602 0
DWIDTH 8 0
BBX 8 17 0 -4
BITMAP
1B
36
0C
04
08
00
6E
7F
63
63
C6
C6
C6
0C
8C
8C
80
ENDCHAR

STARTCHAR 695
ENCODING 695
SWIDTH 602 0
DWIDTH 8 0
BBX 8 17 0 -4
BITMAP
1B
36
0C
08
04
00
6E
7F
63
63
C6
C6
C6
0C
8C
8C
80
ENDCHAR

STARTCHAR 696
ENCODING 696
SWIDTH 1017 0
DWIDTH 14 0
BBX 12 15 1 -4
BITMAP
C000
4C30
8C30
0C30
1860
1FE0
1FE0
1860
30C0
30C0
30C0
0000
0400
0400
0400
ENDCHAR

STARTCHAR 697
ENCODING 697
SWIDTH 1017 0
DWIDTH 14 0
BBX 12 15 1 -4
BITMAP
C000
8C30
4C30
0C30
1860
1FE0
1FE0
1860
30C0
30C0
30C0
0000
0400
0400
0400
ENDCHAR

STARTCHAR 698
ENCODING 698
SWIDTH 1177 0
DWIDTH 16 0
BBX 14 15 1 -4
BITMAP
D000
530C
8B0C
030C
0618
07F8
07F8
0618
0C30
0C30
0C30
0000
0100
0100
0100
ENDCHAR

STARTCHAR 699
ENCODING 699
SWIDTH 1186 0
DWIDTH 17 0
BBX 14 15 1 -4
BITMAP
D000
930C
4B0C
030C
0618
07F8
07F8
0618
0C30
0C30
0C30
0000
0100
0100
0100
ENDCHAR

STARTCHAR 700
ENCODING 700
SWIDTH 1191 0
DWIDTH 17 0
BBX 14 15 1 -4
BITMAP
D000
530C
A30C
030C
0618
07F8
07F8
0618
0C30
0C30
0C30
0000
0100
0100
0100
ENDCHAR

STARTCHAR 701
ENCODING 701
SWIDTH 1196 0
DWIDTH 17 0
BBX 14 15 1 -4
BITMAP
D000
930C
630C
030C
0618
07F8
07F8
0618
0C30
0C30
0C30
0000
0100
0100
0100
ENDCHAR

STARTCHAR 702
ENCODING 702
SWIDTH 1112 0
DWIDTH 16 0
BBX 14 17 1 -4
BITMAP
6C00
D800
3000
130C
230C
030C
0618
07F8
07F8
0618
0C30
0C30
0C30
0000
0100
0100
0100
ENDCHAR

STARTCHAR 703
ENCODING 703
SWIDTH 1112 0
DWIDTH 16 0
BBX 14 17 1 -4
BITMAP
6C00
D800
3000
230C
130C
030C
0618
07F8
07F8
0618
0C30
0C30
0C30
0000
0100
0100
0100
ENDCHAR

STARTCHAR 704
ENCODING 704
SWIDTH 759 0
DWIDTH 11 0
BBX 10 15 0 -4
BITMAP
0600
0200
0400
0000
3180
60C0
CCC0
CCC0
CDC0
FF80
7700
0000
0800
0800
0800
ENDCHAR

STARTCHAR 705
ENCODING 705
SWIDTH 759 0
DWIDTH 11 0
BBX 10 15 0 -4
BITMAP
0600
0400
0200
0000
3180
60C0
CCC0
CCC0
CDC0
FF80
7700
0000
0800
0800
0800
ENDCHAR

STARTCHAR 706
ENCODING 706
SWIDTH 759 0
DWIDTH 11 0
BBX 10 15 0 -4
BITMAP
1A00
0A00
1100
0000
3180
60C0
CCC0
CCC0
CDC0
FF80
7700
0000
0800
0800
0800
ENDCHAR

STARTCHAR 707
ENCODING 707
SWIDTH 759 0
DWIDTH 11 0
BBX 10 15 0 -4
BITMAP
1A00
1200
0900
0000
3180
60C0
CCC0
CCC0
CDC0
FF80
7700
0000
0800
0800
0800
ENDCHAR

STARTCHAR 708
ENCODING 708
SWIDTH 759 0
DWIDTH 11 0
BBX 10 15 0 -4
BITMAP
0D00
0500
0A00
0000
3180
60C0
CCC0
CCC0
CDC0
FF80
7700
0000
0800
0800
0800
ENDCHAR

STARTCHAR 709
ENCODING 709
SWIDTH 759 0
DWIDTH 11 0
BBX 10 15 0 -4
BITMAP
0D00
0900
0600
0000
3180
60C0
CCC0
CCC0
CDC0
FF80
7700
0000
0800
0800
0800
ENDCHAR

STARTCHAR 710
ENCODING 710
SWIDTH 759 0
DWIDTH 11 0
BBX 10 17 0 -4
BITMAP
0D80
1B00
0600
0200
0400
0000
3180
60C0
CCC0
CCC0
CDC0
FF80
7700
0000
0800
0800
0800
ENDCHAR

STARTCHAR 711
ENCODING 711
SWIDTH 759 0
DWIDTH 11 0
BBX 10 17 0 -4
BITMAP
0D80
1B00
0600
0400
0200
0000
3180
60C0
CCC0
CCC0
CDC0
FF80
7700
0000
0800
0800
0800
ENDCHAR

STARTCHAR 712
ENCODING 712
SWIDTH 1076 0
DWIDTH 15 0
BBX 12 15 1 -4
BITMAP
C000
43C0
8FE0
0C70
1830
1830
1830
1860
0CC0
3DE0
3DE0
0000
0200
0200
0200
ENDCHAR

STARTCHAR 713
ENCODING 713
SWIDTH 1076 0
DWIDTH 15 0
BBX 12 15 1 -4
BITMAP
C000
83C0
4FE0
0C70
1830
1830
1830
1860
0CC0
3DE0
3DE0
0000
0200
0200
0200
ENDCHAR

STARTCHAR 714
ENCODING 714
SWIDTH 1236 0
DWIDTH 17 0
BBX 15 15 0 -4
BITMAP
D000
5078
89FC
018E
0306
0306
0306
030C
0198
07BC
07BC
0000
0040
0040
0040
ENDCHAR

STARTCHAR 715
ENCODING 715
SWIDTH 1245 0
DWIDTH 17 0
BBX 15 15 0 -4
BITMAP
D000
9078
49FC
018E
0306
0306
0306
030C
0198
07BC
07BC
0000
0040
0040
0040
ENDCHAR

STARTCHAR 716
ENCODING 716
SWIDTH 1250 0
DWIDTH 18 0
BBX 14 15 1 -4
BITMAP
D000
50F0
A3F8
031C
060C
060C
060C
0618
0330
0F78
0F78
0000
0080
0080
0080
ENDCHAR

STARTCHAR 717
ENCODING 717
SWIDTH 1255 0
DWIDTH 18 0
BBX 14 15 1 -4
BITMAP
D000
90F0
63F8
031C
060C
060C
060C
0618
0330
0F78
0F78
0000
0080
0080
0080
ENDCHAR

STARTCHAR 718
ENCODING 718
SWIDTH 1171 0
DWIDTH 16 0
BBX 14 17 1 -4
BITMAP
6C00
D800
3000
10F0
23F8
031C
060C
060C
060C
0618
0330
0F78
0F78
0000
0080
0080
0080
ENDCHAR

STARTCHAR 719
ENCODING 719
SWIDTH 1171 0
DWIDTH 16 0
BBX 14 17 1 -4
BITMAP
6C00
D800
3000
20F0
13F8
031C
060C
060C
060C
0618
0330
0F78
0F78
0000
0080
0080
0080
ENDCHAR

STARTCHAR 720
ENCODING 720
SWIDTH 609 0
DWIDTH 9 0
BBX 8 11 0 0
BITMAP
11
1E
0C
00
3B
7F
E3
C6
C6
FE
76
ENDCHAR

STARTCHAR 721
ENCODING 721
SWIDTH 609 0
DWIDTH 9 0
BBX 8 10 0 0
BITMAP
1E
1E
00
3B
7F
E3
C6
C6
FE
76
ENDCHAR

STARTCHAR 722
ENCODING 722
SWIDTH 609 0
DWIDTH 9 0
BBX 8 15 0 -4
BITMAP
18
08
04
00
3B
7F
E3
C6
C6
FE
76
00
10
10
10
ENDCHAR

STARTCHAR 723
ENCODING 723
SWIDTH 609 0
DWIDTH 9 0
BBX 8 11 0 -4
BITMAP
3B
7F
E3
C6
C6
FE
76
00
10
10
10
ENDCHAR

STARTCHAR 724
ENCODING 724
SWIDTH 609 0
DWIDTH 9 0
BBX 8 15 0 -4
BITMAP
06
04
08
00
3B
7F
E3
C6
C6
FE
76
00
10
10
10
ENDCHAR

STARTCHAR 725
ENCODING 725
SWIDTH 609 0
DWIDTH 9 0
BBX 8 10 0 0
BITMAP
1B
36
00
3B
7F
E3
C6
C6
FE
76
ENDCHAR

STARTCHAR 726
ENCODING 726
SWIDTH 609 0
DWIDTH 9 0
BBX 8 14 0 -4
BITMAP
1B
36
00
3B
7F
E3
C6
C6
FE
76
00
10
10
10
ENDCHAR

STARTCHAR 727
ENCODING 727
SWIDTH 648 0
DWIDTH 9 0
BBX 10 14 -1 0
BITMAP
0440
0780
0300
0000
0700
0F00
0F00
1B00
1B00
3300
3F00
7F80
6180
C180
ENDCHAR

STARTCHAR 728
ENCODING 728
SWIDTH 648 0
DWIDTH 9 0
BBX 9 13 -1 0
BITMAP
0780
0780
0000
0700
0F00
0F00
1B00
1B00
3300
3F00
7F80
6180
C180
ENDCHAR

STARTCHAR 729
ENCODING 729
SWIDTH 648 0
DWIDTH 9 0
BBX 9 11 -1 0
BITMAP
C000
4700
2F00
0F00
1B00
1B00
3300
3F00
7F80
6180
C180
ENDCHAR

STARTCHAR 730
ENCODING 730
SWIDTH 648 0
DWIDTH 9 0
BBX 9 11 -1 0
BITMAP
3000
2700
4F00
0F00
1B00
1B00
3300
3F00
7F80
6180
C180
ENDCHAR

STARTCHAR 731
ENCODING 731
SWIDTH 648 0
DWIDTH 9 0
BBX 9 14 -1 -4
BITMAP
0700
0F00
0F00
1B00
1B00
3300
3F00
7F80
6180
C180
0000
0800
0800
0800
ENDCHAR

STARTCHAR 732
ENCODING 732
SWIDTH 289 0
DWIDTH 4 0
BBX 2 3 2 8
BITMAP
C0
40
80
ENDCHAR

STARTCHAR 733
ENCODING 733
SWIDTH 285 0
DWIDTH 4 0
BBX 1 3 1 -4
BITMAP
80
80
80
ENDCHAR

STARTCHAR 734
ENCODING 734
SWIDTH 289 0
DWIDTH 4 0
BBX 2 3 1 8
BITMAP
C0
40
80
ENDCHAR

STARTCHAR 735
ENCODING 735
SWIDTH 456 0
DWIDTH 6 0
BBX 6 2 0 9
BITMAP
6C
D8
ENDCHAR

STARTCHAR 736
ENCODING 736
SWIDTH 449 0
DWIDTH 6 0
BBX 6 5 0 7
BITMAP
6C
D8
00
48
48
ENDCHAR

STARTCHAR 737
ENCODING 737
SWIDTH 602 0
DWIDTH 8 0
BBX 8 15 0 -4
BITMAP
18
08
04
00
6E
7F
63
63
C6
C6
C6
0C
8C
8C
80
ENDCHAR

STARTCHAR 738
ENCODING 738
SWIDTH 602 0
DWIDTH 8 0
BBX 8 11 0 -4
BITMAP
6E
7F
63
63
C6
C6
C6
0C
8C
8C
80
ENDCHAR

STARTCHAR 739
ENCODING 739
SWIDTH 602 0
DWIDTH 8 0
BBX 8 15 0 -4
BITMAP
06
04
08
00
6E
7F
63
63
C6
C6
C6
0C
8C
8C
80
ENDCHAR

STARTCHAR 740
ENCODING 740
SWIDTH 602 0
DWIDTH 8 0
BBX 8 13 0 -3
BITMAP
1B
36
00
6E
7F
63
63
C6
C6
C6
0C
0C
0C
ENDCHAR

STARTCHAR 741
ENCODING 741
SWIDTH 602 0
DWIDTH 8 0
BBX 8 14 0 -4
BITMAP
1B
36
00
6E
7F
63
63
C6
C6
C6
0C
8C
8C
80
ENDCHAR

STARTCHAR 742
ENCODING 742
SWIDTH 1007 0
DWIDTH 14 0
BBX 11 11 1 0
BITMAP
C000
47E0
27E0
0600
0C00
0FC0
0FC0
0C00
1800
1FC0
1FC0
ENDCHAR

STARTCHAR 743
ENCODING 743
SWIDTH 833 0
DWIDTH 12 0
BBX 10 11 1 0
BITMAP
6000
4FC0
8FC0
0C00
1800
1F80
1F80
1800
3000
3F80
3F80
ENDCHAR

STARTCHAR 744
ENCODING 744
SWIDTH 1124 0
DWIDTH 16 0
BBX 13 11 1 0
BITMAP
C000
4618
2618
0618
0C30
0FF0
0FF0
0C30
1860
1860
1860
ENDCHAR

STARTCHAR 745
ENCODING 745
SWIDTH 950 0
DWIDTH 13 0
BBX 12 11 0 0
BITMAP
6000
4C30
8C30
0C30
1860
1FE0
1FE0
1860
30C0
30C0
30C0
ENDCHAR

STARTCHAR 746
ENCODING 746
SWIDTH 728 0
DWIDTH 10 0
BBX 10 14 0 -4
BITMAP
30C0
30C0
30C0
6180
7F80
7F80
6180
C300
C300
C300
0000
1000
1000
1000
ENDCHAR

STARTCHAR 747
ENCODING 747
SWIDTH 449 0
DWIDTH 6 0
BBX 5 3 1 8
BITMAP
D0
50
88
ENDCHAR

STARTCHAR 748
ENCODING 748
SWIDTH 463 0
DWIDTH 6 0
BBX 4 3 2 8
BITMAP
D0
50
A0
ENDCHAR

STARTCHAR 749
ENCODING 749
SWIDTH 449 0
DWIDTH 6 0
BBX 5 5 1 8
BITMAP
68
90
60
20
40
ENDCHAR

STARTCHAR 750
ENCODING 750
SWIDTH 266 0
DWIDTH 4 0
BBX 5 11 0 0
BITMAP
88
F0
60
00
60
60
60
C0
C0
C0
C0
ENDCHAR

STARTCHAR 751
ENCODING 751
SWIDTH 266 0
DWIDTH 4 0
BBX 4 10 0 0
BITMAP
F0
F0
00
60
60
60
C0
C0
C0
C0
ENDCHAR

STARTCHAR 752
ENCODING 752
SWIDTH 266 0
DWIDTH 4 0
BBX 5 11 0 0
BITMAP
40
A8
A8
00
60
60
60
C0
C0
C0
C0
ENDCHAR

STARTCHAR 753
ENCODING 753
SWIDTH 266 0
DWIDTH 4 0
BBX 5 11 0 0
BITMAP
10
A8
A8
00
60
60
60
C0
C0
C0
C0
ENDCHAR

STARTCHAR 754
ENCODING 754
SWIDTH 266 0
DWIDTH 4 0
BBX 6 10 -1 0
BITMAP
6C
D8
00
30
30
30
60
60
60
60
ENDCHAR

STARTCHAR 755
ENCODING 755
SWIDTH 266 0
DWIDTH 4 0
BBX 6 13 0 0
BITMAP
6C
D8
00
D8
D8
00
60
60
60
C0
C0
C0
C0
ENDCHAR

STARTCHAR 756
ENCODING 756
SWIDTH 309 0
DWIDTH 4 0
BBX 6 14 0 0
BITMAP
44
78
30
00
30
30
30
60
60
60
60
C0
C0
C0
ENDCHAR

STARTCHAR 757
ENCODING 757
SWIDTH 309 0
DWIDTH 4 0
BBX 5 13 0 0
BITMAP
78
78
00
30
30
30
60
60
60
60
C0
C0
C0
ENDCHAR

STARTCHAR 758
ENCODING 758
SWIDTH 705 0
DWIDTH 10 0
BBX 7 11 1 0
BITMAP
C0
46
26
06
0C
0C
0C
0C
18
18
18
ENDCHAR

STARTCHAR 759
ENCODING 759
SWIDTH 531 0
DWIDTH 7 0
BBX 6 11 0 0
BITMAP
60
4C
8C
0C
18
18
18
18
30
30
30
ENDCHAR

STARTCHAR 760
ENCODING 760
SWIDTH 458 0
DWIDTH 6 0
BBX 5 3 1 8
BITMAP
D0
90
48
ENDCHAR

STARTCHAR 761
ENCODING 761
SWIDTH 468 0
DWIDTH 7 0
BBX 4 3 2 8
BITMAP
D0
90
60
ENDCHAR

STARTCHAR 762
ENCODING 762
SWIDTH 449 0
DWIDTH 6 0
BBX 5 5 1 8
BITMAP
68
90
60
40
20
ENDCHAR

STARTCHAR 763
ENCODING 763
SWIDTH 586 0
DWIDTH 8 0
BBX 8 11 0 0
BITMAP
11
1E
0C
00
63
63
63
C6
C6
FC
78
ENDCHAR

STARTCHAR 764
ENCODING 764
SWIDTH 586 0
DWIDTH 8 0
BBX 8 10 0 0
BITMAP
1E
1E
00
63
63
63
C6
C6
FC
78
ENDCHAR

STARTCHAR 765
ENCODING 765
SWIDTH 586 0
DWIDTH 8 0
BBX 8 11 0 0
BITMAP
08
15
15
00
63
63
63
C6
C6
FC
78
ENDCHAR

STARTCHAR 766
ENCODING 766
SWIDTH 586 0
DWIDTH 8 0
BBX 8 11 0 0
BITMAP
02
15
15
00
63
63
63
C6
C6
FC
78
ENDCHAR

STARTCHAR 767
ENCODING 767
SWIDTH 606 0
DWIDTH 8 0
BBX 9 14 -1 -3
BITMAP
0600
0200
0400
0000
0F00
3F80
3180
6180
6380
7F00
6E00
C000
C000
C000
ENDCHAR

STARTCHAR 768
ENCODING 768
SWIDTH 606 0
DWIDTH 8 0
BBX 9 14 -1 -3
BITMAP
0600
0400
0200
0000
0F00
3F80
3180
6180
6380
7F00
6E00
C000
C000
C000
ENDCHAR

STARTCHAR 769
ENCODING 769
SWIDTH 586 0
DWIDTH 8 0
BBX 8 10 0 0
BITMAP
1B
36
00
63
63
63
C6
C6
FC
78
ENDCHAR

STARTCHAR 770
ENCODING 770
SWIDTH 586 0
DWIDTH 8 0
BBX 8 13 0 0
BITMAP
1B
36
00
12
12
00
63
63
63
C6
C6
FC
78
ENDCHAR

STARTCHAR 771
ENCODING 771
SWIDTH 559 0
DWIDTH 8 0
BBX 8 14 0 0
BITMAP
22
3C
18
00
C3
C6
66
6C
7C
38
38
30
30
30
ENDCHAR

STARTCHAR 772
ENCODING 772
SWIDTH 559 0
DWIDTH 8 0
BBX 8 13 0 0
BITMAP
3C
3C
00
C3
C6
66
6C
7C
38
38
30
30
30
ENDCHAR

STARTCHAR 773
ENCODING 773
SWIDTH 955 0
DWIDTH 13 0
BBX 12 11 0 0
BITMAP
C000
4C30
2C60
0660
06C0
07C0
0380
0380
0300
0300
0300
ENDCHAR

STARTCHAR 774
ENCODING 774
SWIDTH 827 0
DWIDTH 12 0
BBX 12 11 0 0
BITMAP
6000
4C30
8C60
0660
06C0
07C0
0380
0380
0300
0300
0300
ENDCHAR

STARTCHAR 775
ENCODING 775
SWIDTH 952 0
DWIDTH 13 0
BBX 11 11 1 0
BITMAP
C000
8FC0
4FE0
0C60
1860
18E0
1FC0
1F00
3800
3000
3000
ENDCHAR

STARTCHAR 776
ENCODING 776
SWIDTH 532 0
DWIDTH 7 0
BBX 5 3 2 8
BITMAP
40
A8
A8
ENDCHAR

STARTCHAR 777
ENCODING 777
SWIDTH 532 0
DWIDTH 7 0
BBX 5 3 2 8
BITMAP
10
A8
A8
ENDCHAR

STARTCHAR 778
ENCODING 778
SWIDTH 396 0
DWIDTH 6 0
BBX 3 3 2 8
BITMAP
C0
40
20
ENDCHAR

STARTCHAR 779
ENCODING 779
SWIDTH 759 0
DWIDTH 11 0
BBX 10 15 0 -4
BITMAP
0C00
0400
0200
0000
3180
60C0
CCC0
CCC0
CDC0
FF80
7700
0000
0800
0800
0800
ENDCHAR

STARTCHAR 780
ENCODING 780
SWIDTH 759 0
DWIDTH 11 0
BBX 10 11 0 -4
BITMAP
3180
60C0
CCC0
CCC0
CDC0
FF80
7700
0000
0800
0800
0800
ENDCHAR

STARTCHAR 781
ENCODING 781
SWIDTH 759 0
DWIDTH 11 0
BBX 10 15 0 -4
BITMAP
0300
0200
0400
0000
3180
60C0
CCC0
CCC0
CDC0
FF80
7700
0000
0800
0800
0800
ENDCHAR

STARTCHAR 782
ENCODING 782
SWIDTH 759 0
DWIDTH 11 0
BBX 10 10 0 0
BITMAP
0D80
1B00
0000
3180
60C0
CCC0
CCC0
CDC0
FF80
7700
ENDCHAR

STARTCHAR 783
ENCODING 783
SWIDTH 759 0
DWIDTH 11 0
BBX 10 14 0 -4
BITMAP
0D80
1B00
0000
3180
60C0
CCC0
CCC0
CDC0
FF80
7700
0000
0800
0800
0800
ENDCHAR

STARTCHAR 784
ENCODING 784
SWIDTH 1181 0
DWIDTH 17 0
BBX 14 11 2 0
BITMAP
C000
41F0
27F8
071C
0E0C
0C0C
0C0C
0C1C
0E38
07F8
03E0
ENDCHAR

STARTCHAR 785
ENCODING 785
SWIDTH 949 0
DWIDTH 13 0
BBX 13 11 -1 0
BITMAP
6000
43E0
8FF0
0E38
1C18
1818
1818
1838
1C70
0FF0
07C0
ENDCHAR

STARTCHAR 786
ENCODING 786
SWIDTH 1183 0
DWIDTH 17 0
BBX 13 11 2 0
BITMAP
C000
41E0
27F0
0638
0C18
0C18
0C18
0C30
0660
1EF0
1EF0
ENDCHAR

STARTCHAR 787
ENCODING 787
SWIDTH 951 0
DWIDTH 13 0
BBX 12 11 0 0
BITMAP
6000
43C0
8FE0
0C70
1830
1830
1830
1860
0CC0
3DE0
3DE0
ENDCHAR

STARTCHAR 788
ENCODING 788
SWIDTH 787 0
DWIDTH 11 0
BBX 10 14 0 -4
BITMAP
0F00
3F80
31C0
60C0
60C0
60C0
6180
3300
F780
F780
0000
0800
0800
0800
ENDCHAR

STARTCHAR 789
ENCODING 789
SWIDTH 396 0
DWIDTH 6 0
BBX 3 3 2 8
BITMAP
60
40
80
ENDCHAR

STARTCHAR 790
ENCODING 790
SWIDTH 289 0
DWIDTH 4 0
BBX 2 3 1 8
BITMAP
C0
80
40
ENDCHAR

STARTCHAR 791
ENCODING 791
SWIDTH 323 0
DWIDTH 5 0
BBX 4 2 1 3
BITMAP
F0
F0
ENDCHAR

STARTCHAR 792
ENCODING 792
SWIDTH 500 0
DWIDTH 7 0
BBX 7 2 0 3
BITMAP
FE
FE
ENDCHAR

STARTCHAR 793
ENCODING 793
SWIDTH 1000 0
DWIDTH 14 0
BBX 9 2 2 3
BITMAP
FF80
FF80
ENDCHAR

STARTCHAR 794
ENCODING 794
SWIDTH 1000 0
DWIDTH 14 0
BBX 14 2 0 3
BITMAP
FFFC
FFFC
ENDCHAR

STARTCHAR 795
ENCODING 795
SWIDTH 500 0
DWIDTH 7 0
BBX 7 3 -1 -3
BITMAP
FE
00
FE
ENDCHAR

STARTCHAR 796
ENCODING 796
SWIDTH 260 0
DWIDTH 4 0
BBX 2 4 1 6
BITMAP
40
80
C0
C0
ENDCHAR

STARTCHAR 797
ENCODING 797
SWIDTH 260 0
DWIDTH 4 0
BBX 2 4 2 6
BITMAP
C0
C0
40
80
ENDCHAR

STARTCHAR 798
ENCODING 798
SWIDTH 260 0
DWIDTH 4 0
BBX 2 4 1 -2
BITMAP
C0
C0
40
80
ENDCHAR

STARTCHAR 799
ENCODING 799
SWIDTH 260 0
DWIDTH 4 0
BBX 2 4 1 6
BITMAP
C0
C0
80
40
ENDCHAR

STARTCHAR 800
ENCODING 800
SWIDTH 449 0
DWIDTH 6 0
BBX 5 4 1 6
BITMAP
48
90
D8
D8
ENDCHAR

STARTCHAR 801
ENCODING 801
SWIDTH 449 0
DWIDTH 6 0
BBX 5 4 1 6
BITMAP
D8
D8
48
90
ENDCHAR

STARTCHAR 802
ENCODING 802
SWIDTH 449 0
DWIDTH 6 0
BBX 5 4 0 -2
BITMAP
D8
D8
48
90
ENDCHAR

STARTCHAR 803
ENCODING 803
SWIDTH 500 0
DWIDTH 7 0
BBX 5 12 1 -2
BITMAP
20
20
20
F8
20
20
40
40
40
40
40
40
ENDCHAR

STARTCHAR 804
ENCODING 804
SWIDTH 500 0
DWIDTH 7 0
BBX 6 12 0 -2
BITMAP
10
10
10
7C
10
10
20
20
F8
20
20
20
ENDCHAR

STARTCHAR 805
ENCODING 805
SWIDTH 590 0
DWIDTH 8 0
BBX 4 4 2 3
BITMAP
60
F0
F0
60
ENDCHAR

STARTCHAR 806
ENCODING 806
SWIDTH 602 0
DWIDTH 8 0
BBX 6 6 1 2
BITMAP
80
E0
F8
F8
E0
80
ENDCHAR

STARTCHAR 807
ENCODING 807
SWIDTH 1000 0
DWIDTH 14 0
BBX 12 2 0 0
BITMAP
C630
C630
ENDCHAR

STARTCHAR 808
ENCODING 808
SWIDTH 284 0
DWIDTH 4 0
BBX 1 1 0 0
BITMAP
00
ENDCHAR

STARTCHAR 809
ENCODING 809
SWIDTH 284 0
DWIDTH 4 0
BBX 1 1 0 0
BITMAP
00
ENDCHAR

STARTCHAR 810
ENCODING 810
SWIDTH 1285 0
DWIDTH 18 0
BBX 17 10 0 0
BITMAP
718000
890000
8B0000
8A0000
760000
0DC700
0A2880
1A2880
122880
31C700
ENDCHAR

STARTCHAR 811
ENCODING 811
SWIDTH 329 0
DWIDTH 5 0
BBX 2 4 2 6
BITMAP
40
40
80
80
ENDCHAR

STARTCHAR 812
ENCODING 812
SWIDTH 426 0
DWIDTH 6 0
BBX 5 4 1 6
BITMAP
48
48
90
90
ENDCHAR

STARTCHAR 813
ENCODING 813
SWIDTH 236 0
DWIDTH 3 0
BBX 3 6 0 1
BITMAP
20
40
80
80
80
40
ENDCHAR

STARTCHAR 814
ENCODING 814
SWIDTH 236 0
DWIDTH 3 0
BBX 3 6 0 1
BITMAP
40
20
20
20
40
80
ENDCHAR

STARTCHAR 815
ENCODING 815
SWIDTH 660 0
DWIDTH 9 0
BBX 8 10 1 0
BITMAP
33
33
33
66
66
66
66
00
CC
CC
ENDCHAR

STARTCHAR 816
ENCODING 816
SWIDTH 500 0
DWIDTH 7 0
BBX 7 1 0 10
BITMAP
FE
ENDCHAR

STARTCHAR 817
ENCODING 817
SWIDTH 278 0
DWIDTH 4 0
BBX 4 2 0 3
BITMAP
F0
F0
ENDCHAR

STARTCHAR 818
ENCODING 818
SWIDTH 167 0
DWIDTH 2 0
BBX 6 10 -2 0
BITMAP
0C
08
18
10
30
20
20
60
40
C0
ENDCHAR

STARTCHAR 819
ENCODING 819
SWIDTH 451 0
DWIDTH 6 0
BBX 6 5 0 5
BITMAP
5C
64
44
88
88
ENDCHAR

STARTCHAR 820
ENCODING 820
SWIDTH 932 0
DWIDTH 13 0
BBX 13 10 0 0
BITMAP
3F00
3F00
3000
6058
7E78
7E60
6060
C0C0
C0C0
C0C0
ENDCHAR

STARTCHAR 821
ENCODING 821
SWIDTH 567 0
DWIDTH 8 0
BBX 7 10 0 0
BITMAP
1C
3E
66
60
F8
60
F8
60
FC
B8
ENDCHAR

STARTCHAR 822
ENCODING 822
SWIDTH 731 0
DWIDTH 10 0
BBX 10 9 0 0
BITMAP
F980
CD80
CFC0
CD80
F980
C180
C180
C180
C0C0
ENDCHAR

STARTCHAR 823
ENCODING 823
SWIDTH 986 0
DWIDTH 14 0
BBX 11 11 1 -1
BITMAP
0180
3100
5300
8200
9600
6460
0CA0
0920
1940
1180
3000
ENDCHAR

STARTCHAR 824
ENCODING 824
SWIDTH 1069 0
DWIDTH 15 0
BBX 15 10 0 0
BITMAP
30C0
38CC
38D6
69B6
6DB6
6DB4
6798
C700
C33E
C300
ENDCHAR

STARTCHAR 825
ENCODING 825
SWIDTH 833 0
DWIDTH 12 0
BBX 9 4 1 6
BITMAP
E880
4D80
4A80
4A80
ENDCHAR

STARTCHAR 826
ENCODING 826
SWIDTH 769 0
DWIDTH 11 0
BBX 9 10 1 0
BITMAP
3E00
7F00
E380
C180
C180
C180
6300
3600
F780
F780
ENDCHAR

STARTCHAR 827
ENCODING 827
SWIDTH 762 0
DWIDTH 11 0
BBX 9 9 1 0
BITMAP
3E00
6300
C180
C180
FF80
C000
C180
6300
3E00
ENDCHAR

STARTCHAR 828
ENCODING 828
SWIDTH 882 0
DWIDTH 12 0
BBX 12 10 0 0
BITMAP
2100
E300
2200
4600
4460
4C90
08E0
1920
1120
30C0
ENDCHAR

STARTCHAR 829
ENCODING 829
SWIDTH 881 0
DWIDTH 12 0
BBX 12 10 0 0
BITMAP
3880
4980
3100
1300
9260
6690
04E0
0D20
0920
18C0
ENDCHAR

STARTCHAR 830
ENCODING 830
SWIDTH 881 0
DWIDTH 12 0
BBX 12 10 0 0
BITMAP
3880
4180
7100
1300
9260
6690
04E0
0D20
0920
18C0
ENDCHAR

STARTCHAR 831
ENCODING 831
SWIDTH 881 0
DWIDTH 12 0
BBX 12 10 0 0
BITMAP
F100
1300
2200
4600
4460
8C90
08E0
1920
1120
30C0
ENDCHAR

STARTCHAR 832
ENCODING 832
SWIDTH 1000 0
DWIDTH 14 0
BBX 12 5 1 1
BITMAP
1800
6000
FFF0
6000
1800
ENDCHAR

STARTCHAR 833
ENCODING 833
SWIDTH 500 0
DWIDTH 7 0
BBX 5 12 1 -2
BITMAP
20
70
70
A8
A8
20
20
20
20
20
20
20
ENDCHAR

STARTCHAR 834
ENCODING 834
SWIDTH 1000 0
DWIDTH 14 0
BBX 12 5 1 1
BITMAP
0180
0060
FFF0
0060
0180
ENDCHAR

STARTCHAR 835
ENCODING 835
SWIDTH 500 0
DWIDTH 7 0
BBX 5 12 1 -2
BITMAP
20
20
20
20
20
20
20
A8
A8
70
70
20
ENDCHAR

STARTCHAR 836
ENCODING 836
SWIDTH 1000 0
DWIDTH 14 0
BBX 12 5 1 1
BITMAP
1980
6060
FFF0
6060
1980
ENDCHAR

STARTCHAR 837
ENCODING 837
SWIDTH 500 0
DWIDTH 7 0
BBX 5 13 1 -3
BITMAP
20
70
70
A8
A8
20
20
20
A8
A8
70
70
20
ENDCHAR

STARTCHAR 838
ENCODING 838
SWIDTH 500 0
DWIDTH 7 0
BBX 5 14 1 -3
BITMAP
20
70
70
A8
20
20
20
20
A8
70
70
20
00
F8
ENDCHAR

STARTCHAR 839
ENCODING 839
SWIDTH 534 0
DWIDTH 7 0
BBX 6 9 0 0
BITMAP
38
2C
04
3C
6C
CC
CC
D8
70
ENDCHAR

STARTCHAR 840
ENCODING 840
SWIDTH 697 0
DWIDTH 10 0
BBX 10 10 0 0
BITMAP
1E00
1E00
1E00
3300
3300
3300
6180
6180
7F80
FFC0
ENDCHAR

STARTCHAR 841
ENCODING 841
SWIDTH 787 0
DWIDTH 11 0
BBX 9 13 1 -3
BITMAP
FF80
FF80
C180
C180
C180
C180
C180
C180
C180
C180
C180
C180
C180
ENDCHAR

STARTCHAR 842
ENCODING 842
SWIDTH 718 0
DWIDTH 10 0
BBX 9 13 0 -3
BITMAP
FF80
FF80
6000
3000
1800
0C00
0E00
0C00
1800
3000
6000
FF80
FF80
ENDCHAR

STARTCHAR 843
ENCODING 843
SWIDTH 833 0
DWIDTH 12 0
BBX 8 2 2 3
BITMAP
FF
FF
ENDCHAR

STARTCHAR 844
ENCODING 844
SWIDTH 284 0
DWIDTH 4 0
BBX 2 2 1 4
BITMAP
C0
C0
ENDCHAR

STARTCHAR 845
ENCODING 845
SWIDTH 657 0
DWIDTH 9 0
BBX 9 11 0 0
BITMAP
0180
0100
0300
0200
6600
E400
2C00
3800
3800
1800
1000
ENDCHAR

STARTCHAR 846
ENCODING 846
SWIDTH 833 0
DWIDTH 12 0
BBX 9 6 1 1
BITMAP
6700
DC80
8880
8880
9D80
7300
ENDCHAR

STARTCHAR 847
ENCODING 847
SWIDTH 833 0
DWIDTH 12 0
BBX 9 9 1 0
BITMAP
8000
8000
8000
8000
8000
8000
8000
8000
FF80
ENDCHAR

STARTCHAR 848
ENCODING 848
SWIDTH 833 0
DWIDTH 12 0
BBX 9 9 1 0
BITMAP
3E00
6300
C180
8080
8080
8080
8080
8080
8080
ENDCHAR

STARTCHAR 849
ENCODING 849
SWIDTH 579 0
DWIDTH 8 0
BBX 8 13 0 -2
BITMAP
07
0B
08
18
18
18
18
18
18
18
10
D0
E0
ENDCHAR

STARTCHAR 850
ENCODING 850
SWIDTH 833 0
DWIDTH 12 0
BBX 8 7 2 1
BITMAP
71
FF
8E
00
71
FF
8E
ENDCHAR

STARTCHAR 851
ENCODING 851
SWIDTH 833 0
DWIDTH 12 0
BBX 8 9 2 0
BITMAP
0C
0C
FF
FF
18
FF
FF
30
30
ENDCHAR

STARTCHAR 852
ENCODING 852
SWIDTH 833 0
DWIDTH 12 0
BBX 8 8 2 0
BITMAP
FF
FF
00
FF
FF
00
FF
FF
ENDCHAR

STARTCHAR 853
ENCODING 853
SWIDTH 833 0
DWIDTH 12 0
BBX 8 10 2 0
BITMAP
01
07
3E
F0
F0
3E
07
01
FF
FF
ENDCHAR

STARTCHAR 854
ENCODING 854
SWIDTH 833 0
DWIDTH 12 0
BBX 8 10 2 0
BITMAP
80
E0
7C
0F
0F
7C
E0
80
FF
FF
ENDCHAR

STARTCHAR 855
ENCODING 855
SWIDTH 868 0
DWIDTH 12 0
BBX 11 10 0 0
BITMAP
0400
0A00
1100
2080
4040
8020
8020
8020
8020
FFE0
ENDCHAR

STARTCHAR 856
ENCODING 856
SWIDTH 833 0
DWIDTH 12 0
BBX 9 4 1 2
BITMAP
FF80
FF80
C000
C000
ENDCHAR

STARTCHAR 857
ENCODING 857
SWIDTH 634 0
DWIDTH 9 0
BBX 5 14 3 -3
BITMAP
30
78
58
40
40
C0
C0
C0
C0
C0
C0
C0
C0
C0
ENDCHAR

STARTCHAR 858
ENCODING 858
SWIDTH 634 0
DWIDTH 9 0
BBX 5 14 0 -3
BITMAP
18
18
18
18
18
18
18
18
18
18
10
D0
F0
60
ENDCHAR

STARTCHAR 859
ENCODING 859
SWIDTH 1000 0
DWIDTH 14 0
BBX 14 1 0 3
BITMAP
FFFC
ENDCHAR

STARTCHAR 860
ENCODING 860
SWIDTH 1000 0
DWIDTH 14 0
BBX 1 14 6 -3
BITMAP
80
80
80
80
80
80
80
80
80
80
80
80
80
80
ENDCHAR

STARTCHAR 861
ENCODING 861
SWIDTH 1000 0
DWIDTH 14 0
BBX 8 7 6 -3
BITMAP
FF
80
80
80
80
80
80
ENDCHAR

STARTCHAR 862
ENCODING 862
SWIDTH 1000 0
DWIDTH 14 0
BBX 7 7 0 -3
BITMAP
FE
02
02
02
02
02
02
ENDCHAR

STARTCHAR 863
ENCODING 863
SWIDTH 1000 0
DWIDTH 14 0
BBX 8 8 6 3
BITMAP
80
80
80
80
80
80
80
FF
ENDCHAR

STARTCHAR 864
ENCODING 864
SWIDTH 1000 0
DWIDTH 14 0
BBX 7 8 0 3
BITMAP
02
02
02
02
02
02
02
FE
ENDCHAR

STARTCHAR 865
ENCODING 865
SWIDTH 1000 0
DWIDTH 14 0
BBX 8 14 6 -3
BITMAP
80
80
80
80
80
80
80
FF
80
80
80
80
80
80
ENDCHAR

STARTCHAR 866
ENCODING 866
SWIDTH 1000 0
DWIDTH 14 0
BBX 7 14 0 -3
BITMAP
02
02
02
02
02
02
02
FE
02
02
02
02
02
02
ENDCHAR

STARTCHAR 867
ENCODING 867
SWIDTH 1000 0
DWIDTH 14 0
BBX 14 7 0 -3
BITMAP
FFFC
0200
0200
0200
0200
0200
0200
ENDCHAR

STARTCHAR 868
ENCODING 868
SWIDTH 1000 0
DWIDTH 14 0
BBX 14 8 0 3
BITMAP
0200
0200
0200
0200
0200
0200
0200
FFFC
ENDCHAR

STARTCHAR 869
ENCODING 869
SWIDTH 1000 0
DWIDTH 14 0
BBX 14 14 0 -3
BITMAP
0200
0200
0200
0200
0200
0200
0200
FFFC
0200
0200
0200
0200
0200
0200
ENDCHAR

STARTCHAR 870
ENCODING 870
SWIDTH 1000 0
DWIDTH 14 0
BBX 14 4 0 2
BITMAP
FFFC
0000
0000
FFFC
ENDCHAR

STARTCHAR 871
ENCODING 871
SWIDTH 1000 0
DWIDTH 14 0
BBX 4 14 5 -3
BITMAP
90
90
90
90
90
90
90
90
90
90
90
90
90
90
ENDCHAR

STARTCHAR 872
ENCODING 872
SWIDTH 1000 0
DWIDTH 14 0
BBX 8 8 6 -3
BITMAP
FF
80
80
FF
80
80
80
80
ENDCHAR

STARTCHAR 873
ENCODING 873
SWIDTH 1000 0
DWIDTH 14 0
BBX 9 7 5 -3
BITMAP
FF80
9000
9000
9000
9000
9000
9000
ENDCHAR

STARTCHAR 874
ENCODING 874
SWIDTH 1000 0
DWIDTH 14 0
BBX 9 9 5 -3
BITMAP
FF80
8000
8000
9F80
9000
9000
9000
9000
9000
ENDCHAR

STARTCHAR 875
ENCODING 875
SWIDTH 1000 0
DWIDTH 14 0
BBX 7 9 0 -3
BITMAP
FE
02
02
FE
02
02
02
02
02
ENDCHAR

STARTCHAR 876
ENCODING 876
SWIDTH 1000 0
DWIDTH 14 0
BBX 9 7 0 -3
BITMAP
FF80
0480
0480
0480
0480
0480
0480
ENDCHAR

STARTCHAR 877
ENCODING 877
SWIDTH 1000 0
DWIDTH 14 0
BBX 9 9 0 -3
BITMAP
FF80
0080
0080
FC80
0480
0480
0480
0480
0480
ENDCHAR

STARTCHAR 878
ENCODING 878
SWIDTH 1000 0
DWIDTH 14 0
BBX 8 9 6 2
BITMAP
80
80
80
80
80
FF
80
80
FF
ENDCHAR

STARTCHAR 879
ENCODING 879
SWIDTH 1000 0
DWIDTH 14 0
BBX 9 8 5 3
BITMAP
9000
9000
9000
9000
9000
9000
9000
FF80
ENDCHAR

STARTCHAR 880
ENCODING 880
SWIDTH 1000 0
DWIDTH 14 0
BBX 9 9 5 2
BITMAP
9000
9000
9000
9000
9000
9F80
8000
8000
FF80
ENDCHAR

STARTCHAR 881
ENCODING 881
SWIDTH 1000 0
DWIDTH 14 0
BBX 7 9 0 2
BITMAP
02
02
02
02
02
FE
02
02
FE
ENDCHAR

STARTCHAR 882
ENCODING 882
SWIDTH 1000 0
DWIDTH 14 0
BBX 9 8 0 3
BITMAP
0480
0480
0480
0480
0480
0480
0480
FF80
ENDCHAR

STARTCHAR 883
ENCODING 883
SWIDTH 1000 0
DWIDTH 14 0
BBX 9 9 0 2
BITMAP
0480
0480
0480
0480
0480
FC80
0080
0080
FF80
ENDCHAR

STARTCHAR 884
ENCODING 884
SWIDTH 1000 0
DWIDTH 14 0
BBX 8 14 6 -3
BITMAP
80
80
80
80
80
FF
80
80
FF
80
80
80
80
80
ENDCHAR

STARTCHAR 885
ENCODING 885
SWIDTH 1000 0
DWIDTH 14 0
BBX 9 14 5 -3
BITMAP
9000
9000
9000
9000
9000
9000
9000
9F80
9000
9000
9000
9000
9000
9000
ENDCHAR

STARTCHAR 886
ENCODING 886
SWIDTH 1000 0
DWIDTH 14 0
BBX 9 14 5 -3
BITMAP
9000
9000
9000
9000
9000
9F80
8000
8000
9F80
9000
9000
9000
9000
9000
ENDCHAR

STARTCHAR 887
ENCODING 887
SWIDTH 1000 0
DWIDTH 14 0
BBX 7 14 0 -3
BITMAP
02
02
02
02
02
FE
02
02
FE
02
02
02
02
02
ENDCHAR

STARTCHAR 888
ENCODING 888
SWIDTH 1000 0
DWIDTH 14 0
BBX 9 14 0 -3
BITMAP
0480
0480
0480
0480
0480
0480
0480
FC80
0480
0480
0480
0480
0480
0480
ENDCHAR

STARTCHAR 889
ENCODING 889
SWIDTH 1000 0
DWIDTH 14 0
BBX 9 14 0 -3
BITMAP
0480
0480
0480
0480
0480
FC80
0080
0080
FC80
0480
0480
0480
0480
0480
ENDCHAR

STARTCHAR 890
ENCODING 890
SWIDTH 1000 0
DWIDTH 14 0
BBX 14 9 0 -3
BITMAP
FFFC
0000
0000
FFFC
0200
0200
0200
0200
0200
ENDCHAR

STARTCHAR 891
ENCODING 891
SWIDTH 1000 0
DWIDTH 14 0
BBX 14 7 0 -3
BITMAP
FFFC
0480
0480
0480
0480
0480
0480
ENDCHAR

STARTCHAR 892
ENCODING 892
SWIDTH 1000 0
DWIDTH 14 0
BBX 14 9 0 -3
BITMAP
FFFC
0000
0000
FCFC
0480
0480
0480
0480
0480
ENDCHAR

STARTCHAR 893
ENCODING 893
SWIDTH 1000 0
DWIDTH 14 0
BBX 14 9 0 2
BITMAP
0200
0200
0200
0200
0200
FFFC
0000
0000
FFFC
ENDCHAR

STARTCHAR 894
ENCODING 894
SWIDTH 1000 0
DWIDTH 14 0
BBX 14 8 0 3
BITMAP
0480
0480
0480
0480
0480
0480
0480
FFFC
ENDCHAR

STARTCHAR 895
ENCODING 895
SWIDTH 1000 0
DWIDTH 14 0
BBX 14 9 0 2
BITMAP
0480
0480
0480
0480
0480
FCFC
0000
0000
FFFC
ENDCHAR

STARTCHAR 896
ENCODING 896
SWIDTH 1000 0
DWIDTH 14 0
BBX 14 14 0 -3
BITMAP
0200
0200
0200
0200
0200
FFFC
0200
0200
FFFC
0200
0200
0200
0200
0200
ENDCHAR

STARTCHAR 897
ENCODING 897
SWIDTH 1000 0
DWIDTH 14 0
BBX 14 14 0 -3
BITMAP
0480
0480
0480
0480
0480
0480
0480
FFFC
0480
0480
0480
0480
0480
0480
ENDCHAR

STARTCHAR 898
ENCODING 898
SWIDTH 1000 0
DWIDTH 14 0
BBX 14 14 0 -3
BITMAP
0480
0480
0480
0480
0480
FCFC
0000
0000
FCFC
0480
0480
0480
0480
0480
ENDCHAR

STARTCHAR 899
ENCODING 899
SWIDTH 1000 0
DWIDTH 14 0
BBX 14 7 0 4
BITMAP
FFFC
FFFC
FFFC
FFFC
FFFC
FFFC
FFFC
ENDCHAR

STARTCHAR 900
ENCODING 900
SWIDTH 1000 0
DWIDTH 14 0
BBX 14 7 0 -3
BITMAP
FFFC
FFFC
FFFC
FFFC
FFFC
FFFC
FFFC
ENDCHAR

STARTCHAR 901
ENCODING 901
SWIDTH 1000 0
DWIDTH 14 0
BBX 14 14 0 -3
BITMAP
FFFC
FFFC
FFFC
FFFC
FFFC
FFFC
FFFC
FFFC
FFFC
FFFC
FFFC
FFFC
FFFC
FFFC
ENDCHAR

STARTCHAR 902
ENCODING 902
SWIDTH 1000 0
DWIDTH 14 0
BBX 7 14 0 -3
BITMAP
FE
FE
FE
FE
FE
FE
FE
FE
FE
FE
FE
FE
FE
FE
ENDCHAR

STARTCHAR 903
ENCODING 903
SWIDTH 1000 0
DWIDTH 14 0
BBX 8 14 6 -3
BITMAP
FF
FF
FF
FF
FF
FF
FF
FF
FF
FF
FF
FF
FF
FF
ENDCHAR

STARTCHAR 904
ENCODING 904
SWIDTH 1000 0
DWIDTH 14 0
BBX 12 12 0 -1
BITMAP
C630
C630
0000
0000
0000
C630
C630
0000
0000
0000
C630
C630
ENDCHAR

STARTCHAR 905
ENCODING 905
SWIDTH 1000 0
DWIDTH 14 0
BBX 14 14 0 -3
BITMAP
C630
C630
39CC
39CC
39CC
C630
C630
39CC
39CC
39CC
C630
C630
39CC
39CC
ENDCHAR

STARTCHAR 906
ENCODING 906
SWIDTH 1000 0
DWIDTH 14 0
BBX 14 14 0 -3
BITMAP
FFFC
FFFC
C630
C630
C630
FFFC
FFFC
C630
C630
C630
FFFC
FFFC
C630
C630
ENDCHAR

STARTCHAR 907
ENCODING 907
SWIDTH 674 0
DWIDTH 9 0
BBX 7 7 1 1
BITMAP
FE
FE
FE
FE
FE
FE
FE
ENDCHAR

STARTCHAR 908
ENCODING 908
SWIDTH 947 0
DWIDTH 13 0
BBX 8 3 2 3
BITMAP
FF
FF
FF
ENDCHAR

STARTCHAR 909
ENCODING 909
SWIDTH 602 0
DWIDTH 8 0
BBX 6 6 1 2
BITMAP
10
30
30
78
78
FC
ENDCHAR

STARTCHAR 910
ENCODING 910
SWIDTH 877 0
DWIDTH 12 0
BBX 8 6 2 2
BITMAP
80
F0
FF
FE
F0
80
ENDCHAR

STARTCHAR 911
ENCODING 911
SWIDTH 602 0
DWIDTH 8 0
BBX 6 6 1 2
BITMAP
FC
78
78
30
30
10
ENDCHAR

STARTCHAR 912
ENCODING 912
SWIDTH 877 0
DWIDTH 12 0
BBX 8 6 2 2
BITMAP
01
0F
FF
7F
0F
01
ENDCHAR

STARTCHAR 913
ENCODING 913
SWIDTH 494 0
DWIDTH 7 0
BBX 7 15 0 -4
BITMAP
10
10
28
28
44
44
82
82
82
44
44
28
28
10
10
ENDCHAR

STARTCHAR 914
ENCODING 914
SWIDTH 784 0
DWIDTH 11 0
BBX 10 10 0 -1
BITMAP
1E00
6180
4080
8040
8040
8040
8040
4080
6180
1E00
ENDCHAR

STARTCHAR 915
ENCODING 915
SWIDTH 1000 0
DWIDTH 14 0
BBX 14 14 0 -3
BITMAP
FFFC
FFFC
FFFC
FFFC
FCFC
F87C
F03C
F03C
F87C
FCFC
FFFC
FFFC
FFFC
FFFC
ENDCHAR

STARTCHAR 916
ENCODING 916
SWIDTH 1000 0
DWIDTH 14 0
BBX 14 14 0 -3
BITMAP
FFFC
FFFC
F87C
E79C
EFDC
DFEC
DFEC
DFEC
DFEC
EFDC
E79C
F87C
FFFC
FFFC
ENDCHAR

STARTCHAR 917
ENCODING 917
SWIDTH 877 0
DWIDTH 12 0
BBX 10 10 1 0
BITMAP
1E00
6180
5280
9240
8040
A140
A140
5E80
6180
1E00
ENDCHAR

STARTCHAR 918
ENCODING 918
SWIDTH 877 0
DWIDTH 12 0
BBX 10 10 1 0
BITMAP
1E00
7F80
6D80
EDC0
FFC0
DEC0
DEC0
6180
7F80
1E00
ENDCHAR

STARTCHAR 919
ENCODING 919
SWIDTH 877 0
DWIDTH 12 0
BBX 11 11 0 -1
BITMAP
0400
0400
2E80
1100
2080
E0E0
2080
1100
2E80
0400
0400
ENDCHAR

STARTCHAR 920
ENCODING 920
SWIDTH 822 0
DWIDTH 12 0
BBX 7 11 2 -1
BITMAP
38
44
82
82
44
38
10
10
7C
10
10
ENDCHAR

STARTCHAR 921
ENCODING 921
SWIDTH 822 0
DWIDTH 12 0
BBX 7 11 2 -1
BITMAP
0C
1C
2A
0A
10
30
48
84
84
48
30
ENDCHAR

STARTCHAR 922
ENCODING 922
SWIDTH 986 0
DWIDTH 14 0
BBX 11 11 1 -1
BITMAP
0400
0E00
1F00
1F00
3F80
7FC0
FFE0
FFE0
F5E0
64C0
0E00
ENDCHAR

STARTCHAR 923
ENCODING 923
SWIDTH 986 0
DWIDTH 14 0
BBX 11 11 1 -1
BITMAP
0E00
1F00
1F00
0E00
6EC0
FFE0
FFE0
FFE0
F5E0
64C0
0E00
ENDCHAR

STARTCHAR 924
ENCODING 924
SWIDTH 986 0
DWIDTH 14 0
BBX 10 11 2 -1
BITMAP
7380
F3C0
FFC0
FFC0
FFC0
7F80
3F00
3F00
1E00
0C00
0400
ENDCHAR

STARTCHAR 925
ENCODING 925
SWIDTH 986 0
DWIDTH 14 0
BBX 9 11 2 -1
BITMAP
0800
1C00
3E00
3E00
7F00
FF80
7F00
3E00
3E00
1C00
0800
ENDCHAR

STARTCHAR 926
ENCODING 926
SWIDTH 532 0
DWIDTH 7 0
BBX 7 10 -1 0
BITMAP
10
10
18
14
12
12
12
72
F0
E0
ENDCHAR

STARTCHAR 927
ENCODING 927
SWIDTH 718 0
DWIDTH 10 0
BBX 7 13 0 -3
BITMAP
10
10
18
14
1A
16
12
72
F2
E2
0E
1E
1C
ENDCHAR

STARTCHAR 928
ENCODING 928
SWIDTH 586 0
DWIDTH 8 0
BBX 8 10 0 0
BITMAP
1B
3B
30
FB
FB
62
66
66
E6
C6
ENDCHAR

STARTCHAR 929
ENCODING 929
SWIDTH 586 0
DWIDTH 8 0
BBX 8 10 0 0
BITMAP
33
33
67
F6
F6
66
66
CE
CC
CC
ENDCHAR

STARTCHAR 930
ENCODING 930
SWIDTH 540 0
DWIDTH 8 0
BBX 8 9 0 0
BITMAP
80
C7
E7
74
78
5C
4C
E6
E2
ENDCHAR

STARTCHAR 931
ENCODING 931
SWIDTH 502 0
DWIDTH 7 0
BBX 6 9 0 0
BITMAP
80
F0
F8
18
08
08
08
FC
FC
ENDCHAR

STARTCHAR 932
ENCODING 932
SWIDTH 390 0
DWIDTH 5 0
BBX 6 9 0 0
BITMAP
40
78
78
08
08
08
18
EC
E4
ENDCHAR

STARTCHAR 933
ENCODING 933
SWIDTH 446 0
DWIDTH 6 0
BBX 6 9 0 0
BITMAP
80
FC
FC
08
08
0C
0C
0C
0C
ENDCHAR

STARTCHAR 934
ENCODING 934
SWIDTH 521 0
DWIDTH 7 0
BBX 6 9 0 0
BITMAP
80
FC
FC
08
48
CC
CC
CC
CC
ENDCHAR

STARTCHAR 935
ENCODING 935
SWIDTH 310 0
DWIDTH 4 0
BBX 4 9 0 0
BITMAP
80
E0
E0
20
20
30
30
30
30
ENDCHAR

STARTCHAR 936
ENCODING 936
SWIDTH 258 0
DWIDTH 4 0
BBX 4 9 0 0
BITMAP
C0
F0
70
40
40
40
60
60
60
ENDCHAR

STARTCHAR 937
ENCODING 937
SWIDTH 525 0
DWIDTH 7 0
BBX 6 9 0 0
BITMAP
80
FC
FC
88
88
88
CC
CC
CC
ENDCHAR

STARTCHAR 938
ENCODING 938
SWIDTH 529 0
DWIDTH 7 0
BBX 6 9 0 0
BITMAP
80
E8
EC
4C
44
44
64
7C
38
ENDCHAR

STARTCHAR 939
ENCODING 939
SWIDTH 266 0
DWIDTH 4 0
BBX 3 6 0 3
BITMAP
80
E0
E0
20
60
40
ENDCHAR

STARTCHAR 940
ENCODING 940
SWIDTH 475 0
DWIDTH 7 0
BBX 7 12 -1 -3
BITMAP
80
F8
FC
0C
04
04
04
06
06
06
06
06
ENDCHAR

STARTCHAR 941
ENCODING 941
SWIDTH 491 0
DWIDTH 7 0
BBX 6 9 0 0
BITMAP
80
F8
FC
0C
04
04
04
7C
F8
ENDCHAR

STARTCHAR 942
ENCODING 942
SWIDTH 463 0
DWIDTH 6 0
BBX 6 13 -1 0
BITMAP
C0
C0
80
80
80
F8
FC
04
0C
18
30
30
20
ENDCHAR

STARTCHAR 943
ENCODING 943
SWIDTH 537 0
DWIDTH 8 0
BBX 8 9 -1 0
BITMAP
80
FE
FF
43
43
43
63
7F
7F
ENDCHAR

STARTCHAR 944
ENCODING 944
SWIDTH 541 0
DWIDTH 8 0
BBX 6 9 0 0
BITMAP
80
D8
FC
6C
44
C4
C4
9C
BC
ENDCHAR

STARTCHAR 945
ENCODING 945
SWIDTH 282 0
DWIDTH 4 0
BBX 4 11 0 -2
BITMAP
80
F0
F0
20
20
20
20
30
30
30
30
ENDCHAR

STARTCHAR 946
ENCODING 946
SWIDTH 331 0
DWIDTH 5 0
BBX 6 9 -1 0
BITMAP
40
78
7C
0C
0C
04
04
FC
FC
ENDCHAR

STARTCHAR 947
ENCODING 947
SWIDTH 519 0
DWIDTH 7 0
BBX 8 9 -1 0
BITMAP
80
FE
FF
43
41
41
63
7E
3C
ENDCHAR

STARTCHAR 948
ENCODING 948
SWIDTH 488 0
DWIDTH 7 0
BBX 6 10 0 -1
BITMAP
88
DC
CC
44
68
28
28
78
F0
C0
ENDCHAR

STARTCHAR 949
ENCODING 949
SWIDTH 521 0
DWIDTH 7 0
BBX 7 11 0 -2
BITMAP
80
F8
7C
44
84
E4
E4
06
06
06
06
ENDCHAR

STARTCHAR 950
ENCODING 950
SWIDTH 491 0
DWIDTH 7 0
BBX 6 9 0 0
BITMAP
80
F8
FC
8C
C4
E4
04
FC
F8
ENDCHAR

STARTCHAR 951
ENCODING 951
SWIDTH 491 0
DWIDTH 7 0
BBX 7 11 0 -2
BITMAP
90
DE
DC
48
50
60
40
40
60
60
60
ENDCHAR

STARTCHAR 952
ENCODING 952
SWIDTH 486 0
DWIDTH 7 0
BBX 6 9 0 0
BITMAP
8C
CC
EC
68
30
30
1C
7C
F8
ENDCHAR

STARTCHAR 953
ENCODING 953
SWIDTH 542 0
DWIDTH 8 0
BBX 7 13 0 -4
BITMAP
80
FC
FE
02
06
8C
98
B0
B0
80
C0
C0
C0
ENDCHAR

STARTCHAR 954
ENCODING 954
SWIDTH 506 0
DWIDTH 7 0
BBX 7 9 -1 0
BITMAP
80
FC
FE
06
06
06
06
06
06
ENDCHAR

STARTCHAR 955
ENCODING 955
SWIDTH 653 0
DWIDTH 9 0
BBX 9 9 0 0
BITMAP
8900
ED80
6D80
6D80
4900
4900
5300
7E00
3C00
ENDCHAR

STARTCHAR 956
ENCODING 956
SWIDTH 573 0
DWIDTH 8 0
BBX 7 9 0 0
BITMAP
40
7C
7E
26
66
66
66
C6
C6
ENDCHAR

STARTCHAR 957
ENCODING 957
SWIDTH 176 0
DWIDTH 2 0
BBX 2 4 0 0
BITMAP
40
80
C0
C0
ENDCHAR

STARTCHAR 958
ENCODING 958
SWIDTH 176 0
DWIDTH 2 0
BBX 2 6 0 0
BITMAP
40
80
C0
C0
00
C0
ENDCHAR

STARTCHAR 959
ENCODING 959
SWIDTH 278 0
DWIDTH 4 0
BBX 4 8 0 0
BITMAP
60
90
90
C0
60
20
00
60
ENDCHAR

STARTCHAR 960
ENCODING 960
SWIDTH 255 0
DWIDTH 4 0
BBX 4 4 0 0
BITMAP
60
80
70
C0
ENDCHAR

STARTCHAR 961
ENCODING 961
SWIDTH 231 0
DWIDTH 3 0
BBX 3 9 0 0
BITMAP
E0
00
40
40
40
40
40
40
40
ENDCHAR

STARTCHAR 962
ENCODING 962
SWIDTH 231 0
DWIDTH 3 0
BBX 3 12 0 -1
BITMAP
60
40
E0
00
40
40
40
40
40
40
40
40
ENDCHAR

STARTCHAR 963
ENCODING 963
SWIDTH 370 0
DWIDTH 5 0
BBX 6 10 -1 -3
BITMAP
30
20
70
08
14
14
08
08
90
60
ENDCHAR

STARTCHAR 964
ENCODING 964
SWIDTH 231 0
DWIDTH 3 0
BBX 3 11 0 -3
BITMAP
40
40
40
40
40
40
40
40
60
40
E0
ENDCHAR

STARTCHAR 965
ENCODING 965
SWIDTH 551 0
DWIDTH 8 0
BBX 7 10 0 -3
BITMAP
60
40
E6
0C
48
4C
86
82
FE
78
ENDCHAR

STARTCHAR 966
ENCODING 966
SWIDTH 231 0
DWIDTH 3 0
BBX 1 8 1 0
BITMAP
80
80
80
80
80
80
80
80
ENDCHAR

STARTCHAR 967
ENCODING 967
SWIDTH 731 0
DWIDTH 10 0
BBX 10 9 0 -3
BITMAP
00C0
00C0
4040
C0C0
FF80
7E00
0000
0C00
0C00
ENDCHAR

STARTCHAR 968
ENCODING 968
SWIDTH 222 0
DWIDTH 3 0
BBX 3 7 0 0
BITMAP
A0
A0
00
40
A0
A0
40
ENDCHAR

STARTCHAR 969
ENCODING 969
SWIDTH 731 0
DWIDTH 10 0
BBX 10 7 0 0
BITMAP
0300
1B00
1800
80C0
C0C0
FF80
7E00
ENDCHAR

STARTCHAR 970
ENCODING 970
SWIDTH 731 0
DWIDTH 10 0
BBX 10 9 0 0
BITMAP
1800
1800
0600
36C0
B0C0
8040
C180
7F00
7F00
ENDCHAR

STARTCHAR 971
ENCODING 971
SWIDTH 509 0
DWIDTH 7 0
BBX 7 9 0 -6
BITMAP
7E
30
60
C0
98
98
C0
70
1E
ENDCHAR

STARTCHAR 972
ENCODING 972
SWIDTH 509 0
DWIDTH 7 0
BBX 7 9 0 -6
BITMAP
7E
30
40
40
80
80
C0
70
1E
ENDCHAR

STARTCHAR 973
ENCODING 973
SWIDTH 509 0
DWIDTH 7 0
BBX 7 12 0 -6
BITMAP
30
30
00
7E
30
60
40
C0
80
C0
70
1E
ENDCHAR

STARTCHAR 974
ENCODING 974
SWIDTH 278 0
DWIDTH 4 0
BBX 4 5 -1 0
BITMAP
40
60
30
10
E0
ENDCHAR

STARTCHAR 975
ENCODING 975
SWIDTH 278 0
DWIDTH 4 0
BBX 4 9 -1 0
BITMAP
60
60
00
00
20
70
30
10
E0
ENDCHAR

STARTCHAR 976
ENCODING 976
SWIDTH 356 0
DWIDTH 5 0
BBX 5 6 -1 -3
BITMAP
10
18
08
18
30
E0
ENDCHAR

STARTCHAR 977
ENCODING 977
SWIDTH 356 0
DWIDTH 5 0
BBX 5 10 0 -3
BITMAP
60
60
00
00
10
18
08
18
30
E0
ENDCHAR

STARTCHAR 978
ENCODING 978
SWIDTH 833 0
DWIDTH 12 0
BBX 12 7 0 -4
BITMAP
0010
0250
07B0
4200
8200
8400
7800
ENDCHAR

STARTCHAR 979
ENCODING 979
SWIDTH 833 0
DWIDTH 12 0
BBX 11 12 0 -4
BITMAP
0180
0180
0060
0360
0300
0020
04A0
0760
4400
8400
8800
7000
ENDCHAR

STARTCHAR 980
ENCODING 980
SWIDTH 1000 0
DWIDTH 14 0
BBX 13 8 0 -4
BITMAP
0038
0048
0498
07E0
4500
8400
8800
7000
ENDCHAR

STARTCHAR 981
ENCODING 981
SWIDTH 1000 0
DWIDTH 14 0
BBX 13 11 0 -4
BITMAP
0030
0030
0000
0038
0048
0498
07E0
4500
8400
8800
7000
ENDCHAR

STARTCHAR 982
ENCODING 982
SWIDTH 611 0
DWIDTH 9 0
BBX 7 9 0 0
BITMAP
20
70
20
20
2C
32
32
3C
F0
ENDCHAR

STARTCHAR 983
ENCODING 983
SWIDTH 611 0
DWIDTH 9 0
BBX 7 9 0 0
BITMAP
20
7C
2C
20
2C
32
32
3C
E0
ENDCHAR

STARTCHAR 984
ENCODING 984
SWIDTH 431 0
DWIDTH 6 0
BBX 6 11 0 -6
BITMAP
60
CC
F0
70
40
C0
80
80
C0
60
3C
ENDCHAR

STARTCHAR 985
ENCODING 985
SWIDTH 431 0
DWIDTH 6 0
BBX 7 14 -1 -6
BITMAP
60
60
00
60
C6
D8
70
60
C0
80
80
C0
60
3C
ENDCHAR

STARTCHAR 986
ENCODING 986
SWIDTH 278 0
DWIDTH 4 0
BBX 6 1 -1 0
BITMAP
FC
ENDCHAR

STARTCHAR 987
ENCODING 987
SWIDTH 731 0
DWIDTH 10 0
BBX 10 8 0 0
BITMAP
00C0
00C0
0000
0080
4140
8140
C0C0
7F80
ENDCHAR

STARTCHAR 988
ENCODING 988
SWIDTH 546 0
DWIDTH 8 0
BBX 8 11 0 -2
BITMAP
03
1B
18
00
04
0A
4A
46
86
CC
78
ENDCHAR

STARTCHAR 989
ENCODING 989
SWIDTH 560 0
DWIDTH 8 0
BBX 6 9 0 0
BITMAP
08
0C
68
48
24
64
04
04
F8
ENDCHAR

STARTCHAR 990
ENCODING 990
SWIDTH 472 0
DWIDTH 7 0
BBX 6 10 0 -1
BITMAP
08
0C
0C
04
04
44
44
8C
F8
70
ENDCHAR

STARTCHAR 991
ENCODING 991
SWIDTH 287 0
DWIDTH 4 0
BBX 4 11 0 -7
BITMAP
70
50
70
C0
80
80
C0
40
40
40
40
ENDCHAR

STARTCHAR 992
ENCODING 992
SWIDTH 444 0
DWIDTH 6 0
BBX 6 8 -1 -1
BITMAP
30
30
08
0C
44
8C
F8
78
ENDCHAR

STARTCHAR 993
ENCODING 993
SWIDTH 444 0
DWIDTH 6 0
BBX 6 5 -1 0
BITMAP
10
38
2C
34
CC
ENDCHAR

STARTCHAR 994
ENCODING 994
SWIDTH 394 0
DWIDTH 6 0
BBX 6 7 -1 -3
BITMAP
08
14
14
08
18
B0
60
ENDCHAR

STARTCHAR 995
ENCODING 995
SWIDTH 551 0
DWIDTH 8 0
BBX 8 8 -1 -3
BITMAP
03
0E
48
4C
8E
82
FC
70
ENDCHAR

STARTCHAR 996
ENCODING 996
SWIDTH 551 0
DWIDTH 8 0
BBX 7 11 0 -6
BITMAP
06
0C
48
4C
8E
82
FC
70
00
6C
6C
ENDCHAR

STARTCHAR 997
ENCODING 997
SWIDTH 245 0
DWIDTH 3 0
BBX 3 4 0 9
BITMAP
20
C0
20
C0
ENDCHAR

STARTCHAR 998
ENCODING 998
SWIDTH 245 0
DWIDTH 3 0
BBX 3 4 0 9
BITMAP
40
A0
40
A0
ENDCHAR

STARTCHAR 999
ENCODING 999
SWIDTH 245 0
DWIDTH 3 0
BBX 3 4 0 -4
BITMAP
20
C0
20
C0
ENDCHAR

STARTCHAR 1000
ENCODING 1000
SWIDTH 245 0
DWIDTH 3 0
BBX 3 2 0 10
BITMAP
60
80
ENDCHAR

STARTCHAR 1001
ENCODING 1001
SWIDTH 245 0
DWIDTH 3 0
BBX 3 4 0 10
BITMAP
40
A0
40
A0
ENDCHAR

STARTCHAR 1002
ENCODING 1002
SWIDTH 245 0
DWIDTH 3 0
BBX 3 2 0 -3
BITMAP
60
80
ENDCHAR

STARTCHAR 1003
ENCODING 1003
SWIDTH 245 0
DWIDTH 3 0
BBX 4 2 -1 10
BITMAP
50
E0
ENDCHAR

STARTCHAR 1004
ENCODING 1004
SWIDTH 245 0
DWIDTH 3 0
BBX 3 3 0 10
BITMAP
40
A0
40
ENDCHAR

STARTCHAR 1005
ENCODING 1005
SWIDTH 352 0
DWIDTH 5 0
BBX 2 3 1 2
BITMAP
80
C0
40
ENDCHAR

STARTCHAR 1006
ENCODING 1006
SWIDTH 352 0
DWIDTH 5 0
BBX 3 8 1 0
BITMAP
80
C0
40
60
20
20
20
20
ENDCHAR

STARTCHAR 1007
ENCODING 1007
SWIDTH 352 0
DWIDTH 5 0
BBX 4 8 0 0
BITMAP
90
F0
60
40
40
20
20
20
ENDCHAR

STARTCHAR 1008
ENCODING 1008
SWIDTH 352 0
DWIDTH 5 0
BBX 6 8 -1 0
BITMAP
94
FC
68
40
40
20
20
20
ENDCHAR

STARTCHAR 1009
ENCODING 1009
SWIDTH 352 0
DWIDTH 5 0
BBX 4 8 0 0
BITMAP
30
40
C0
C0
40
80
E0
60
ENDCHAR

STARTCHAR 1010
ENCODING 1010
SWIDTH 352 0
DWIDTH 5 0
BBX 4 5 0 1
BITMAP
20
70
90
F0
E0
ENDCHAR

STARTCHAR 1011
ENCODING 1011
SWIDTH 352 0
DWIDTH 5 0
BBX 5 8 -1 0
BITMAP
C0
F0
F0
10
10
18
18
08
ENDCHAR

STARTCHAR 1012
ENCODING 1012
SWIDTH 352 0
DWIDTH 5 0
BBX 6 8 -1 0
BITMAP
84
84
CC
48
78
30
30
10
ENDCHAR

STARTCHAR 1013
ENCODING 1013
SWIDTH 352 0
DWIDTH 5 0
BBX 6 8 -1 0
BITMAP
10
30
30
58
58
8C
8C
84
ENDCHAR

STARTCHAR 1014
ENCODING 1014
SWIDTH 352 0
DWIDTH 5 0
BBX 4 9 0 -1
BITMAP
60
60
A0
E0
E0
10
10
10
10
ENDCHAR

STARTCHAR 1015
ENCODING 1015
SWIDTH 567 0
DWIDTH 8 0
BBX 8 10 0 0
BITMAP
1E
3F
31
FC
60
F8
60
62
7E
3C
ENDCHAR
ENDFONT
